<?xml version="1.0" encoding="utf-8"?>
<!-- Generator: Adobe Illustrator 26.1.0, SVG Export Plug-In . SVG Version: 6.00 Build 0)  -->
<svg version="1.1" id="图层_3_xA0_图像_00000099625531656924284350000002423003231085691832_"
	 xmlns="http://www.w3.org/2000/svg" xmlns:xlink="http://www.w3.org/1999/xlink" x="0px" y="0px" viewBox="0 0 480 480"
	 enable-background="new 0 0 480 480" xml:space="preserve">
<path fill="#58C4DD" d="M327.3,49.9c1.6,0.4,3.3,0.7,4.9,1.1c3.8,1,7.3,2.6,10.6,4.6c6,3.8,12.5,5.9,19.4,7.1
	c7.9,1.4,15.2,4.3,21.7,9.1c7.8,5.7,12.9,13.2,15.8,22.3c1.4,4.5,2.9,8.9,4.3,13.4c1,3.1,2.6,5.8,5.2,7.8c7.8,6,12.6,14.1,16.8,22.7
	c0.6,1.3,1.2,2.7,2,4c2.5,4.5,3.4,9.5,5.3,14.2c3,7.4,6.4,14.7,9.4,22.1c1.7,4.1,3.2,8.3,4.3,12.6c1.8,7.1,0.6,14-2.4,20.6
	c-2.2,4.8-4.9,9.4-7.4,14.1c-3.1,5.7-6.2,11.4-9.5,17c-1.1,2-2.6,3.7-4.1,5.5c-4.4,5.4-10.6,6.4-17,6.5c-4.9,0.1-9.2-1.6-12.7-5.1
	c-2.2-2.1-4-4.6-4.9-7.5c-2-6-4.6-11.8-5.9-18c-2.4-11.5-2.2-22.9,0.5-34.3c0.9-3.8,1.6-7.6,2.2-11.4c0.5-3.1,0.2-6.1-0.7-9.1
	c-0.2-0.6-0.4-1.1-0.8-2.1c-1.6,2.5-3.1,4.6-4.2,6.9c-1.6,3.4-3.4,6.8-4.3,10.4c-2,7.1-5.9,12.9-10.9,18.2c-0.7,0.8-1.4,1.7-2.3,2.3
	c-1.4,1.1-1.7,2.5-1.6,4.2c1,23.8-3,46.6-11.6,68.8c-2.8,7.3-6.9,13.9-10.8,20.6c-3.5,6-7.4,11.9-9.9,18.5c-3.1,8.1-5.5,16.5-7.1,25
	c-0.6,3.1,0.2,6.2,2.6,8.5c1.6,1.6,3.5,3.1,5.3,4.5c2.4,1.9,4.4,4.2,5.5,7.1c2.1,5.5,0.3,11-4.7,14.2c-2.8,1.8-5.8,2.6-9,2.9
	c-4.8,0.4-9.7,0.4-14.4-0.6c-6-1.3-10-4.8-11.8-10.8c-0.5-1.6-1.4-3.2-2.4-4.6c-0.7-1-1.8-1.7-2.8-2.4c-4.2-2.9-5.3-7-4.5-11.8
	c0.3-1.7,0.6-3.4,0.9-5.1c0.1-0.3,0.1-0.7,0.2-1.4c-0.7,0.8-1.2,1.3-1.7,1.8c-3.3,4.1-7.7,5.1-12.7,4.2c-2.7-0.5-5.3-1-8-1.5
	c-0.9-0.2-1.2,0-1.4,1c-1.3,9.8,1.3,18.7,6.5,26.9c2.2,3.5,4.2,7.3,5.9,11.1c1.7,4,1.5,8.1-1.4,11.6c-1.4,1.7-3.2,3-5.3,3.8
	c-9.4,3.3-19,4.7-28.9,2.8c-3.4-0.7-6.5-2.3-9.5-4c-2.8-1.6-5.4-3.4-7.4-5.9c-4.7-5.8-6.7-12.4-7.1-19.7c-0.3-5.1-0.3-10.2-1.4-15.3
	c-0.1-0.4-0.2-0.8-0.4-1.3c-2.9,1.4-6,1.6-9.1,1.4c-1.1-0.1-2.2-0.2-3.3-0.4c-3.8-0.7-7.6-0.7-11.3,0.6c-1,0.3-2,0.4-3.2,0.6
	c0.3,1.4,0.6,2.7,0.8,4.1c0.6,4.5-0.5,8.7-3.1,12.4c-0.9,1.3-2.5,2.3-4,3.2c-3.7,2.2-7.7,3.3-11.9,3.8c-5.1,0.6-10.1,0.8-15.1-0.4
	c-4.6-1.1-9.2-1.9-13.7-3.2c-7-2-13.6-5.1-20-8.5c-6.6-3.5-13.3-6.8-19.4-11.2c-1.9-1.4-3.7-3-5.4-4.7c-1.8-1.8-2.7-4-3.3-6.4
	c-0.8-3.1,0.2-5.8,1.5-8.6c-1.3-1.6-2.8-3.2-4-4.9c-7.4-10-10.3-21.4-10.2-33.7c0-1.5,0.1-3,0.3-4.5c0.1-0.8-0.2-1.2-0.9-1.6
	c-5.4-3-10.4-6.5-15.1-10.6c-15.7-13.9-25.5-31.1-29.5-51.7c-1.9-10-1.8-20,0.6-29.9C36.7,193.3,42,185,51,179.1
	c0.4-0.3,0.9-0.5,1.4-0.7c0.1,0.1,0.2,0.2,0.3,0.2c-0.2,0.7-0.2,1.4-0.5,2c-1.1,2.4-2.2,4.8-3.6,7.1c-3.9,6.5-4.7,13.6-4.2,20.9
	c0.6,8.6,3.3,16.7,7.1,24.4c4.6,9.6,10,18.7,16.7,26.9c4.5,5.5,9.7,10.3,15.9,13.9c0.2,0.1,0.5,0.3,0.7,0.4c0.1,0.1,0.2,0.1,0.5,0.2
	c0.6-1.7,1.2-3.3,1.9-5c4.4-10.7,8.6-21.5,15.7-30.8c7.7-10.1,17.4-17.7,28.5-23.6c11.5-6.1,23.6-10.9,35.9-15.4
	c11-4,22-7.8,33-11.8c1.4-0.5,2.8-1.1,4.3-1.7c-1.9-3.2-3.3-6.6-3.9-10.1c-1.1-6-2.2-12-3-18.1c-1.6-11.6-2.5-23.2-2.4-34.9
	c0-3,0.4-6.1,1-9c1.1-5.2,4.2-9.1,8.2-12.4c10.9-9.2,21.9-18.3,32.9-27.4c5.9-4.9,12.8-7.2,20.5-7.3c2.5,0,5-0.2,7.6-0.2
	c8.4,0.1,16.2-2,23.8-5.6c6.3-3,12.8-5.8,19.3-8.4c3.1-1.2,6.5-1.7,9.7-2.5c0.3-0.1,0.6-0.2,0.9-0.3
	C321.9,49.9,324.6,49.9,327.3,49.9z M248.9,170.4c-0.4,0.2-0.5,0.2-0.5,0.3c-0.2,0.3-0.4,0.6-0.6,0.9c-2.9,4.1-5.6,8.4-8.8,12.2
	c-4.2,5.1-9.5,8.6-16.2,9.8c-0.6,0.1-1.3,0.2-2.1,0.4c0.3,0.6,0.5,1.1,0.7,1.6c2.5,5,5.8,9.4,9.5,13.5c1.3,1.5,2.6,3,3.8,4.7
	c1.1,1.5,1,2.5-0.4,3.8c-1.1,1.1-1.7,2.5-2,4c-0.7,4.3,0.5,8.2,2.3,11.9c2.8,5.9,7,10.7,11.8,15c3.3,3,6.7,5.8,10.1,8.6
	c3.2,2.7,3.3,5.2,0,7.8c-1.5,1.2-3.1,2.1-4.8,3c-3.2,1.7-6.4,3.4-8.8,6.1c-2.5,2.8-4.2,5.9-3.9,9.9c0.2,2.7,1.2,5.3,2.9,7.4
	c2.9,3.7,6.1,7.3,9.2,10.9c0.2,0.2,0.5,0.3,0.7,0.5c0.3,0.4,0.8,0.8,0.9,1.2c0.3,1.1,0.3,2.2,0.5,3.3c0.8,5.5,3,10.5,4.8,15.7
	c1.4,3.9,2.5,8,3.7,12c0.5,1.8,0.9,3.6,1.3,5.5c1.5,0,3-0.2,4.4,0c1.9,0.3,3.7,0.9,5.6,1.3c3.8,0.8,6.2-0.2,8-3.5
	c1.6-2.8,3.9-4.3,7.1-4.2c3.9,0.1,7.4-1,10.8-2.9c1-0.6,2.1-1.1,3.1-1.6c0.8-0.4,1.3,0,1.2,0.9c-0.1,0.3-0.2,0.7-0.4,1
	c-1.2,2.5-3.3,4-5.8,4.9c-1.7,0.6-3.4,0.9-5.2,1.3c1.1,2.9,0.7,5.9,0.2,8.9c-0.2,1.1-0.3,2.3-0.4,3.4c-0.3,2.4,0.5,4.4,2.5,5.9
	c0.7,0.5,1.4,1.1,2.1,1.6c2.1,1.5,3.6,3.5,4.5,5.9c0.4,1.2,0.9,2.4,1.4,3.6c0.7,1.7,1.7,3.2,3.5,4c3.2,1.6,6.7,1.8,10.2,1.5
	c0.1,0,0.1-0.1,0.1-0.1c-0.5-3.3-1.7-6.2-3.8-8.7c-0.4-0.4-1-1-0.3-1.5c0.3-0.2,1.2,0,1.6,0.2c3.4,2.4,4.9,5.7,4.8,10.2
	c2.1-0.4,4.3-0.7,6.4-1.2c0.2,0,0.4-0.6,0.4-0.9c-0.4-3.4-2.4-6-4.9-8.1c-0.5-0.4-1.1-0.7-0.6-1.5c0.5-0.7,1.1-0.5,1.7-0.1
	c2.5,1.5,4.4,3.5,5.5,6.1c0.3,0.8,0.6,1.5,1,2.3c0.1,0,0.2,0,0.4,0.1c0.3-0.8,0.7-1.7,0.8-2.5c0.2-1.6-0.7-3-1.8-4
	c-1.6-1.6-3.3-3-5.1-4.4c-5.4-4.4-7.7-10-6.8-17c0.2-1.5,0.5-3.1,0.9-4.6c1.7-6,4.5-11.5,7.1-17.2c0.3-0.8,0.4-1.3-0.2-1.9
	c-2-2.2-3.5-4.7-4.4-7.6c-1.3-4.4-1.1-8.8-0.6-13.2c0.2-1.7,0.8-3.5,1.5-5c0.6-1.3,0.9-2.5,0.8-3.8c-0.4-3.1-0.9-6.1-1.3-9.2
	c-0.2-1.9-0.6-3.8-0.4-5.6c0.6-4.2,1.7-8.4,2.3-12.6c0.4-3,2-5.2,4-7.3c2.8-3.1,5.5-6.3,8.3-9.5c1.1-1.2,2.2-2.4,3.4-3.5
	c1.1-1,2.3-1.8,3.3-2.7c4-3.5,8.2-6.6,13.4-8c0.8-0.2,0.9-0.8,1-1.5c0.3-4.8,0.5-9.7,0.8-14.5c0-0.3-0.1-0.6-0.1-1
	c-0.3,0.2-0.5,0.3-0.7,0.5c-3.8,3-7.4,6.1-11.3,8.9c-5.4,4-10.8,8.2-17,10.9c-1.5,0.7-3,1.5-4.5,2.2c-0.6,0.3-0.9,0.6-0.8,1.4
	c0.5,3.8,0.3,7.6-0.5,11.3c-1.4,6.5-4.6,11.7-10.8,14.7c-1.3,0.6-2.7,1.2-4.1,1.2c-3.4,0.1-6.3-1.2-8.7-3.6
	c-2.4-2.4-3.7-5.4-4.5-8.6c-1.2-4.6-1.4-9.2-1.3-13.9c0.1-2.7-0.5-5.1-2.4-7.2c-0.8-0.8-1.4-1.7-2.3-2.5c-0.7-0.6-1.5-1-2.3-1.4
	c-0.8-0.4-1.8-0.6-2.4-1.2c-3.2-3.5-6.5-7-9.5-10.7c-2-2.4-3.5-5.2-5.4-7.7c-1.1-1.5-2.4-2.9-3.5-4.4c-0.5-0.7-0.8-1.5-1.2-2.3
	c-0.4-0.8-0.7-1.7-1.2-2.4c-5.3-6.6-8.7-14.1-10.5-22.4C249.4,173.8,249.2,172.2,248.9,170.4z M268.5,102.5c-0.1,0-0.2,0-0.3,0
	c0,0.3,0,0.7,0,1c0.1,2.9,0.3,5.7,0.2,8.6c-0.4,8.9-2.6,17.5-5.1,25.9c-2.2,7.6-4.5,15.1-6.7,22.6c-0.4,1.4-0.6,3-0.9,4.5
	c0.3-0.1,0.4-0.2,0.4-0.3c0.2-0.3,0.4-0.6,0.6-1c0.3,0.3,0.6,0.5,0.8,0.9c0.5,1,0.8,2,1.4,2.9c1.9,3.1,3.8,6.1,5.7,9.1
	c2.6,4,6,7.3,9.6,10.3c3.4,2.7,7,5.2,10.9,7.3c3.7,2,7.6,3.2,11.6,4.5c3.5,1.2,7.2,1.4,10.9,2c5,0.7,10,0.2,14.9-0.5
	c7.5-1.2,14.6-3.8,21.1-7.7c1.2-0.7,2.4-1.4,3.4-2.2c2.6-2.1,5.2-4.1,7.6-6.4c2.3-2.2,4.2-4.6,6.3-7c0.7-0.8,0.5-1.4-0.4-2.1
	c-3.2-2.3-6.5-4.6-9.5-7c-7-5.6-11.1-12.9-12.4-21.7c-0.9-6-0.1-11.9,1.8-17.6c2.1-6.5,4.6-12.9,7-19.2c1.6-4.3,3.3-8.6,5.1-12.8
	c0.3-0.8,0.2-1.2-0.5-1.6c-2.1-1.3-4-2.9-6.1-4.2c-3.6-2.2-7.4-4.3-11.2-6.5c-0.3,0.6-0.5,1-0.7,1.4c-2.4,5.8-4.8,11.6-7.3,17.4
	c-3.2,7.4-6.7,14.5-11.6,21c-6.3,8.3-14,14.3-24.7,15.9c-8.6,1.3-17.1,0.8-25.5-1.2c-0.3-0.1-0.5-0.3-0.8-0.4c0-0.2,0-0.3,0-0.5
	c0.5,0,1-0.2,1.5-0.1c0.8,0.2,1.6,0.6,2.4,0.7c2,0.4,4,0.6,6,0.9c1.2,0.2,2.5,0.4,3.7,0.3c1.8-0.2,3.7-0.7,5.5-1.2
	c3.1-0.9,6.3-1.9,9.4-2.9c0.4-0.1,1-0.8,1-1.2c0.1-0.8-0.6-0.9-1.2-0.9c-1.3-0.1-2.9-2.2-2.8-3.5c0-0.8-0.1-1.7-0.4-2.5
	c-0.4-1.3-1-1.4-1.9-0.4c-0.5,0.5-0.9,1.2-1.5,1.5c-1.1,0.5-2.2,0.9-3.3,1.3c-0.4,0.1-1,0-1.5-0.1c-0.6-0.1-1.1-0.5-1.7-0.6
	c-1.8-0.3-3.2-0.9-4.2-2.6c-0.9-1.6-1.3-3.2-1.2-4.9c0-0.6-0.1-1.3-0.4-1.9c-0.8-1.5-1.7-3-2.5-4.5c-0.5-0.9-1-1.9-1.4-2.9
	c-0.2-0.4-0.2-0.8-0.2-1.3C268.8,108.2,268.6,105.3,268.5,102.5z M204,322.6c0.2,0.4,0.3,0.7,0.4,0.9c2.3,4,4.5,8.1,6.8,12.1
	c5.8,9.7,8.8,20.3,9.6,31.6c0.4,5.3,1.4,10.6,3.2,15.7c2.7,7.4,7.5,12.5,15.3,14.4c2.9,0.7,5.8,0.9,8.8,0.7c-0.1-2.6-0.6-5-1.9-7.2
	c-0.8-1.3-1.6-2.7-2.3-4.1c-0.2-0.3-0.1-0.7-0.2-1.1c0.4,0.1,0.8,0.1,1.1,0.2c2,1.3,3.3,3.1,4.2,5.3c0.8,2.1,1.5,4.3,2.3,6.7
	c3.6-0.7,7.4-1.5,11.1-2.3c-1-4.3-3.2-7.6-5.8-10.6c-0.3-0.3-0.3-0.9-0.4-1.3c0.5,0.1,1.1,0,1.4,0.3c3.2,3,6.7,5.9,6.2,11
	c4-1.1,5.3-3.8,3.7-7.4c-0.6-1.3-1.4-2.5-2.2-3.7c-5.7-7.8-8.2-16.7-8.3-26.2c-0.1-4.6,0.6-9.2,1-13.7c0.1-1.8,0.5-3.6,0.2-5.2
	c-0.5-2.7-1.3-5.4-2.3-8c-1.4-3.7-3-7.4-4.5-11.1c-0.1-0.3-0.6-0.6-0.9-0.7c-2.2-0.3-4.4-0.3-6.5-0.9c-5-1.4-9.9-0.9-14.7,0.9
	c-3.3,1.2-6.6,2.4-10,3.4c-4.3,1.3-8.6,1.8-13,1C205.5,322.9,204.8,322.7,204,322.6z M51.9,262.9c0.9-0.9,1.5-1.9,2.4-2.1
	c1.4-0.4,2.3-1,2.8-2.3c0.1-0.3,0.4-0.6,0.7-0.8c1-0.6,0.7-1.2,0.3-2c-2.9-4.8-5.8-9.6-8.5-14.5c-4.6-8.5-8-17.4-9.6-27
	c-0.4-2.7-0.7-5.4-1-8.1C35.9,226.7,41,245.5,51.9,262.9z M401.1,137.7c-0.1,0-0.2,0.1-0.4,0.1c2.5,7.8,1.6,15.6-0.6,23.3
	c-1.4,5-3.3,9.9-4.9,14.8c-0.5,1.5-1.1,3-1.6,4.4c0.2,0,0.4-0.1,0.4-0.1c0.7-2.3,2.4-3.5,4.5-4.5c3.2-1.5,5.5-4,7.2-7.1
	c1.8-3.3,2.5-6.9,2.3-10.7c-0.2-3.3-1.1-6.3-3-8.9c-1.5-2-2.5-4.1-2.8-6.6C401.9,140.7,401.4,139.2,401.1,137.7z M301.3,94.6
	c-0.3-0.2-0.3-0.3-0.4-0.3c-0.2-0.1-0.5-0.1-0.7-0.1c-2.8-0.2-5.3,0.4-7.7,1.8c-5,2.9-8.2,7.4-10.8,12.4c-0.5,0.9-0.7,2-0.8,3
	c-0.2,7,3.5,12.6,10.1,15.2c6,2.4,12,2.6,18.2,0.5c1.9-0.7,3.2-1.5,3.1-3.8c-0.1-1.3,0.2-2.6,0.4-3.9c-0.1,0-0.2,0-0.3-0.1
	c-0.2,0.3-0.4,0.7-0.7,0.9c-1.5,1.6-2.8,3.3-4.5,4.6c-6.5,4.9-14.8,3.4-18.7-3.3c-2.6-4.6-2.8-9.6-1.1-14.5
	C289.6,100.4,294,96,301.3,94.6z M343.8,129.6c-0.9,1.4-1.8,2.9-2.9,4.2c-0.8,0.9-0.6,1.7-0.1,2.6c3.6,7,9.1,11.5,16.9,13.4
	c4.4,1,8.4,0.5,12.1-2.2c1.8-1.3,3.7-2.7,4.3-4.8c1.4-4.3,1.8-8.8,1.3-13.4c-0.5-4.2-2-7.9-5.6-10.4c-0.2-0.2-0.5-0.3-0.8-0.4
	c0.8,1.4,1.7,2.7,2.3,4.1c3.1,7.1,0.6,16.5-5.5,21.6c-2.3,1.9-4.8,3.2-7.8,3.6c-6.6,0.7-12.4-3.6-13.6-10.6
	C343.9,134.8,344,132.3,343.8,129.6z M257.8,141.6c5.4-13.5,5.7-27.7,5.5-41.9c-0.2,1.7-0.3,3.4-0.3,5.1c0,1.3-0.5,2.1-1.4,2.8
	c-3.4,2.4-5.5,5.8-6.5,9.8c-1.5,5.7,0.1,10.9,3.5,15.6c0.8,1,1,2,0.7,3.1C258.8,137.8,258.3,139.7,257.8,141.6z M397.6,139
	c-0.1-0.1-0.1-0.1-0.2-0.2c-0.6,0.4-1.2,0.9-1.7,1.3c-0.8,0.6-1.7,1-2.7,0.6c-1.2-0.5-1.8,0.1-2.4,1.1c-1,1.7-2,3.5-3.1,5.1
	c-1.6,2.4-3.5,4.6-5.1,6.9c-1.7,2.5-3.9,4.1-6.8,4.9c-0.8,0.2-1.6,1-2.1,1.8c-0.8,1.3-1.4,2.7-1.9,4.1c-0.2,0.5-0.1,1.3,0.1,1.8
	c0.5,1.2,1,2.6,1.9,3.6c0.9,1,0.8,1.8,0.1,2.8c0,0,0.1,0.1,0.1,0.2c0.1-0.2,0.2-0.3,0.3-0.5c3.5-5.7,7-11.5,10.5-17.2
	c3.2-5.2,6.4-10.4,10.9-14.6C396.3,140.1,397,139.6,397.6,139z M300.6,114c0-2.8-2.3-5.2-5.1-5.2c-2.9,0-5.3,2.4-5.3,5.2
	c0,2.9,2.3,5.2,5.3,5.2C298.3,119.2,300.6,116.9,300.6,114z M353,129c-2.9,0-5.3,2.4-5.3,5.3c0,2.9,2.4,5.2,5.3,5.1
	c2.8,0,5.2-2.4,5.1-5.2C358.2,131.4,355.8,129,353,129z M176.8,277.2c0.1,0,0.3,0.1,0.4,0.1c0.4-1.1,0.8-2.2,1.3-3.2
	c0.8-1.5,0.6-3-0.1-4.5c-1-2.2-1.8-4.5-2.7-6.8c-1.2-2.9-1.2-6.1-1.4-9.2c-0.3-3.5-1.3-4.9-4.2-5.2c-1.2-0.1-1.5,0.3-1,1.3
	c3.5,7.5,5.7,15.4,7,23.5C176.3,274.6,176.6,275.9,176.8,277.2z M308.5,112.4c0-1.1-0.9-2.1-2-2.1c-1.1,0-2,0.9-2,2c0,1.1,0.9,2,2,2
	C307.5,114.3,308.4,113.4,308.5,112.4z M364.1,134.5c1.1,0,2-0.9,2-2c0-1.1-1-2-2.1-2c-1.1,0.1-1.9,1-1.9,2.1
	C362.1,133.7,363,134.5,364.1,134.5z"/>
<path fill="#FFFFFF" d="M248.9,170.4c0.3,1.8,0.5,3.4,0.9,4.9c1.8,8.2,5.2,15.8,10.5,22.4c0.6,0.7,0.8,1.6,1.2,2.4
	c0.4,0.8,0.7,1.6,1.2,2.3c1.1,1.5,2.4,2.9,3.5,4.4c1.8,2.6,3.4,5.3,5.4,7.7c3,3.7,6.2,7.2,9.5,10.7c0.6,0.6,1.6,0.8,2.4,1.2
	c0.8,0.4,1.7,0.8,2.3,1.4c0.8,0.7,1.5,1.7,2.3,2.5c1.9,2,2.5,4.4,2.4,7.2c-0.1,4.7,0.1,9.4,1.3,13.9c0.9,3.2,2.1,6.2,4.5,8.6
	c2.4,2.4,5.4,3.7,8.7,3.6c1.4,0,2.8-0.6,4.1-1.2c6.2-3,9.4-8.2,10.8-14.7c0.8-3.7,0.9-7.5,0.5-11.3c-0.1-0.8,0.2-1.1,0.8-1.4
	c1.5-0.7,3-1.5,4.5-2.2c6.2-2.7,11.6-6.9,17-10.9c3.9-2.8,7.5-5.9,11.3-8.9c0.2-0.1,0.4-0.3,0.7-0.5c0,0.4,0.1,0.7,0.1,1
	c-0.3,4.8-0.5,9.7-0.8,14.5c0,0.7-0.2,1.2-1,1.5c-5.2,1.4-9.4,4.5-13.4,8c-1.1,1-2.3,1.8-3.3,2.7c-1.2,1.1-2.4,2.3-3.4,3.5
	c-2.8,3.1-5.4,6.4-8.3,9.5c-1.9,2.1-3.5,4.3-4,7.3c-0.6,4.2-1.7,8.4-2.3,12.6c-0.3,1.8,0.2,3.7,0.4,5.6c0.4,3.1,0.9,6.2,1.3,9.2
	c0.2,1.3-0.2,2.5-0.8,3.8c-0.7,1.6-1.3,3.3-1.5,5c-0.6,4.4-0.7,8.8,0.6,13.2c0.9,2.9,2.3,5.4,4.4,7.6c0.6,0.6,0.6,1.2,0.2,1.9
	c-2.6,5.6-5.4,11.2-7.1,17.2c-0.4,1.5-0.7,3-0.9,4.6c-0.9,6.9,1.4,12.6,6.8,17c1.7,1.4,3.5,2.9,5.1,4.4c1.1,1.1,1.9,2.4,1.8,4
	c-0.1,0.9-0.5,1.7-0.8,2.5c-0.1,0-0.2,0-0.4-0.1c-0.3-0.8-0.6-1.5-1-2.3c-1.2-2.7-3.1-4.6-5.5-6.1c-0.6-0.4-1.2-0.6-1.7,0.1
	c-0.5,0.7,0.1,1.1,0.6,1.5c2.6,2.1,4.5,4.7,4.9,8.1c0,0.3-0.2,0.9-0.4,0.9c-2.1,0.4-4.3,0.8-6.4,1.2c0.1-4.5-1.4-7.8-4.8-10.2
	c-0.4-0.3-1.2-0.5-1.6-0.2c-0.7,0.5-0.1,1.1,0.3,1.5c2.1,2.5,3.3,5.4,3.8,8.7c0,0,0,0.1-0.1,0.1c-3.5,0.3-6.9,0.1-10.2-1.5
	c-1.7-0.8-2.7-2.3-3.5-4c-0.5-1.2-0.9-2.4-1.4-3.6c-0.9-2.4-2.4-4.4-4.5-5.9c-0.7-0.5-1.4-1.1-2.1-1.6c-2-1.5-2.7-3.5-2.5-5.9
	c0.1-1.2,0.3-2.3,0.4-3.4c0.5-3,1-6-0.2-8.9c1.8-0.4,3.6-0.7,5.2-1.3c2.5-0.9,4.6-2.3,5.8-4.9c0.2-0.3,0.3-0.7,0.4-1
	c0.2-0.9-0.3-1.3-1.2-0.9c-1.1,0.5-2.1,1-3.1,1.6c-3.3,1.8-6.9,3-10.8,2.9c-3.2-0.1-5.5,1.3-7.1,4.2c-1.9,3.4-4.3,4.3-8,3.5
	c-1.9-0.4-3.7-1-5.6-1.3c-1.4-0.2-2.9,0-4.4,0c-0.4-1.8-0.8-3.7-1.3-5.5c-1.2-4-2.3-8.1-3.7-12c-1.8-5.2-4-10.2-4.8-15.7
	c-0.2-1.1-0.2-2.2-0.5-3.3c-0.1-0.5-0.6-0.8-0.9-1.2c-0.2-0.2-0.5-0.3-0.7-0.5c-3.1-3.6-6.3-7.2-9.2-10.9c-1.7-2.1-2.7-4.6-2.9-7.4
	c-0.3-3.9,1.4-7.1,3.9-9.9c2.5-2.7,5.6-4.4,8.8-6.1c1.7-0.9,3.3-1.8,4.8-3c3.3-2.6,3.2-5.1,0-7.8c-3.4-2.8-6.8-5.7-10.1-8.6
	c-4.8-4.3-9-9.1-11.8-15c-1.8-3.8-3-7.7-2.3-11.9c0.2-1.5,0.8-2.9,2-4c1.3-1.3,1.5-2.3,0.4-3.8c-1.2-1.6-2.4-3.2-3.8-4.7
	c-3.7-4.1-7-8.5-9.5-13.5c-0.2-0.5-0.4-0.9-0.7-1.6c0.8-0.1,1.4-0.3,2.1-0.4c6.6-1.2,12-4.7,16.2-9.8c3.2-3.9,5.9-8.1,8.8-12.2
	c0.2-0.3,0.4-0.6,0.6-0.9C248.4,170.6,248.5,170.6,248.9,170.4z"/>
<path fill="#FFFFFF" d="M268.5,102.5c0.2,2.9,0.3,5.7,0.5,8.6c0,0.4,0.1,0.9,0.2,1.3c0.4,1,0.9,2,1.4,2.9c0.8,1.5,1.8,3,2.5,4.5
	c0.3,0.6,0.5,1.3,0.4,1.9c0,1.8,0.3,3.4,1.2,4.9c1,1.7,2.4,2.3,4.2,2.6c0.6,0.1,1.2,0.4,1.7,0.6c0.5,0.1,1,0.2,1.5,0.1
	c1.1-0.3,2.3-0.7,3.3-1.3c0.6-0.3,1-0.9,1.5-1.5c0.9-1,1.5-1,1.9,0.4c0.3,0.8,0.4,1.7,0.4,2.5c-0.1,1.3,1.5,3.4,2.8,3.5
	c0.7,0,1.3,0.2,1.2,0.9c-0.1,0.5-0.6,1.1-1,1.2c-3.1,1-6.2,2-9.4,2.9c-1.8,0.5-3.6,1-5.5,1.2c-1.2,0.2-2.5-0.1-3.7-0.3
	c-2-0.3-4-0.5-6-0.9c-0.8-0.1-1.6-0.6-2.4-0.7c-0.5-0.1-1,0-1.5,0.1c0,0.2,0,0.3,0,0.5c0.3,0.1,0.5,0.3,0.8,0.4
	c8.4,2,16.9,2.5,25.5,1.2c10.7-1.6,18.4-7.6,24.7-15.9c4.8-6.4,8.4-13.6,11.6-21c2.5-5.8,4.9-11.6,7.3-17.4c0.2-0.4,0.4-0.8,0.7-1.4
	c3.8,2.2,7.5,4.3,11.2,6.5c2.1,1.3,4,2.8,6.1,4.2c0.7,0.5,0.9,0.9,0.5,1.6c-1.7,4.3-3.4,8.5-5.1,12.8c-2.4,6.4-4.9,12.8-7,19.2
	c-1.9,5.7-2.7,11.6-1.8,17.6c1.3,8.8,5.4,16.1,12.4,21.7c3.1,2.5,6.3,4.7,9.5,7c0.9,0.6,1.1,1.3,0.4,2.1c-2.1,2.4-4,4.8-6.3,7
	c-2.4,2.3-5,4.3-7.6,6.4c-1.1,0.8-2.3,1.5-3.4,2.2c-6.6,3.9-13.6,6.5-21.1,7.7c-4.9,0.8-9.9,1.2-14.9,0.5c-3.7-0.5-7.4-0.8-10.9-2
	c-3.9-1.3-7.9-2.5-11.6-4.5c-3.9-2.1-7.5-4.5-10.9-7.3c-3.7-3-7-6.3-9.6-10.3c-2-3-3.9-6-5.7-9.1c-0.6-0.9-0.9-2-1.4-2.9
	c-0.2-0.3-0.5-0.6-0.8-0.9c-0.2,0.3-0.4,0.6-0.6,1c-0.1,0.1-0.1,0.3-0.4,0.3c0.3-1.5,0.5-3,0.9-4.5c2.2-7.6,4.5-15.1,6.7-22.6
	c2.5-8.5,4.6-17.1,5.1-25.9c0.1-2.9-0.1-5.7-0.2-8.6c0-0.3,0-0.7,0-1C268.3,102.5,268.4,102.5,268.5,102.5z M303,151.9
	c-1.6,0.1-3,0.2-4.3,0.4c-9.6,1.5-14.3,9-11.3,18.2c2.1,6.3,5.8,11.5,10.9,15.8c3.7,3.1,8,4.8,12.9,4.9c8.4,0.2,15.3-2.9,20.7-9.3
	c4.5-5.3,4.9-11.6,0.9-16.8c-1.1-1.5-2.4-2.9-3.9-4.1C321.3,155,312.4,152.6,303,151.9z"/>
<path fill="#FFFFFF" d="M204,322.6c0.8,0.2,1.5,0.3,2.1,0.5c4.4,0.8,8.8,0.3,13-1c3.4-1,6.7-2.2,10-3.4c4.8-1.8,9.7-2.3,14.7-0.9
	c2.1,0.6,4.3,0.6,6.5,0.9c0.3,0.1,0.8,0.4,0.9,0.7c1.6,3.7,3.2,7.3,4.5,11.1c1,2.6,1.8,5.3,2.3,8c0.3,1.7-0.1,3.5-0.2,5.2
	c-0.3,4.6-1,9.2-1,13.7c0.1,9.5,2.7,18.4,8.3,26.2c0.8,1.2,1.6,2.4,2.2,3.7c1.7,3.6,0.3,6.3-3.7,7.4c0.5-5.1-3-8-6.2-11
	c-0.3-0.3-0.9-0.2-1.4-0.3c0.1,0.4,0.1,1,0.4,1.3c2.6,3.1,4.9,6.3,5.8,10.6c-3.7,0.8-7.5,1.5-11.1,2.3c-0.8-2.4-1.4-4.6-2.3-6.7
	c-0.9-2.1-2.2-4-4.2-5.3c-0.3-0.2-0.7-0.2-1.1-0.2c0.1,0.4,0,0.8,0.2,1.1c0.7,1.4,1.5,2.7,2.3,4.1c1.3,2.2,1.8,4.6,1.9,7.2
	c-3,0.3-6,0-8.8-0.7c-7.8-1.9-12.6-7-15.3-14.4c-1.8-5.1-2.8-10.4-3.2-15.7c-0.9-11.3-3.8-21.8-9.6-31.6c-2.4-4-4.6-8.1-6.8-12.1
	C204.3,323.3,204.2,323,204,322.6z"/>
<path fill="#FFFFFF" d="M51.9,262.9c-10.9-17.5-16-36.2-12.9-56.8c0.3,2.7,0.5,5.4,1,8.1c1.6,9.6,5,18.5,9.6,27
	c2.6,4.9,5.6,9.7,8.5,14.5c0.5,0.8,0.7,1.4-0.3,2c-0.3,0.2-0.6,0.5-0.7,0.8c-0.5,1.3-1.4,1.9-2.8,2.3C53.4,261,52.8,262,51.9,262.9z
	"/>
<path fill="#FFFFFF" d="M401.1,137.7c0.3,1.5,0.8,3,1,4.5c0.3,2.5,1.3,4.6,2.8,6.6c1.9,2.6,2.8,5.7,3,8.9c0.2,3.8-0.5,7.4-2.3,10.7
	c-1.7,3.1-4.1,5.6-7.2,7.1c-2.1,1-3.8,2.2-4.5,4.5c0,0.1-0.1,0.1-0.4,0.1c0.5-1.5,1.1-3,1.6-4.4c1.7-4.9,3.5-9.8,4.9-14.8
	c2.2-7.7,3.1-15.4,0.6-23.3C400.8,137.7,401,137.7,401.1,137.7z"/>
<path fill="#FFFFFF" d="M301.3,94.6c-7.3,1.3-11.7,5.8-13.9,12.4c-1.7,4.9-1.5,9.9,1.1,14.5c3.8,6.7,12.2,8.2,18.7,3.3
	c1.7-1.3,3-3.1,4.5-4.6c0.3-0.3,0.4-0.6,0.7-0.9c0.1,0,0.2,0,0.3,0.1c-0.1,1.3-0.4,2.6-0.4,3.9c0.1,2.3-1.2,3.1-3.1,3.8
	c-6.1,2.1-12.2,1.9-18.2-0.5c-6.6-2.6-10.3-8.3-10.1-15.2c0-1,0.3-2.1,0.8-3c2.6-5,5.8-9.5,10.8-12.4c2.4-1.4,5-2,7.7-1.8
	c0.2,0,0.5,0,0.7,0.1C300.9,94.3,301,94.4,301.3,94.6z"/>
<path fill="#FFFFFF" d="M343.8,129.6c0.1,2.6,0,5.2,0.5,7.6c1.3,6.9,7,11.3,13.6,10.6c3-0.3,5.6-1.7,7.8-3.6
	c6.1-5,8.5-14.4,5.5-21.6c-0.6-1.4-1.5-2.7-2.3-4.1c0.3,0.1,0.6,0.2,0.8,0.4c3.6,2.6,5.1,6.2,5.6,10.4c0.5,4.5,0.1,9-1.3,13.4
	c-0.7,2.2-2.6,3.5-4.3,4.8c-3.7,2.6-7.7,3.2-12.1,2.2c-7.7-1.8-13.3-6.3-16.9-13.4c-0.5-0.9-0.6-1.7,0.1-2.6
	C342,132.5,342.9,131,343.8,129.6z"/>
<path fill="#FFFFFF" d="M257.8,141.6c0.5-1.9,1-3.8,1.5-5.6c0.3-1.1,0.1-2.1-0.7-3.1c-3.4-4.6-5-9.8-3.5-15.6c1-4,3.1-7.3,6.5-9.8
	c1-0.7,1.5-1.5,1.4-2.8c0-1.7,0.1-3.4,0.3-5.1C263.5,113.9,263.2,128.1,257.8,141.6z"/>
<path fill="#FFFFFF" d="M397.6,139c-0.6,0.6-1.3,1.1-1.9,1.7c-4.5,4.2-7.7,9.4-10.9,14.6c-3.5,5.7-7,11.5-10.5,17.2
	c-0.1,0.2-0.2,0.3-0.3,0.5c-0.1-0.1-0.2-0.2-0.1-0.2c0.7-1,0.8-1.7-0.1-2.8c-0.9-1-1.4-2.3-1.9-3.6c-0.2-0.5-0.3-1.3-0.1-1.8
	c0.5-1.4,1.1-2.8,1.9-4.1c0.5-0.8,1.3-1.6,2.1-1.8c2.9-0.8,5.1-2.5,6.8-4.9c1.6-2.4,3.5-4.6,5.1-6.9c1.1-1.6,2.1-3.4,3.1-5.1
	c0.6-1,1.2-1.6,2.4-1.1c1,0.4,1.9,0,2.7-0.6c0.6-0.5,1.2-0.9,1.7-1.3C397.5,138.9,397.5,138.9,397.6,139z"/>
<path fill="#FFFFFF" d="M300.6,114c0,2.8-2.4,5.1-5.2,5.2c-2.9,0-5.3-2.3-5.3-5.2c0-2.8,2.5-5.2,5.3-5.2
	C298.3,108.8,300.7,111.2,300.6,114z"/>
<path fill="#FFFFFF" d="M353,129c2.8,0,5.2,2.4,5.2,5.2c0,2.8-2.3,5.2-5.1,5.2c-2.9,0-5.3-2.3-5.3-5.1
	C347.7,131.5,350.1,129,353,129z"/>
<path fill="#FFFFFF" d="M176.8,277.2c-0.3-1.3-0.5-2.6-0.7-3.9c-1.3-8.2-3.6-16-7-23.5c-0.5-1-0.1-1.5,1-1.3c2.9,0.3,4,1.7,4.2,5.2
	c0.2,3.1,0.2,6.2,1.4,9.2c0.9,2.2,1.8,4.5,2.7,6.8c0.7,1.5,0.9,2.9,0.1,4.5c-0.5,1-0.9,2.1-1.3,3.2
	C177.1,277.3,177,277.2,176.8,277.2z"/>
<path fill="#FFFFFF" d="M308.5,112.4c0,1.1-1,1.9-2,1.9c-1.1,0-2-0.9-2-2c0-1.1,0.9-2,2-2C307.6,110.3,308.5,111.2,308.5,112.4z"/>
<path fill="#FFFFFF" d="M364.1,134.5c-1.1,0-2-0.8-2-1.9c-0.1-1.1,0.8-2,1.9-2.1c1.1-0.1,2.1,0.8,2.1,2
	C366,133.6,365.2,134.5,364.1,134.5z"/>
<path fill="#58C4DD" d="M303,151.9c9.4,0.7,18.3,3.1,25.9,9.2c1.4,1.2,2.8,2.6,3.9,4.1c4,5.2,3.6,11.5-0.9,16.8
	c-5.4,6.3-12.3,9.5-20.7,9.3c-4.8-0.1-9.2-1.9-12.9-4.9c-5.1-4.2-8.8-9.5-10.9-15.8c-3-9.2,1.7-16.8,11.3-18.2
	C300,152.1,301.4,152.1,303,151.9z"/>
</svg>
