<?xml version="1.0" encoding="utf-8"?>
<!-- Generator: Adobe Illustrator 26.1.0, SVG Export Plug-In . SVG Version: 6.00 Build 0)  -->
<svg version="1.1" id="图层_1" xmlns="http://www.w3.org/2000/svg" xmlns:xlink="http://www.w3.org/1999/xlink" x="0px" y="0px"
	 viewBox="0 0 2000 2000" enable-background="new 0 0 2000 2000" xml:space="preserve">
<g>
	<path fill="#F1A154" d="M1398.8,1099c0.1,15,0.3,30,0.1,45c-0.1,4.3,1.3,5.2,5.3,5.1c13.3-0.3,26.7,0.1,40-0.2
		c4.1-0.1,4.9,1.3,4.9,5.1c-0.2,13.5,0.1,27-0.2,40.5c-0.1,3.9,1.2,4.7,4.8,4.6c13.5-0.2,27,0.1,40.5-0.2c4.1-0.1,4.9,1.2,4.9,5
		c-0.1,46.5,0,93-0.2,139.5c0,4.6,1.2,5.8,5.8,5.7c13.7-0.3,27.3,0,41-0.2c3.5-0.1,4.4,1,4.4,4.5c-0.1,97-0.1,193.9,0,290.9
		c0,3.7-0.8,4.8-4.7,4.8c-14-0.2-28,0-42-0.2c-3.4,0-4.6,0.8-4.5,4.4c0.2,13.5-0.1,27,0.2,40.5c0.1,4.1-0.9,5.3-5.2,5.3
		c-31.7-0.2-63.3-0.1-95-0.1c0-50,0-100,0-149.9c0-15.3,0-30.6,0.1-45.9c0-3.3-1-4.3-4.3-4.3c-15.3,0.2-30.6,0.1-45.9,0.1
		c-33.3,0-66.6,0-99.8,0c-15.3,0-30.6,0-45.9-0.1c-3.3,0-4.3,1-4.3,4.3c0.2,15.3,0.1,30.6,0.1,45.9c0,48.6,0,97.1-0.1,145.7
		c0,3.1,0.6,4.3,4.1,4.3c15.3-0.2,30.6-0.1,45.9-0.1c33.4,0,66.8,0,100.2,0c16.6,0,33.3,0,49.9,0c0,15-0.2,30,0.1,45
		c0.1,4.3-1.3,5.2-5.3,5.1c-13.3-0.3-26.7,0.1-40-0.2c-4.1-0.1-4.9,1.3-4.9,5.1c0.2,13.5-0.1,27,0.2,40.5c0.1,3.9-1.2,4.7-4.8,4.6
		c-30-0.1-60,0-90-0.2c-4.5,0-5.5,1.3-5.4,5.6c0.3,13.7,0,27.3,0.2,41c0.1,3.8-1.1,4.7-4.8,4.7c-96.8-0.1-193.6-0.1-290.4,0
		c-4,0-5-1-5-5c0.2-13.7-0.1-27.3,0.2-41c0.1-4.2-1.1-5.2-5.2-5.2c-94.6,0.1-189.3,0.1-283.9,0.1c-10.9,0-10.9,0-10.9-10.8
		c0-11.5-0.1-23,0.1-34.5c0.1-3.7-0.8-4.8-4.7-4.8c-13.7,0.2-27.3,0-41,0.2c-3.4,0-4.6-0.8-4.5-4.4c0.2-13.7,0-27.3,0.2-41
		c0.1-3.7-0.8-4.9-4.7-4.8c-13.5,0.2-27,0-40.5,0.2c-3.8,0.1-5.1-0.8-5-4.9c0.3-13.3-0.1-26.7,0.2-40c0.1-4.1-0.9-5.3-5.1-5.3
		c-29.8,0.2-59.7,0-89.5,0.2c-4.2,0-5.7-0.8-5.6-5.4c0.4-13.2,0-26.3,0.2-39.5c0.1-4-0.8-5.4-5.1-5.3c-13.2,0.3-26.3-0.1-39.5,0.2
		c-4.2,0.1-5.7-0.7-5.6-5.4c0.4-13,0-26,0.2-39c0.1-4.4-0.8-6-5.6-5.9c-12.8,0.4-25.7-0.1-38.5,0.2c-4.6,0.1-6.3-0.8-6.1-5.9
		c0.4-12.7,0.2-25.3,0.1-38c0-7.2,0.9-6.2-6.5-6.2c-12.5-0.1-25-0.3-37.5,0.1c-5.3,0.2-6.2-1.6-6.1-6.4c0.2-29.3,0-58.7,0.2-88
		c0-5-1.5-6-6.1-5.9c-13,0.3-26-0.1-39,0.2c-4.3,0.1-5.2-1.3-5.1-5.3c0.3-13.3-0.1-26.7,0.2-40c0.1-4.1-1.3-4.9-5.1-4.9
		c-13.3,0.2-26.7-0.1-40,0.2c-4.3,0.1-5.1-1.3-5.1-5.3c0.1-46.3,0-92.6,0.2-139c0-4.9-1.3-6.1-6.1-5.9c-12.8,0.3-25.7,0-38.5,0.2
		c-3.8,0.1-4.7-1.1-4.6-4.8c0.1-47,0.1-94,0-141c0-3.6,1-4.4,4.5-4.4c46.7,0.1,93.3,0.1,140,0c3.8,0,4.8,1,4.7,4.7
		c-0.2,13.7,0,27.3-0.2,41c-0.1,3.5,1,4.5,4.5,4.4c13.8-0.2,27.7,0,41.5-0.2c3.3,0,4.2,0.9,4.2,4.2c-0.2,13.7,0.1,27.3-0.2,41
		c-0.1,3.9,1,5,5,5c30-0.2,60,0,90-0.2c4.1,0,5.3,1,5.2,5.2c-0.2,30,0,60-0.2,90c0,3.9,0.9,5.1,4.9,5c13.7-0.3,27.3,0,41-0.2
		c3.2,0,4.3,0.8,4.2,4.2c-0.2,13.8,0,27.7-0.2,41.5c0,3.4,0.8,4.5,4.4,4.5c47.2-0.1,94.3-0.1,141.5,0c3.8,0,4.3-1.4,4.3-4.6
		c-0.1-30,0-60-0.2-90c0-4.2,0.8-5.7,5.4-5.6c13,0.4,26-0.1,39,0.2c4.4,0.1,5.9-0.9,5.8-5.6c-0.2-30.7-0.1-61.3-0.1-92
		c0-0.8,0.1-1.7,0.2-2.5c97.8,0,195.6,0,293.3,0c2.2,0,4.3,0.1,6.5,0.2c0,48.1,0.1,96.3-0.1,144.4c0,4.5,1.3,5.5,5.6,5.5
		c46.3-0.2,92.6-0.2,138.9,0c4.3,0,5.7-1,5.6-5.5c-0.2-48.1-0.1-96.3-0.1-144.4c2.2-0.1,4.3-0.2,6.5-0.2
		C1236.6,1099,1317.7,1099,1398.8,1099z M749.1,1499c-15.3,0-30.6,0-45.9-0.1c-3.3,0-4.3,1-4.3,4.3c0.2,15.3,0.1,30.6,0.1,45.9
		c0,48.6,0,97.1-0.1,145.7c0,3.1,0.6,4.3,4.1,4.3c15.3-0.2,30.6-0.1,45.9-0.1c33.4,0,66.8,0,100.2,0c15.3,0,30.6-0.1,45.9,0.1
		c3.4,0,4.1-1.2,4.1-4.3c-0.1-48.6-0.1-97.1-0.1-145.7c0-15.3,0-30.6,0.1-45.9c0-3.3-1-4.3-4.3-4.3c-15.3,0.2-30.6,0.1-45.9,0.1
		C815.7,1499,782.4,1499,749.1,1499z M249.1,1223.8c0,23.2,0.1,46.3-0.1,69.5c0,4.3,0.8,6,5.6,5.9c13-0.4,26,0,39-0.2
		c4.1-0.1,5.8,0.6,5.6,5.3c-0.4,13.3,0,26.7-0.2,40c-0.1,4.1,1.3,4.9,5.1,4.9c13.5-0.2,27,0.1,40.5-0.2c3.8-0.1,4.7,1.1,4.6,4.8
		c-0.2,13.7,0,27.3-0.2,41c-0.1,3.6,1,4.5,4.5,4.4c13.7-0.2,27.3,0.1,41-0.2c3.8-0.1,4.8,1,4.7,4.7c-0.2,13.8,0,27.6-0.2,41.5
		c0,3.1,0.8,4,3.9,4c13.8-0.2,27.7-0.2,41.5,0c3.7,0.1,4.8-0.9,4.8-4.7c-0.1-47-0.1-93.9,0-140.9c0-4-1.3-4.6-4.9-4.6
		c-13.3,0.2-26.7-0.2-40,0.2c-4.7,0.1-5.4-1.4-5.4-5.6c0.2-29.8,0-59.6,0.2-89.4c0-4.2-1.2-5.2-5.3-5.2c-30,0.2-60,0-89.9,0.2
		c-4,0-5-1.1-5-5c0.2-13.7,0-27.3,0.2-41c0-3.3-0.9-4.3-4.2-4.2c-13.7,0.2-27.3,0.2-41,0c-3.9-0.1-5,0.9-5,4.9
		C249.2,1177.1,249.1,1200.5,249.1,1223.8z"/>
	<path fill="#F1A154" d="M1448.9,249.1c15.2,0,30.3,0.1,45.5-0.1c3.3,0,4.6,0.5,4.6,4.3c-0.1,63.8-0.1,127.6,0,191.4
		c0,3.6-1.1,4.5-4.5,4.4c-13.8-0.2-27.7,0-41.5-0.2c-3.3,0-4.2,1-4.2,4.2c0.1,47.2,0.1,94.3,0,141.5c0,3.5,1,4.5,4.5,4.4
		c13.8-0.2,27.7,0,41.5-0.2c3.3,0,4.2,0.9,4.2,4.2c-0.1,80.6-0.1,161.3,0,241.9c0,3.6-1.4,4-4.4,4c-13.5-0.1-27,0.1-40.5-0.1
		c-4.1-0.1-5.3,0.9-5.3,5.2c0.2,46.3,0,92.6,0.2,139c0,4.7-0.9,6.2-5.9,6.1c-13-0.4-26,0-39-0.2c-4-0.1-5.4,0.8-5.3,5.1
		c0.2,15,0,30-0.1,45c-33.3-0.1-66.6-0.1-99.8-0.2c0-15.1,0.1-30.3-0.1-45.4c0-3.4,0.8-4.5,4.4-4.5c13.8,0.2,27.6,0,41.4,0.1
		c3.1,0,4.4-0.6,4.3-4.1c-0.2-15.3-0.1-30.6-0.2-45.9c0-16.7,0-33.4,0-50.2c0-15-0.1-30,0.2-45c0.1-3.8-0.8-5.1-4.9-5
		c-13.3,0.3-26.7-0.1-40,0.2c-4,0.1-5.4-0.9-5.3-5.1c0.2-15,0-30,0-45c0-32.1,0-64.3,0.2-96.4c0-3.4-1.4-3.6-4.1-3.6
		c-30.6,0.1-61.3,0.1-91.9,0c-3.3,0-4.1,0.9-4.1,4.1c0.1,15.3,0,30.6-0.1,45.9c-83.2,0-166.4,0-249.7,0c-0.1-15.1-0.2-30.3-0.1-45.4
		c0-3.7-0.8-4.7-4.6-4.7c-30.3,0.2-60.6,0.2-90.9,0c-3.6,0-4.7,0.7-4.7,4.6c0.2,31.8,0.1,63.6,0.1,95.4c-15.2,0.1-30.3,0.2-45.5,0.1
		c-3.8,0-4.7,1.1-4.7,4.8c0.2,13.7,0,27.3,0.2,41c0.1,3.5-1,4.5-4.5,4.4c-13.8-0.2-27.6,0-41.5-0.1c-3.2,0-4.3,0.9-4.2,4.2
		c0.2,13.8,0,27.6,0.1,41.5c0,3.4-0.8,4.6-4.4,4.5c-13.7-0.2-27.3,0-41-0.2c-3.6-0.1-4.9,0.7-4.8,4.6c0.3,13.7,0.3,27.3,0,41
		c-0.1,3.9,1.3,4.6,4.8,4.6c13.5-0.2,27,0.1,40.5-0.2c4.1-0.1,4.9,1.3,4.9,5.1c-0.2,13.7,0,27.3-0.2,41c0,3.3,1,4.2,4.2,4.2
		c13.8-0.2,27.6,0,41.5-0.1c3.5,0,4.5,0.9,4.5,4.5c-0.2,15.2-0.1,30.3-0.1,45.5c-33.3,0.1-66.6,0.1-99.8,0.2c-0.1-15-0.3-30-0.1-45
		c0.1-4.3-1.3-5.2-5.3-5.1c-13.3,0.3-26.7-0.1-40,0.2c-4.1,0.1-4.9-1.3-4.9-5.1c0.1-63,0-126,0.2-189c0-5.2-1.5-6.3-6.3-6.2
		c-13,0.3-26,0-39,0.2c-3.5,0-4.9-0.5-4.9-4.5c0.2-47,0.1-94,0-141c0-3.8,1.1-4.7,4.8-4.6c13.7,0.2,27.3,0,41,0.2
		c3.6,0.1,4.4-1.1,4.4-4.5c-0.2-13.8-0.2-27.7,0-41.5c0-3.4-1.1-4.2-4.3-4.1c-13.8,0.2-27.7-0.1-41.5,0.2c-3.6,0.1-4.4-1.1-4.4-4.5
		c0.2-13.7-0.1-27.3,0.2-41c0.1-3.8-1.1-4.7-4.8-4.7c-13.7,0.2-27.3,0-41,0.2c-3.6,0.1-4.4-1.1-4.4-4.5c0.1-113.3,0.1-226.6,0-339.9
		c0-3.8,1-4.7,4.7-4.7c30.3,0.2,60.7,0.1,91,0c3.5,0,4.5,1,4.4,4.5c-0.2,13.5,0,27-0.2,40.5c0,3.3,0.9,4.2,4.2,4.2
		c13.8-0.2,27.7,0,41.5-0.2c3.5,0,4.5,0.9,4.5,4.5c-0.2,13.8,0,27.7-0.2,41.5c0,3.3,0.9,4.2,4.2,4.2c13.8-0.2,27.7,0,41.5-0.2
		c3.5,0,4.5,0.9,4.5,4.4c-0.2,13.8,0,27.7-0.2,41.5c0,3.3,0.9,4.3,4.2,4.2c13.8-0.2,27.7,0,41.5-0.2c3.5,0,4.5,0.9,4.5,4.4
		c-0.2,13.8,0,27.7-0.2,41.5c0,3.2,0.9,4.3,4.2,4.2c13.8-0.2,27.7,0,41.5-0.2c3.5,0,4.5,0.9,4.5,4.4c-0.2,13.3,0.1,26.7-0.2,40
		c-0.1,4.5,1.1,5.8,5.7,5.8c69.7-0.2,139.3-0.1,209-0.1c43.3,0,86.7-0.1,130,0.1c4.3,0,5.6-0.9,5.6-5.4c-0.2-29.8,0-59.7-0.2-89.5
		c0-4.1,0.9-5.4,5.2-5.3c13.3,0.3,26.7,0,40,0.2c3.8,0.1,5.1-0.8,5-4.9c-0.3-13.5,0-27-0.2-40.5c-0.1-3.6,0.8-4.9,4.6-4.8
		c13.5,0.3,27,0,40.5,0.2c3.8,0.1,5.1-0.8,5.1-4.9c-0.3-13.5,0-27-0.2-40.5c-0.1-3.6,0.8-4.8,4.6-4.8c31.8,0.2,63.7,0.1,95.5,0.1
		l-0.1-0.1c0,15.2-0.1,30.3,0.1,45.5c0.1,3.9-1.1,4.7-4.8,4.6c-13.7-0.2-27.3,0-41-0.2c-3.6-0.1-4.5,1-4.4,4.5
		c0.2,13.8,0,27.7,0.1,41.5c0,3.3-1,4.2-4.2,4.2c-13.8-0.2-27.7,0-41.5-0.1c-3.5,0-4.5,0.9-4.5,4.4c0.2,13.7-0.1,27.3,0.2,41
		c0.1,3.7-0.9,4.8-4.7,4.8c-13.7-0.2-27.3,0-41-0.2c-3.4,0-4.6,0.8-4.5,4.4c0.2,13.5,0.2,27,0,40.5c-0.1,4.1,0.9,5.4,5.1,5.3
		c13-0.3,26,0.1,39-0.2c4.6-0.1,6.3,0.8,6.1,5.9c-0.4,13,0,26-0.2,39c-0.1,4,0.7,5.4,5.1,5.4c30-0.2,60-0.2,89.9,0
		c4.2,0,5.2-1.2,5.2-5.3c-0.2-30,0-60-0.2-89.9c0-4,1.1-5,5-5c13.2,0.2,26.3-0.1,39.5,0.2c4.6,0.1,5.8-1.1,5.7-5.7
		C1448.9,345.3,1449,297.2,1448.9,249.1L1448.9,249.1z M599,374.1c0,23.1,0.1,46.3-0.1,69.4c0,4.2,0.7,5.7,5.4,5.6
		c13-0.4,26,0.1,39-0.3c5-0.2,6,1.5,5.9,6.1c-0.3,13.1,0,26.3-0.2,39.5c-0.1,3.9,1.2,4.7,4.8,4.6c13.7-0.2,27.3-0.2,41,0
		c3.6,0.1,4.5-1.1,4.4-4.5c-0.2-13.7,0.1-27.3-0.2-41c-0.1-3.8,1-4.8,4.7-4.7c13.8,0.2,27.6,0,41.5,0.2c3,0,4-0.8,4-3.9
		c-0.2-14-0.2-28,0-42c0.1-3.8-1.4-4.3-4.6-4.2c-13.3,0.2-26.6-0.1-40,0.2c-4.2,0.1-5.7-0.7-5.6-5.4c0.4-13-0.1-26,0.3-39
		c0.2-5.1-1.5-6-6.1-5.9c-13.1,0.3-26.3,0-39.5,0.2c-3.9,0.1-4.7-1.2-4.6-4.8c0.2-13.7,0-27.3,0.2-41c0.1-3.6-1.1-4.5-4.5-4.4
		c-13.7,0.2-27.3,0.2-41,0c-3.8-0.1-4.7,1-4.7,4.7C599.1,327.2,599,350.7,599,374.1z M949.5,549c-15.5,0-30.9,0-46.4,0
		c-2.7,0-4.2,0.2-4.2,3.7c0.2,14.3,0.2,28.6,0,42.9c0,3.1,1.2,3.5,3.9,3.5c30.8-0.1,61.6-0.1,92.3,0c3.1,0,4-0.9,3.9-3.9
		c-0.2-14-0.2-28,0-41.9c0.1-3.7-1.4-4.3-4.6-4.3C979.5,549.1,964.5,549,949.5,549z M1199,599c15.1,0,30.3-0.1,45.4,0.1
		c3.2,0,4.7-0.5,4.6-4.2c-0.2-14-0.2-27.9,0-41.9c0-3-0.8-4-3.9-4c-30.8,0.1-61.6,0.1-92.3,0c-3.2,0-3.9,1-3.9,4
		c0.1,14,0.2,28,0,41.9c0,3.2,0.9,4.3,4.2,4.2C1168.4,598.9,1183.7,599,1199,599z"/>
	<path fill="#209A2E" d="M1299,1048.8c33.3,0.1,66.6,0.1,99.8,0.2c0,16.7,0,33.3,0,50c-81.1,0-162.2,0-243.3,0
		c-2.2,0-4.3,0.1-6.5,0.2c-21-0.1-42-0.2-63-0.2c-29,0-58,0.1-87,0.2c-2.2-0.1-4.3-0.2-6.5-0.2c-97.8,0-195.6,0-293.3,0
		c0-16.7,0-33.3,0-50c33.3-0.1,66.6-0.1,99.8-0.2c1.5,0.1,3,0.2,4.5,0.2c163.7,0,327.3,0,491,0C1296,1049,1297.5,1048.9,1299,1048.8
		z"/>
	<path fill="#F1A154" d="M1399,249.1c0-15,0.1-29.9-0.1-44.9c0-3.2,0.8-4.3,4.1-4.2c14,0.2,27.9,0.2,41.9,0c3.3,0,4.2,1.1,4.1,4.2
		c-0.2,15-0.1,29.9-0.1,44.9c0,0,0.1-0.1,0.1-0.1C1432.3,249,1415.6,249,1399,249.1L1399,249.1z"/>
	<path fill="#FEFEFE" d="M249.1,1223.8c0-23.3,0.1-46.6-0.1-70c0-4,1.1-5,5-4.9c13.7,0.2,27.3,0.2,41,0c3.3,0,4.2,1,4.2,4.2
		c-0.2,13.7,0.1,27.3-0.2,41c-0.1,3.9,1,5,5,5c30-0.2,60,0,89.9-0.2c4.1,0,5.3,0.9,5.3,5.2c-0.2,29.8,0,59.6-0.2,89.4
		c0,4.2,0.7,5.7,5.4,5.6c13.3-0.4,26.6,0,40-0.2c3.5-0.1,4.9,0.6,4.9,4.6c-0.1,47-0.1,93.9,0,140.9c0,3.8-1.1,4.7-4.8,4.7
		c-13.8-0.2-27.7-0.2-41.5,0c-3.1,0-4-0.9-3.9-4c0.1-13.8-0.1-27.7,0.2-41.5c0.1-3.7-0.9-4.8-4.7-4.7c-13.7,0.2-27.3,0-41,0.2
		c-3.5,0-4.5-0.9-4.5-4.4c0.2-13.7,0-27.3,0.2-41c0.1-3.7-0.8-4.8-4.6-4.8c-13.5,0.2-27,0-40.5,0.2c-3.8,0.1-5.1-0.8-5.1-4.9
		c0.3-13.3-0.1-26.7,0.2-40c0.1-4.7-1.5-5.4-5.6-5.3c-13,0.2-26-0.2-39,0.2c-4.8,0.1-5.6-1.5-5.6-5.9
		C249.2,1270.1,249.1,1246.9,249.1,1223.8z"/>
	<path fill="#FEFEFE" d="M748.9,1698.9c-15.3,0-30.6-0.1-45.9,0.1c-3.4,0-4.1-1.2-4.1-4.3c0.1-48.6,0.1-97.1,0.1-145.7
		c15.1,0,30.2-0.2,45.3,0c3.7,0,4.7-1,4.7-4.7c-0.2-15.1,0-30.2,0-45.3c33.3,0,66.6,0,99.8,0c0,15.1,0.2,30.2,0,45.3
		c0,3.7,1,4.7,4.7,4.7c15.1-0.2,30.2,0,45.3,0c0,48.6,0,97.1,0.1,145.7c0,3.1-0.6,4.3-4.1,4.3c-15.3-0.2-30.6-0.1-45.9-0.1
		c0-31.5-0.1-63,0-94.4c0-4.2-0.7-5.6-5.4-5.6c-29.8,0.2-59.6,0.2-89.4,0c-4.6,0-5.4,1.4-5.4,5.6
		C749.1,1635.9,749,1667.4,748.9,1698.9z"/>
	<path fill="#FEFEFE" d="M1248.9,1698.9c-15.3,0-30.6-0.1-45.9,0.1c-3.4,0-4.1-1.2-4.1-4.3c0.1-48.6,0.1-97.1,0.1-145.7
		c15.1,0,30.2-0.2,45.3,0c3.7,0,4.7-1,4.7-4.7c-0.2-15.1,0-30.2,0-45.3c33.3,0,66.6,0,99.8,0c0,15.1,0.2,30.2,0,45.3
		c0,3.7,1,4.7,4.7,4.7c15.1-0.2,30.2,0,45.3,0c0,50,0,100,0,149.9l0.1-0.1c-16.6,0-33.3,0-49.9,0c0-31.5-0.1-63,0-94.4
		c0-4.2-0.7-5.6-5.4-5.6c-29.8,0.2-59.6,0.2-89.4,0c-4.6,0-5.4,1.4-5.4,5.6C1249,1635.9,1248.9,1667.4,1248.9,1698.9z"/>
	<path fill="#FEF058" d="M999,1099.2c29-0.1,58-0.1,87-0.2c21,0,42,0.1,63,0.2c0,48.1-0.1,96.3,0.1,144.4c0,4.5-1.3,5.5-5.6,5.5
		c-46.3-0.2-92.6-0.2-138.9,0c-4.3,0-5.7-1-5.6-5.5C999.1,1195.4,999,1147.3,999,1099.2z M1049,1173.8c0,7.2,0.1,14.3,0,21.5
		c-0.1,2.8,0.9,3.8,3.7,3.8c14.2-0.1,28.3-0.1,42.5,0c2.6,0,3.9-0.6,3.9-3.6c-0.1-14.3-0.1-28.6,0-43c0-2.5-0.8-3.5-3.4-3.5
		c-14.3,0.1-28.6,0.1-43,0c-2.9,0-3.7,1.1-3.7,3.8C1049.1,1159.8,1049,1166.8,1049,1173.8z"/>
	<path fill="#FE7575" d="M748.9,1698.9c0-31.5,0.1-63,0-94.4c0-4.2,0.7-5.6,5.4-5.6c29.8,0.2,59.6,0.2,89.4,0c4.6,0,5.4,1.4,5.4,5.6
		c-0.1,31.5,0,63,0,94.4C815.7,1698.9,782.3,1698.9,748.9,1698.9z"/>
	<path fill="#FE7575" d="M1248.9,1698.9c0-31.5,0.1-63,0-94.4c0-4.2,0.7-5.6,5.4-5.6c29.8,0.2,59.6,0.2,89.4,0
		c4.6,0,5.4,1.4,5.4,5.6c-0.1,31.5,0,63,0,94.4C1315.7,1698.9,1282.3,1698.9,1248.9,1698.9z"/>
	<path fill="#FE7575" d="M749.1,1499c0,15.1-0.2,30.2,0,45.3c0,3.7-1,4.7-4.7,4.7c-15.1-0.2-30.2,0-45.3,0c0-15.3,0-30.6-0.1-45.9
		c0-3.3,1-4.3,4.3-4.3C718.5,1499.1,733.8,1499,749.1,1499z"/>
	<path fill="#FE7575" d="M898.9,1549c-15.1,0-30.2-0.2-45.3,0c-3.7,0-4.7-1-4.7-4.7c0.2-15.1,0-30.2,0-45.3c15.3,0,30.6,0,45.9-0.1
		c3.3,0,4.3,1,4.3,4.3C898.9,1518.5,899,1533.7,898.9,1549z"/>
	<path fill="#FE7575" d="M1249.1,1499c0,15.1-0.2,30.2,0,45.3c0,3.7-1,4.7-4.7,4.7c-15.1-0.2-30.2,0-45.3,0c0-15.3,0-30.6-0.1-45.9
		c0-3.3,1-4.3,4.3-4.3C1218.5,1499.1,1233.8,1499,1249.1,1499z"/>
	<path fill="#FE7575" d="M1398.9,1549c-15.1,0-30.2-0.2-45.3,0c-3.7,0-4.7-1-4.7-4.7c0.2-15.1,0-30.2,0-45.3c15.3,0,30.6,0,45.9-0.1
		c3.3,0,4.3,1,4.3,4.3C1398.9,1518.5,1398.9,1533.7,1398.9,1549z"/>
	<path fill="#FEFEFE" d="M1299,1048.8c-1.5,0.1-3,0.2-4.5,0.2c-163.7,0-327.3,0-491,0c-1.5,0-3-0.1-4.5-0.2
		c0-15.2-0.1-30.3,0.1-45.5c0-3.5-0.9-4.5-4.5-4.5c-13.8,0.2-27.6,0-41.5,0.1c-3.2,0-4.3-0.8-4.2-4.2c0.2-13.7-0.1-27.3,0.2-41
		c0.1-3.8-0.8-5.1-4.9-5.1c-13.5,0.3-27,0-40.5,0.2c-3.6,0.1-4.9-0.6-4.8-4.6c0.3-13.7,0.3-27.3,0-41c-0.1-3.9,1.2-4.7,4.8-4.6
		c13.7,0.2,27.3,0,41,0.2c3.6,0.1,4.4-1.1,4.4-4.5c-0.2-13.8,0-27.6-0.1-41.5c0-3.3,1-4.2,4.2-4.2c13.8,0.2,27.6,0,41.5,0.1
		c3.5,0,4.5-0.9,4.5-4.4c-0.2-13.7,0-27.3-0.2-41c-0.1-3.7,0.8-4.8,4.7-4.8c15.1,0.2,30.3,0,45.5-0.1c32.3,0.1,64.6,0.1,97,0.2
		c3.1,0,3-1.4,3-3.6c0-15.5,0.1-31,0.1-46.5c83.2,0,166.4,0,249.7,0c0.1,15.1,0.2,30.3,0.1,45.4c0,3.7,0.7,4.7,4.6,4.6
		c31.8-0.2,63.6-0.1,95.4-0.1c0,15,0.3,30,0,45c-0.1,4.3,1.3,5.2,5.3,5.1c13.3-0.3,26.7,0.1,40-0.2c4.1-0.1,4.9,1.2,4.9,5
		c-0.2,15-0.1,30-0.2,45c-48,0-96,0.1-143.9,0c-4.6,0-6.3,0.8-6.1,5.9c0.4,12.8,0.4,25.7,0,38.5c-0.2,5,1.5,5.9,6.1,5.9
		c48-0.1,96-0.1,143.9,0c0,15.3-0.1,30.6,0.2,45.9c0,3.5-1.2,4.1-4.3,4.1c-13.8-0.1-27.6,0.1-41.4-0.1c-3.6-0.1-4.4,1.1-4.4,4.5
		C1299.1,1018.6,1299,1033.7,1299,1048.8z M874.1,899c-23.6,0-47.3,0.1-70.9-0.1c-3.1,0-4.3,0.7-4.3,4.1c0.2,14,0.2,28,0,41.9
		c0,3.4,1.2,4.1,4.3,4.1c47.1-0.1,94.2-0.1,141.3,0c3.4,0,4.6-0.7,4.5-4.3c-0.2-13.8-0.2-27.6,0-41.4c0.1-3.6-1.2-4.4-4.6-4.3
		C921.1,899.1,897.6,899,874.1,899z M1049,898.5c0,15.5,0.1,31-0.1,46.5c0,3.3,0.8,4.1,4.1,4.1c14-0.2,28-0.2,42,0
		c3.3,0,4.1-0.8,4.1-4.1c-0.1-30.7-0.1-61.3,0-92c0-3.2-0.8-4.1-4.1-4.1c-14,0.2-28,0.2-42,0c-3.3,0-4.1,0.8-4.1,4.1
		C1049.1,868.2,1049,883.3,1049,898.5z"/>
	<path fill="#FEFEFE" d="M1398.9,249c16.7,0,33.4,0,50.1,0c0,48.1-0.1,96.3,0.1,144.4c0,4.6-1.2,5.8-5.7,5.7
		c-13.2-0.3-26.3,0-39.5-0.2c-3.9-0.1-5,1-5,5c0.2,30,0,60,0.2,89.9c0,4.1-0.9,5.3-5.2,5.3c-30-0.2-60-0.2-89.9,0
		c-4.4,0-5.1-1.4-5.1-5.4c0.2-13-0.2-26,0.2-39c0.2-5-1.5-6-6.1-5.9c-13,0.3-26-0.1-39,0.2c-4.3,0.1-5.2-1.3-5.1-5.3
		c0.3-13.5,0.2-27,0-40.5c-0.1-3.6,1.1-4.4,4.5-4.4c13.7,0.2,27.3-0.1,41,0.2c3.8,0.1,4.7-1.1,4.7-4.8c-0.2-13.7,0-27.3-0.2-41
		c-0.1-3.5,1-4.5,4.5-4.4c13.8,0.2,27.7,0,41.5,0.1c3.3,0,4.2-0.9,4.2-4.2c-0.2-13.8,0-27.7-0.1-41.5c0-3.5,0.8-4.5,4.4-4.5
		c13.7,0.2,27.3,0,41,0.2c3.6,0.1,4.8-0.8,4.8-4.6C1398.8,279.4,1398.9,264.2,1398.9,249z"/>
	<path fill="#FEFEFE" d="M599,374.1c0-23.5,0.1-47-0.1-70.4c0-3.7,0.9-4.8,4.7-4.7c13.7,0.2,27.3,0.2,41,0c3.4,0,4.6,0.8,4.5,4.4
		c-0.2,13.7,0,27.3-0.2,41c-0.1,3.6,0.7,4.9,4.6,4.8c13.2-0.3,26.3,0.1,39.5-0.2c4.6-0.1,6.3,0.8,6.1,5.9c-0.4,13,0.1,26-0.3,39
		c-0.1,4.6,1.4,5.5,5.6,5.4c13.3-0.3,26.6,0,40-0.2c3.2,0,4.7,0.5,4.6,4.2c-0.2,14-0.2,28,0,42c0,3.1-0.9,3.9-4,3.9
		c-13.8-0.1-27.6,0.1-41.5-0.2c-3.7-0.1-4.8,0.9-4.7,4.7c0.2,13.7,0,27.3,0.2,41c0,3.4-0.8,4.6-4.4,4.5c-13.7-0.2-27.3-0.2-41,0
		c-3.6,0.1-4.9-0.7-4.8-4.6c0.3-13.2-0.1-26.3,0.2-39.5c0.1-4.6-0.8-6.3-5.9-6.1c-13,0.4-26-0.1-39,0.3c-4.6,0.1-5.4-1.4-5.4-5.6
		C599.1,420.4,599,397.3,599,374.1z"/>
	<path d="M949.2,749c-0.1,15.5-0.1,31-0.1,46.5c0,2.2,0.1,3.6-3,3.6c-32.3-0.2-64.6-0.2-97-0.2c0-31.8,0.1-63.6-0.1-95.4
		c0-3.9,1.1-4.6,4.7-4.6c30.3,0.1,60.6,0.2,90.9,0c3.8,0,4.6,1,4.6,4.7C948.9,718.8,949.1,733.9,949.2,749z"/>
	<path d="M1298.8,799c-31.8,0-63.6-0.1-95.4,0.1c-3.8,0-4.6-1-4.6-4.6c0.2-15.1,0-30.3-0.1-45.4c0.1-15.3,0.2-30.6,0.1-45.9
		c0-3.2,0.8-4.1,4.1-4.1c30.6,0.1,61.3,0.1,91.9,0c2.7,0,4.1,0.2,4.1,3.6C1298.9,734.7,1298.9,766.9,1298.8,799z"/>
	<path fill="#FE7575" d="M1348.9,949.1c-48,0-96-0.1-143.9,0c-4.6,0-6.3-0.8-6.1-5.9c0.4-12.8,0.4-25.7,0-38.5
		c-0.2-5.1,1.5-5.9,6.1-5.9c48,0.1,96,0.1,143.9,0C1348.9,915.6,1348.9,932.4,1348.9,949.1z"/>
	<path fill="#FEFEFE" d="M949.5,549c15,0,29.9,0.1,44.9-0.1c3.3,0,4.7,0.5,4.6,4.3c-0.2,14-0.2,28,0,41.9c0,3.1-0.9,3.9-3.9,3.9
		c-30.8-0.1-61.6-0.1-92.3,0c-2.6,0-3.9-0.4-3.9-3.5c0.1-14.3,0.2-28.6,0-42.9c0-3.4,1.5-3.7,4.2-3.7
		C918.6,549.1,934.1,549,949.5,549z"/>
	<path fill="#FEFEFE" d="M1199,599c-15.3,0-30.6-0.1-45.9,0.1c-3.3,0-4.2-1-4.2-4.2c0.2-14,0.1-28,0-41.9c0-3,0.7-4,3.9-4
		c30.8,0.1,61.6,0.1,92.3,0c3.1,0,3.9,0.9,3.9,4c-0.1,14-0.2,28,0,41.9c0.1,3.8-1.4,4.3-4.6,4.2C1229.3,599,1214.1,599,1199,599z"/>
	<path fill="#F1A154" d="M1049,1173.8c0-7,0.1-14,0-21c-0.1-2.7,0.8-3.9,3.7-3.8c14.3,0.1,28.6,0.1,43,0c2.6,0,3.5,1,3.4,3.5
		c-0.1,14.3-0.1,28.6,0,43c0,3-1.3,3.6-3.9,3.6c-14.2-0.1-28.3-0.1-42.5,0c-2.9,0-3.8-1-3.7-3.8
		C1049.1,1188.1,1049,1180.9,1049,1173.8z"/>
	<path fill="#FE7575" d="M874.1,899c23.5,0,46.9,0.1,70.4-0.1c3.4,0,4.6,0.7,4.6,4.3c-0.2,13.8-0.2,27.6,0,41.4
		c0.1,3.6-1.2,4.4-4.5,4.3c-47.1-0.1-94.2-0.1-141.3,0c-3.1,0-4.3-0.7-4.3-4.1c0.2-14,0.2-28,0-41.9c0-3.4,1.2-4.1,4.3-4.1
		C826.9,899.1,850.5,899,874.1,899z"/>
	<path d="M1049,898.5c0-15.2,0.1-30.3-0.1-45.5c0-3.3,0.8-4.1,4.1-4.1c14,0.2,28,0.2,42,0c3.3,0,4.1,0.8,4.1,4.1
		c-0.1,30.7-0.1,61.3,0,92c0,3.3-0.8,4.1-4.1,4.1c-14-0.2-28-0.2-42,0c-3.3,0-4.1-0.8-4.1-4.1C1049.1,929.5,1049,914,1049,898.5z"/>
</g>
</svg>
