<?xml version="1.0" encoding="utf-8"?>
<!-- Generator: Adobe Illustrator 26.1.0, SVG Export Plug-In . SVG Version: 6.00 Build 0)  -->
<svg version="1.1" id="图层_1" xmlns="http://www.w3.org/2000/svg" xmlns:xlink="http://www.w3.org/1999/xlink" x="0px" y="0px"
	 viewBox="0 0 2000 2000" enable-background="new 0 0 2000 2000" xml:space="preserve">
<path id="XMLID_41_" fill="none" stroke="#E1B53D" stroke-width="18" stroke-miterlimit="10" d="M410,1029.9
	c-39.7-25.4-90.2-23-137.3-26.1c-44.9-3-89.4-11.8-132-26.2"/>
<g id="XMLID_29_">
	<path id="XMLID_40_" fill="#C9CACA" stroke="#B78D25" stroke-width="18" stroke-miterlimit="10" d="M843.7,1421.3
		c-20.7,50.5-39,153.1-43.9,228.1c-1.5,23.1-2,47.2,8,68.1c13.2,27.7,42,44,69.3,57.8c49.6,25.1,102.1,48.4,157.6,49.4
		c65.2,1.3,126.7-28,185.4-56.7c15.2-7.4,31.3-15.7,39.6-30.5c9.3-16.6,6.4-37.1,3.1-55.9c-13.8-78.2-36.2-165.4-53.7-242.8"/>
	<path id="XMLID_39_" fill="#E1B53D" stroke="#C3972C" stroke-width="18" stroke-miterlimit="10" d="M847,1419
		c-62.3-24.8-153.6-155.8-189.6-224.7c-55.4-105.9-96.6-338.5-38.9-441.9c83.9-150.4,190-185,332.2-202.4
		c65.2-8,233.4,4.8,301.8,38.9c104.6,52.2,180.5,155.3,201.3,244.8c36.1,155.1-18.4,266.4-74.3,374.5
		c-50.4,97.6-104.5,213.4-186.8,228C1107.3,1451.2,927.6,1451.1,847,1419z"/>
	<path id="XMLID_38_" fill="none" stroke="#EFEFEF" stroke-width="18" stroke-miterlimit="10" d="M1165.3,1508
		c-173,33.3-284.4-26.8-293,10c-4.8,20.5-26.5,69.4,145.3,73.5c57.2,1.3,174.6-30.5,174.6,14.7c0,34.9-17.1,40-64.6,49.1
		c-13.5,2.6-71.3,10.8-108.4,8c-43.4-3.2-105.2-21.3-105.2-21.3c-60.2-6.4-92.1,60.7,30.9,92.7c49.4,12.8,107.6,35.7,252.9-24.5"/>
	<path id="XMLID_37_" fill="none" stroke="#E1B53D" stroke-width="18" stroke-miterlimit="10" d="M474.7,628.9
		C405.3,573.1,341.4,510.7,284,442.7"/>
	<path id="XMLID_36_" fill="none" stroke="#E1B53D" stroke-width="18" stroke-miterlimit="10" d="M865.5,409.4
		c-17.2-76.7-19.2-156.7-5.9-234.2"/>
	<path id="XMLID_34_" fill="none" stroke="#E1B53D" stroke-width="18" stroke-miterlimit="10" d="M1318.9,437
		c34.4-23.3,128.8-164.8,128.8-164.8"/>
	<path id="XMLID_33_" fill="none" stroke="#E1B53D" stroke-width="18" stroke-miterlimit="10" d="M1644,675.6
		c61.7-22.4,123.9-43.2,186.7-62.4"/>
	<path id="XMLID_32_" fill="none" stroke="#E1B53D" stroke-width="18" stroke-miterlimit="10" d="M1655.9,1033.3
		c13.5,4.2,27,8.4,40.5,12.6c54.1,16.8,108.2,33.6,162.9,48.5"/>
	<path id="XMLID_31_" fill="none" stroke="#E1B53D" stroke-width="18" stroke-miterlimit="10" d="M1530,1368.6
		c43.3,50.4,85.3,101.9,125.9,154.5"/>
	<path id="XMLID_30_" fill="none" stroke="#E1B53D" stroke-width="18" stroke-miterlimit="10" d="M595.4,1381.1
		c-61.7,62.3-120.5,127.3-176.3,194.8"/>
</g>
<path id="XMLID_27_" fill="none" stroke="#F0D5AE" stroke-width="18" stroke-miterlimit="10" d="M765.6,994.2
	c10.7,13.9,21.4,27.8,32.1,41.6c8.6,11.1,18.5,23.1,32.4,25.3c11.7,1.9,23.2-3.8,33.5-9.5c36.6-20.2,71.6-43.4,104.3-69.5
	c2.9-2.3,6.2-4.8,9.9-4.5c2.8,0.2,5.3,2,7.5,3.9c14.3,12,24.7,27.8,37,41.8c12.3,14,27.8,26.7,46.3,29.1
	c29.8,3.8,55.2-19.6,79.8-36.9c22.6-15.9,48.6-27.9,76-31.2c6.4-0.8,13.2-1,19,2c6.3,3.2,10.2,9.7,13.7,15.8
	c12,20.6,23.9,41.2,35.9,61.8"/>
</svg>
