<?xml version="1.0" encoding="utf-8"?>
<!-- Generator: Adobe Illustrator 26.1.0, SVG Export Plug-In . SVG Version: 6.00 Build 0)  -->
<svg version="1.1" id="图层_1" xmlns="http://www.w3.org/2000/svg" xmlns:xlink="http://www.w3.org/1999/xlink" x="0px" y="0px"
	 viewBox="0 0 177.2 103.4" enable-background="new 0 0 177.2 103.4" xml:space="preserve">
<g>
	<g>
		
			<line fill="none" stroke="#004000" stroke-width="2.2835" stroke-linecap="square" stroke-miterlimit="10" x1="170.9" y1="-245.9" x2="170.9" y2="-273.3"/>
		
			<line fill="none" stroke="#004000" stroke-width="2.2835" stroke-linecap="square" stroke-miterlimit="10" x1="170.9" y1="-191" x2="170.9" y2="-122.5"/>
		
			<line fill="none" stroke="#004000" stroke-width="2.2835" stroke-linecap="square" stroke-miterlimit="10" x1="47.7" y1="-259.6" x2="47.7" y2="-273.3"/>
		
			<line fill="none" stroke="#004000" stroke-width="2.2835" stroke-linecap="square" stroke-miterlimit="10" x1="-61.8" y1="0.8" x2="-7.1" y2="0.8"/>
		<g>
			<path d="M-16-6.1v-1l3.5,0v3c-0.5,0.4-1.1,0.7-1.6,1c-0.6,0.2-1.1,0.3-1.7,0.3c-0.8,0-1.5-0.2-2.2-0.5c-0.7-0.3-1.2-0.8-1.5-1.5
				s-0.5-1.4-0.5-2.2c0-0.8,0.2-1.5,0.5-2.2s0.8-1.2,1.4-1.5c0.6-0.3,1.3-0.5,2.2-0.5c0.6,0,1.1,0.1,1.6,0.3
				c0.5,0.2,0.9,0.5,1.1,0.8c0.3,0.3,0.5,0.8,0.6,1.3l-1,0.3c-0.1-0.4-0.3-0.7-0.5-1s-0.4-0.4-0.8-0.6c-0.3-0.1-0.7-0.2-1.1-0.2
				c-0.5,0-0.9,0.1-1.3,0.2c-0.4,0.2-0.7,0.3-0.9,0.6s-0.4,0.5-0.5,0.8C-18.9-8.1-19-7.6-19-7c0,0.7,0.1,1.3,0.4,1.8
				c0.3,0.5,0.6,0.9,1.1,1.1c0.5,0.2,1,0.4,1.5,0.4c0.5,0,0.9-0.1,1.4-0.3c0.4-0.2,0.8-0.4,1-0.6v-1.5H-16z"/>
		</g>
		
			<line fill="none" stroke="#004000" stroke-width="2.2835" stroke-linecap="square" stroke-miterlimit="10" x1="-61.8" y1="14.5" x2="-7.1" y2="14.5"/>
		<g>
			<path d="M-20.2,8.2l1-0.1c0,0.4,0.2,0.7,0.3,1c0.2,0.3,0.5,0.5,0.8,0.6c0.4,0.2,0.8,0.2,1.3,0.2c0.4,0,0.8-0.1,1.1-0.2
				s0.6-0.3,0.7-0.5c0.2-0.2,0.2-0.4,0.2-0.7c0-0.3-0.1-0.5-0.2-0.7s-0.4-0.4-0.7-0.5c-0.2-0.1-0.7-0.2-1.5-0.4
				c-0.8-0.2-1.3-0.4-1.6-0.5c-0.4-0.2-0.7-0.5-0.9-0.8c-0.2-0.3-0.3-0.6-0.3-1c0-0.4,0.1-0.8,0.4-1.2c0.2-0.4,0.6-0.6,1-0.8
				s0.9-0.3,1.5-0.3c0.6,0,1.1,0.1,1.6,0.3s0.8,0.5,1.1,0.9S-14,4.5-14,4.9L-15,5c-0.1-0.5-0.2-0.9-0.6-1.2s-0.8-0.4-1.4-0.4
				c-0.7,0-1.1,0.1-1.4,0.4c-0.3,0.2-0.4,0.5-0.4,0.9c0,0.3,0.1,0.5,0.3,0.7c0.2,0.2,0.8,0.4,1.6,0.6c0.9,0.2,1.5,0.4,1.8,0.5
				c0.5,0.2,0.8,0.5,1.1,0.8c0.2,0.3,0.3,0.7,0.3,1.2c0,0.4-0.1,0.8-0.4,1.2c-0.2,0.4-0.6,0.7-1.1,0.9c-0.5,0.2-1,0.3-1.6,0.3
				c-0.7,0-1.4-0.1-1.9-0.3c-0.5-0.2-0.9-0.5-1.2-1C-20.1,9.2-20.2,8.7-20.2,8.2z"/>
		</g>
		
			<line fill="none" stroke="#004000" stroke-width="2.2835" stroke-linecap="square" stroke-miterlimit="10" x1="-34.4" y1="-245.9" x2="-34.4" y2="-273.3"/>
		<polyline fill="none" stroke="#004000" stroke-width="2.2835" stroke-linecap="square" stroke-miterlimit="10" points="
			-61.8,-12.9 -34.4,-12.9 -34.4,-81.4 		"/>
		
			<line fill="none" stroke="#004000" stroke-width="2.2835" stroke-linecap="square" stroke-miterlimit="10" x1="-143.9" y1="69.3" x2="-143.9" y2="96.7"/>
		
			<line fill="none" stroke="#004000" stroke-width="2.2835" stroke-linecap="square" stroke-miterlimit="10" x1="239.3" y1="-259.6" x2="239.3" y2="-273.3"/>
		
			<line fill="none" stroke="#004000" stroke-width="2.2835" stroke-linecap="square" stroke-miterlimit="10" x1="307.7" y1="-273.3" x2="239.3" y2="-273.3"/>
		
			<line fill="none" stroke="#004000" stroke-width="2.2835" stroke-linecap="square" stroke-miterlimit="10" x1="-143.9" y1="-54" x2="-143.9" y2="-81.4"/>
		
			<line fill="none" stroke="#004000" stroke-width="2.2835" stroke-linecap="square" stroke-miterlimit="10" x1="-198.7" y1="-81.4" x2="-143.9" y2="-81.4"/>
		
			<line fill="none" stroke="#004000" stroke-width="2.2835" stroke-linecap="square" stroke-miterlimit="10" x1="47.7" y1="-95.1" x2="47.7" y2="-136.2"/>
		
			<line fill="none" stroke="#004000" stroke-width="2.2835" stroke-linecap="square" stroke-miterlimit="10" x1="47.7" y1="-177.3" x2="47.7" y2="-136.2"/>
		
			<line fill="none" stroke="#004000" stroke-width="2.2835" stroke-linecap="square" stroke-miterlimit="10" x1="-226" y1="-12.9" x2="-253.4" y2="-12.9"/>
		
			<line fill="none" stroke="#004000" stroke-width="2.2835" stroke-linecap="square" stroke-miterlimit="10" x1="-294.5" y1="-12.9" x2="-253.4" y2="-12.9"/>
		
			<line fill="none" stroke="#004000" stroke-width="2.2835" stroke-linecap="square" stroke-miterlimit="10" x1="-89.2" y1="-273.3" x2="-61.8" y2="-273.3"/>
		
			<line fill="none" stroke="#004000" stroke-width="2.2835" stroke-linecap="square" stroke-miterlimit="10" x1="-34.4" y1="-273.3" x2="-61.8" y2="-273.3"/>
		
			<line fill="none" stroke="#004000" stroke-width="2.2835" stroke-linecap="square" stroke-miterlimit="10" x1="-116.5" y1="-204.7" x2="-157.6" y2="-204.7"/>
		
			<line fill="none" stroke="#004000" stroke-width="2.2835" stroke-linecap="square" stroke-miterlimit="10" x1="-226" y1="-204.7" x2="-267.1" y2="-204.7"/>
		
			<line fill="none" stroke="#004000" stroke-width="2.2835" stroke-linecap="square" stroke-miterlimit="10" x1="-308.2" y1="-204.7" x2="-267.1" y2="-204.7"/>
		<g>
			<path d="M-289.8-211.6v-1l3.5,0v3c-0.5,0.4-1.1,0.7-1.6,1s-1.1,0.3-1.7,0.3c-0.8,0-1.5-0.2-2.2-0.5s-1.1-0.8-1.5-1.5
				c-0.3-0.7-0.5-1.4-0.5-2.2c0-0.8,0.2-1.5,0.5-2.2c0.3-0.7,0.8-1.2,1.4-1.5c0.6-0.3,1.3-0.5,2.2-0.5c0.6,0,1.1,0.1,1.6,0.3
				s0.9,0.5,1.1,0.8c0.3,0.3,0.5,0.8,0.6,1.3l-1,0.3c-0.1-0.4-0.3-0.7-0.5-1c-0.2-0.2-0.4-0.4-0.8-0.6c-0.3-0.1-0.7-0.2-1.1-0.2
				c-0.5,0-0.9,0.1-1.3,0.2c-0.4,0.2-0.7,0.3-0.9,0.6c-0.2,0.2-0.4,0.5-0.5,0.8c-0.2,0.5-0.3,1.1-0.3,1.6c0,0.7,0.1,1.3,0.4,1.8
				s0.6,0.9,1.1,1.1s1,0.4,1.5,0.4c0.5,0,0.9-0.1,1.4-0.3c0.4-0.2,0.8-0.4,1-0.6v-1.5H-289.8z"/>
		</g>
		
			<line fill="none" stroke="#004000" stroke-width="2.2835" stroke-linecap="square" stroke-miterlimit="10" x1="-34.4" y1="-191" x2="-34.4" y2="-136.2"/>
		
			<line fill="none" stroke="#004000" stroke-width="2.2835" stroke-linecap="square" stroke-miterlimit="10" x1="-34.4" y1="-81.4" x2="-34.4" y2="-136.2"/>
		
			<line fill="none" stroke="#004000" stroke-width="2.2835" stroke-linecap="square" stroke-miterlimit="10" x1="239.3" y1="-122.5" x2="239.3" y2="-163.6"/>
		
			<line fill="none" stroke="#004000" stroke-width="2.2835" stroke-linecap="square" stroke-miterlimit="10" x1="239.3" y1="-191" x2="239.3" y2="-163.6"/>
		
			<line fill="none" stroke="#004000" stroke-width="2.2835" stroke-linecap="square" stroke-miterlimit="10" x1="47.7" y1="-273.3" x2="75.1" y2="-273.3"/>
		
			<line fill="none" stroke="#004000" stroke-width="2.2835" stroke-linecap="square" stroke-miterlimit="10" x1="47.7" y1="-273.3" x2="-7.1" y2="-273.3"/>
		<g>
			<path d="M34.5-279.5l1-0.1c0,0.4,0.2,0.7,0.3,1c0.2,0.3,0.5,0.5,0.8,0.6s0.8,0.2,1.3,0.2c0.4,0,0.8-0.1,1.1-0.2s0.6-0.3,0.7-0.5
				c0.2-0.2,0.2-0.4,0.2-0.7c0-0.3-0.1-0.5-0.2-0.7s-0.4-0.4-0.7-0.5c-0.2-0.1-0.7-0.2-1.5-0.4s-1.3-0.4-1.6-0.5
				c-0.4-0.2-0.7-0.5-0.9-0.8c-0.2-0.3-0.3-0.6-0.3-1c0-0.4,0.1-0.8,0.4-1.2c0.2-0.4,0.6-0.6,1-0.8c0.4-0.2,0.9-0.3,1.5-0.3
				c0.6,0,1.1,0.1,1.6,0.3c0.5,0.2,0.8,0.5,1.1,0.9c0.2,0.4,0.4,0.8,0.4,1.3l-1,0.1c-0.1-0.5-0.2-0.9-0.6-1.2
				c-0.3-0.3-0.8-0.4-1.4-0.4c-0.7,0-1.1,0.1-1.4,0.4c-0.3,0.2-0.4,0.5-0.4,0.9c0,0.3,0.1,0.5,0.3,0.7c0.2,0.2,0.8,0.4,1.6,0.6
				c0.9,0.2,1.5,0.4,1.8,0.5c0.5,0.2,0.8,0.5,1.1,0.8c0.2,0.3,0.3,0.7,0.3,1.2c0,0.4-0.1,0.8-0.4,1.2c-0.2,0.4-0.6,0.7-1.1,0.9
				s-1,0.3-1.6,0.3c-0.7,0-1.4-0.1-1.9-0.3c-0.5-0.2-0.9-0.5-1.2-1S34.5-279,34.5-279.5z"/>
		</g>
		
			<line fill="none" stroke="#004000" stroke-width="2.2835" stroke-linecap="square" stroke-miterlimit="10" x1="-34.4" y1="-273.3" x2="-7.1" y2="-273.3"/>
		
			<line fill="none" stroke="#004000" stroke-width="2.2835" stroke-linecap="square" stroke-miterlimit="10" x1="-171.3" y1="-273.3" x2="-226" y2="-273.3"/>
		
			<line fill="none" stroke="#004000" stroke-width="2.2835" stroke-linecap="square" stroke-miterlimit="10" x1="-280.8" y1="-273.3" x2="-226" y2="-273.3"/>
		
			<line fill="none" stroke="#004000" stroke-width="2.2835" stroke-linecap="square" stroke-miterlimit="10" x1="-143.9" y1="-81.4" x2="-116.5" y2="-81.4"/>
		
			<line fill="none" stroke="#004000" stroke-width="2.2835" stroke-linecap="square" stroke-miterlimit="10" x1="-34.4" y1="-81.4" x2="-75.5" y2="-81.4"/>
		
			<line fill="none" stroke="#004000" stroke-width="2.2835" stroke-linecap="square" stroke-miterlimit="10" x1="170.9" y1="-273.3" x2="184.5" y2="-273.3"/>
		
			<line fill="none" stroke="#004000" stroke-width="2.2835" stroke-linecap="square" stroke-miterlimit="10" x1="239.3" y1="-273.3" x2="184.5" y2="-273.3"/>
		
			<line fill="none" stroke="#004000" stroke-width="2.2835" stroke-linecap="square" stroke-miterlimit="10" x1="170.9" y1="-273.3" x2="129.8" y2="-273.3"/>
		
			<line fill="none" stroke="#004000" stroke-width="2.2835" stroke-linecap="square" stroke-miterlimit="10" x1="75.1" y1="-273.3" x2="88.7" y2="-273.3"/>
		
			<rect x="-198.7" y="-26.6" fill-rule="evenodd" clip-rule="evenodd" fill="#C8C8AA" stroke="#800000" stroke-width="2.2835" stroke-linecap="square" stroke-miterlimit="10" width="109.5" height="68.5"/>
		
			<line fill="none" stroke="#800000" stroke-width="2.2835" stroke-linecap="square" stroke-miterlimit="10" x1="-226" y1="-12.9" x2="-198.7" y2="-12.9"/>
		<g>
			<path d="M-190.9-9.3v-8.2h1.1v3.4h4.2v-3.4h1.1v8.2h-1.1v-3.9h-4.2v3.9H-190.9z"/>
			<path d="M-182.5-9.3v-8.2h1.1v8.2H-182.5z"/>
			<path d="M-180-9.3v-8.2h1.1l4.3,6.4v-6.4h1v8.2h-1.1l-4.3-6.4v6.4H-180z"/>
		</g>
		<g>
			<path d="M-213-16.7v1h-5.4c0-0.2,0-0.5,0.1-0.7c0.1-0.4,0.4-0.7,0.7-1.1c0.3-0.4,0.7-0.8,1.3-1.2c0.9-0.7,1.5-1.3,1.8-1.7
				c0.3-0.4,0.5-0.8,0.5-1.2c0-0.4-0.1-0.7-0.4-1c-0.3-0.3-0.7-0.4-1.1-0.4c-0.5,0-0.9,0.1-1.2,0.4s-0.4,0.7-0.4,1.2l-1-0.1
				c0.1-0.8,0.3-1.4,0.8-1.8c0.5-0.4,1.1-0.6,1.9-0.6c0.8,0,1.4,0.2,1.9,0.7c0.5,0.4,0.7,1,0.7,1.6c0,0.3-0.1,0.6-0.2,1
				c-0.1,0.3-0.4,0.6-0.7,1c-0.3,0.3-0.8,0.8-1.5,1.4c-0.6,0.5-1,0.8-1.2,1c-0.2,0.2-0.3,0.4-0.4,0.5H-213z"/>
		</g>
		
			<line fill="none" stroke="#800000" stroke-width="2.2835" stroke-linecap="square" stroke-miterlimit="10" x1="-226" y1="28.2" x2="-198.7" y2="28.2"/>
		<g>
			<path d="M-191,31.8v-8.2h1.1v7.2h4v1H-191z"/>
			<path d="M-184.4,31.8v-8.2h1.1v8.2H-184.4z"/>
			<path d="M-181.8,31.8v-8.2h1.1l4.3,6.4v-6.4h1v8.2h-1.1l-4.3-6.4v6.4H-181.8z"/>
		</g>
		<g>
			<path d="M-218.3,23.3l1-0.1c0.1,0.6,0.3,1,0.6,1.2c0.3,0.3,0.6,0.4,1,0.4c0.5,0,0.9-0.2,1.2-0.5c0.3-0.3,0.5-0.7,0.5-1.2
				c0-0.5-0.2-0.8-0.5-1.1c-0.3-0.3-0.7-0.4-1.1-0.4c-0.2,0-0.4,0-0.7,0.1l0.1-0.9c0.1,0,0.1,0,0.2,0c0.4,0,0.8-0.1,1.2-0.3
				c0.3-0.2,0.5-0.6,0.5-1c0-0.4-0.1-0.7-0.4-0.9c-0.2-0.2-0.6-0.4-1-0.4c-0.4,0-0.7,0.1-1,0.4c-0.3,0.2-0.4,0.6-0.5,1.1l-1-0.2
				c0.1-0.7,0.4-1.2,0.8-1.6c0.4-0.4,1-0.6,1.6-0.6c0.4,0,0.9,0.1,1.2,0.3s0.7,0.5,0.9,0.8s0.3,0.7,0.3,1.1c0,0.4-0.1,0.7-0.3,1
				c-0.2,0.3-0.5,0.5-0.8,0.7c0.5,0.1,0.9,0.3,1.1,0.7c0.3,0.4,0.4,0.8,0.4,1.3c0,0.7-0.3,1.3-0.8,1.8c-0.5,0.5-1.2,0.7-2,0.7
				c-0.7,0-1.3-0.2-1.8-0.6C-217.9,24.5-218.2,23.9-218.3,23.3z"/>
		</g>
		
			<line fill="none" stroke="#800000" stroke-width="2.2835" stroke-linecap="square" stroke-miterlimit="10" x1="-61.8" y1="-12.9" x2="-89.2" y2="-12.9"/>
		<g>
			<path d="M-107.9-9.3l-3.2-8.2h1.2l2.1,5.9c0.2,0.5,0.3,0.9,0.4,1.3c0.1-0.4,0.3-0.9,0.4-1.3l2.2-5.9h1.1l-3.2,8.2H-107.9z"/>
			<path d="M-102.9-9.3v-8.2h3.1c0.6,0,1.1,0.1,1.5,0.2c0.4,0.2,0.7,0.4,0.9,0.8c0.2,0.3,0.3,0.7,0.3,1.1c0,0.3-0.1,0.7-0.3,1
				c-0.2,0.3-0.5,0.6-0.9,0.7c0.5,0.1,0.9,0.4,1.1,0.7c0.3,0.3,0.4,0.8,0.4,1.2c0,0.4-0.1,0.7-0.2,1.1s-0.4,0.6-0.6,0.8
				c-0.2,0.2-0.5,0.3-0.9,0.4c-0.4,0.1-0.8,0.1-1.3,0.1H-102.9z M-101.8-14h1.8c0.5,0,0.8,0,1-0.1c0.3-0.1,0.5-0.2,0.6-0.4
				s0.2-0.4,0.2-0.7c0-0.3-0.1-0.5-0.2-0.7c-0.1-0.2-0.3-0.3-0.6-0.4s-0.7-0.1-1.2-0.1h-1.6V-14z M-101.8-10.3h2c0.3,0,0.6,0,0.7,0
				c0.2,0,0.5-0.1,0.6-0.2c0.2-0.1,0.3-0.3,0.4-0.5c0.1-0.2,0.2-0.4,0.2-0.7c0-0.3-0.1-0.6-0.2-0.8c-0.2-0.2-0.4-0.4-0.6-0.5
				c-0.3-0.1-0.7-0.1-1.2-0.1h-1.9V-10.3z"/>
		</g>
		<g>
			<path d="M-73.5-20.1c-0.4-0.2-0.7-0.4-0.9-0.7c-0.2-0.3-0.3-0.6-0.3-1c0-0.6,0.2-1.1,0.6-1.5s1-0.6,1.7-0.6
				c0.7,0,1.3,0.2,1.7,0.6c0.4,0.4,0.7,0.9,0.7,1.5c0,0.4-0.1,0.7-0.3,1c-0.2,0.3-0.5,0.5-0.9,0.6c0.5,0.2,0.9,0.4,1.1,0.8
				s0.4,0.8,0.4,1.3c0,0.7-0.2,1.3-0.7,1.8s-1.1,0.7-1.9,0.7s-1.5-0.2-1.9-0.7c-0.5-0.5-0.7-1.1-0.7-1.8c0-0.5,0.1-1,0.4-1.3
				C-74.3-19.7-74-20-73.5-20.1z M-74-18c0,0.3,0.1,0.6,0.2,0.8c0.1,0.3,0.3,0.5,0.6,0.6c0.3,0.1,0.6,0.2,0.9,0.2
				c0.5,0,0.9-0.2,1.2-0.5c0.3-0.3,0.5-0.7,0.5-1.2c0-0.5-0.2-0.9-0.5-1.2c-0.3-0.3-0.7-0.5-1.2-0.5c-0.5,0-0.9,0.2-1.2,0.5
				C-73.8-18.9-74-18.5-74-18z M-73.7-21.8c0,0.4,0.1,0.7,0.4,0.9s0.6,0.4,1,0.4c0.4,0,0.7-0.1,0.9-0.4s0.4-0.5,0.4-0.9
				c0-0.4-0.1-0.7-0.4-0.9c-0.3-0.3-0.6-0.4-0.9-0.4c-0.4,0-0.7,0.1-1,0.4C-73.5-22.5-73.7-22.2-73.7-21.8z"/>
		</g>
		
			<line fill="none" stroke="#800000" stroke-width="2.2835" stroke-linecap="square" stroke-miterlimit="10" x1="-61.8" y1="0.8" x2="-89.2" y2="0.8"/>
		<g>
			<path d="M-112,4.4v-8.2h1.1v3.4h4.2v-3.4h1.1v8.2h-1.1V0.6h-4.2v3.9H-112z"/>
			<path d="M-104.1,0.4c0-1.4,0.4-2.4,1.1-3.2c0.7-0.8,1.7-1.2,2.8-1.2c0.8,0,1.4,0.2,2,0.5c0.6,0.4,1.1,0.9,1.4,1.5
				c0.3,0.6,0.5,1.4,0.5,2.2c0,0.8-0.2,1.6-0.5,2.2c-0.3,0.7-0.8,1.1-1.4,1.5c-0.6,0.3-1.3,0.5-2,0.5c-0.8,0-1.5-0.2-2.1-0.6
				c-0.6-0.4-1.1-0.9-1.4-1.5C-104,1.8-104.1,1.2-104.1,0.4z M-103,0.5c0,1,0.3,1.8,0.8,2.3c0.5,0.6,1.2,0.8,2,0.8
				c0.8,0,1.5-0.3,2-0.9s0.8-1.4,0.8-2.4c0-0.7-0.1-1.2-0.3-1.7s-0.6-0.9-1-1.2c-0.4-0.3-0.9-0.4-1.5-0.4c-0.8,0-1.4,0.3-2,0.8
				C-102.7-1.7-103-0.8-103,0.5z"/>
		</g>
		<g>
			<path d="M-74.9-9.1v-1h5.3v0.8c-0.5,0.6-1,1.3-1.5,2.2c-0.5,0.9-0.9,1.9-1.2,2.8c-0.2,0.7-0.3,1.4-0.4,2.2h-1
				c0-0.6,0.1-1.4,0.4-2.3c0.2-0.9,0.6-1.8,1-2.6c0.5-0.8,0.9-1.6,1.4-2.1H-74.9z"/>
		</g>
		
			<line fill="none" stroke="#800000" stroke-width="2.2835" stroke-linecap="square" stroke-miterlimit="10" x1="-61.8" y1="14.5" x2="-89.2" y2="14.5"/>
		<g>
			<path d="M-107.9,18.1l-3.2-8.2h1.2l2.1,5.9c0.2,0.5,0.3,0.9,0.4,1.3c0.1-0.4,0.3-0.9,0.4-1.3l2.2-5.9h1.1l-3.2,8.2H-107.9z"/>
			<path d="M-103.3,15.5l1-0.1c0,0.4,0.2,0.7,0.3,1c0.2,0.3,0.5,0.5,0.8,0.6c0.4,0.2,0.8,0.2,1.3,0.2c0.4,0,0.8-0.1,1.1-0.2
				s0.6-0.3,0.7-0.5c0.2-0.2,0.2-0.4,0.2-0.7c0-0.3-0.1-0.5-0.2-0.7s-0.4-0.4-0.7-0.5c-0.2-0.1-0.7-0.2-1.5-0.4
				c-0.8-0.2-1.3-0.4-1.6-0.5c-0.4-0.2-0.7-0.5-0.9-0.8c-0.2-0.3-0.3-0.6-0.3-1c0-0.4,0.1-0.8,0.4-1.2s0.6-0.6,1-0.8
				s0.9-0.3,1.5-0.3c0.6,0,1.1,0.1,1.6,0.3c0.5,0.2,0.8,0.5,1.1,0.9c0.2,0.4,0.4,0.8,0.4,1.3l-1,0.1c-0.1-0.5-0.2-0.9-0.6-1.2
				s-0.8-0.4-1.4-0.4c-0.7,0-1.1,0.1-1.4,0.4c-0.3,0.2-0.4,0.5-0.4,0.9c0,0.3,0.1,0.5,0.3,0.7c0.2,0.2,0.8,0.4,1.6,0.6
				c0.9,0.2,1.5,0.4,1.8,0.5c0.5,0.2,0.8,0.5,1.1,0.8c0.2,0.3,0.3,0.7,0.3,1.2c0,0.4-0.1,0.8-0.4,1.2c-0.2,0.4-0.6,0.7-1.1,0.9
				c-0.5,0.2-1,0.3-1.6,0.3c-0.7,0-1.4-0.1-1.9-0.3c-0.5-0.2-0.9-0.5-1.2-1C-103.1,16.5-103.2,16-103.3,15.5z"/>
		</g>
		<g>
			<path d="M-69.8,5.5l-1,0.1c-0.1-0.4-0.2-0.7-0.4-0.9c-0.3-0.3-0.6-0.4-1-0.4c-0.3,0-0.6,0.1-0.8,0.3c-0.3,0.2-0.6,0.6-0.7,1
				C-74,6.1-74,6.7-74.1,7.5c0.2-0.4,0.5-0.6,0.9-0.8s0.7-0.3,1.1-0.3c0.7,0,1.2,0.2,1.7,0.7c0.5,0.5,0.7,1.1,0.7,1.9
				c0,0.5-0.1,1-0.3,1.4c-0.2,0.4-0.5,0.8-0.9,1s-0.8,0.4-1.3,0.4c-0.8,0-1.5-0.3-2-0.9c-0.5-0.6-0.8-1.6-0.8-3
				c0-1.6,0.3-2.7,0.9-3.4c0.5-0.6,1.2-0.9,2.1-0.9c0.6,0,1.2,0.2,1.6,0.5C-70.1,4.4-69.9,4.9-69.8,5.5z M-73.9,9.1
				c0,0.3,0.1,0.7,0.2,1c0.1,0.3,0.4,0.6,0.6,0.7s0.5,0.2,0.8,0.2c0.4,0,0.8-0.2,1.1-0.5c0.3-0.3,0.5-0.8,0.5-1.4
				c0-0.6-0.2-1-0.5-1.3s-0.7-0.5-1.1-0.5c-0.5,0-0.8,0.2-1.2,0.5C-73.7,8.1-73.9,8.5-73.9,9.1z"/>
		</g>
		
			<line fill="none" stroke="#800000" stroke-width="2.2835" stroke-linecap="square" stroke-miterlimit="10" x1="-61.8" y1="28.2" x2="-89.2" y2="28.2"/>
		<g>
			<path d="M-110.2,31.8v-8.2h1.1v7.2h4v1H-110.2z"/>
			<path d="M-104.1,27.8c0-1.4,0.4-2.4,1.1-3.2c0.7-0.8,1.7-1.2,2.8-1.2c0.8,0,1.4,0.2,2,0.5c0.6,0.4,1.1,0.9,1.4,1.5
				c0.3,0.6,0.5,1.4,0.5,2.2c0,0.8-0.2,1.6-0.5,2.2c-0.3,0.7-0.8,1.1-1.4,1.5c-0.6,0.3-1.3,0.5-2,0.5c-0.8,0-1.5-0.2-2.1-0.6
				c-0.6-0.4-1.1-0.9-1.4-1.5C-104,29.2-104.1,28.5-104.1,27.8z M-103,27.8c0,1,0.3,1.8,0.8,2.3c0.5,0.6,1.2,0.8,2,0.8
				c0.8,0,1.5-0.3,2-0.9s0.8-1.4,0.8-2.4c0-0.7-0.1-1.2-0.3-1.7s-0.6-0.9-1-1.2c-0.4-0.3-0.9-0.4-1.5-0.4c-0.8,0-1.4,0.3-2,0.8
				C-102.8,25.7-103,26.6-103,27.8z"/>
		</g>
		<g>
			<path d="M-75,23.3l1.1-0.1c0.1,0.5,0.3,0.9,0.5,1.2c0.3,0.3,0.6,0.4,1,0.4c0.5,0,0.9-0.2,1.2-0.5c0.3-0.4,0.5-0.8,0.5-1.4
				c0-0.6-0.2-1-0.5-1.4s-0.7-0.5-1.3-0.5c-0.3,0-0.6,0.1-0.9,0.2c-0.3,0.1-0.5,0.3-0.6,0.6l-0.9-0.1l0.8-4.2h4.1v1h-3.3l-0.4,2.2
				c0.5-0.3,1-0.5,1.5-0.5c0.7,0,1.3,0.2,1.8,0.7c0.5,0.5,0.7,1.1,0.7,1.9c0,0.7-0.2,1.4-0.6,1.9c-0.5,0.7-1.2,1-2.1,1
				c-0.7,0-1.3-0.2-1.8-0.6C-74.7,24.5-74.9,24-75,23.3z"/>
		</g>
		
			<line fill="none" stroke="#800000" stroke-width="2.2835" stroke-linecap="square" stroke-miterlimit="10" x1="-143.9" y1="69.3" x2="-143.9" y2="41.9"/>
		<g>
			<path d="M-150.4,29.4l1.1,0.3c-0.2,0.9-0.6,1.6-1.2,2c-0.6,0.5-1.3,0.7-2.2,0.7c-0.9,0-1.6-0.2-2.1-0.5s-1-0.9-1.3-1.6
				c-0.3-0.7-0.4-1.4-0.4-2.2c0-0.9,0.2-1.6,0.5-2.2s0.8-1.1,1.4-1.4c0.6-0.3,1.3-0.5,2-0.5c0.8,0,1.5,0.2,2.1,0.6
				c0.6,0.4,0.9,1,1.2,1.8l-1.1,0.3c-0.2-0.6-0.5-1-0.8-1.3c-0.4-0.3-0.8-0.4-1.4-0.4c-0.6,0-1.2,0.2-1.6,0.5
				c-0.4,0.3-0.7,0.7-0.9,1.2c-0.2,0.5-0.3,1-0.3,1.6c0,0.7,0.1,1.3,0.3,1.8c0.2,0.5,0.5,0.9,0.9,1.2c0.4,0.3,0.9,0.4,1.4,0.4
				c0.6,0,1.1-0.2,1.5-0.5C-150.9,30.6-150.6,30.1-150.4,29.4z"/>
			<path d="M-148.4,28.3c0-1.4,0.4-2.4,1.1-3.2c0.7-0.8,1.7-1.2,2.8-1.2c0.8,0,1.4,0.2,2,0.5c0.6,0.4,1.1,0.9,1.4,1.5
				c0.3,0.6,0.5,1.4,0.5,2.2c0,0.8-0.2,1.6-0.5,2.2c-0.3,0.7-0.8,1.1-1.4,1.5c-0.6,0.3-1.3,0.5-2,0.5c-0.8,0-1.5-0.2-2.1-0.6
				c-0.6-0.4-1.1-0.9-1.4-1.5C-148.2,29.7-148.4,29-148.4,28.3z M-147.3,28.3c0,1,0.3,1.8,0.8,2.3c0.5,0.6,1.2,0.8,2,0.8
				c0.8,0,1.5-0.3,2-0.9s0.8-1.4,0.8-2.4c0-0.7-0.1-1.2-0.3-1.7s-0.6-0.9-1-1.2c-0.4-0.3-0.9-0.4-1.5-0.4c-0.8,0-1.4,0.3-2,0.8
				C-147,26.2-147.3,27.1-147.3,28.3z"/>
			<path d="M-139.4,32.3v-8.2h1.6l1.9,5.8c0.2,0.5,0.3,0.9,0.4,1.2c0.1-0.3,0.2-0.7,0.4-1.3l2-5.7h1.5v8.2h-1v-6.8l-2.4,6.8h-1
				l-2.4-7v7H-139.4z"/>
		</g>
		<g>
			<path d="M-137,65.6v-2h-3.5v-0.9l3.7-5.3h0.8v5.3h1.1v0.9h-1.1v2H-137z M-137,62.7v-3.7l-2.6,3.7H-137z"/>
		</g>
		
			<line fill="none" stroke="#800000" stroke-width="2.2835" stroke-linecap="square" stroke-miterlimit="10" x1="-143.9" y1="-54" x2="-143.9" y2="-26.6"/>
		<g>
			<path d="M-148-9.7l-3.2-8.2h1.2l2.1,5.9c0.2,0.5,0.3,0.9,0.4,1.3c0.1-0.4,0.3-0.9,0.4-1.3l2.2-5.9h1.1l-3.2,8.2H-148z"/>
			<path d="M-141-11.1v-2.2h-2.2v-0.9h2.2v-2.2h0.9v2.2h2.2v0.9h-2.2v2.2H-141z"/>
		</g>
		<g>
			<path d="M-136.5-43.1h-1v-6.4c-0.2,0.2-0.6,0.5-0.9,0.7c-0.4,0.2-0.7,0.4-1.1,0.5v-1c0.6-0.3,1.1-0.6,1.5-1
				c0.4-0.4,0.7-0.7,0.9-1.1h0.6V-43.1z"/>
		</g>
		<g>
			<path d="M-202.2,52.1h1.6v7c0,1.2-0.1,2.2-0.4,2.9c-0.3,0.7-0.8,1.3-1.5,1.7c-0.7,0.4-1.7,0.7-2.8,0.7c-1.1,0-2.1-0.2-2.8-0.6
				c-0.7-0.4-1.2-1-1.5-1.7c-0.3-0.7-0.5-1.8-0.5-3v-7h1.6v7c0,1.1,0.1,1.8,0.3,2.3c0.2,0.5,0.5,0.9,1,1.2c0.5,0.3,1.1,0.4,1.7,0.4
				c1.2,0,2-0.3,2.5-0.8c0.5-0.5,0.8-1.6,0.8-3.1V52.1z"/>
			<path d="M-192.8,64.2h-1.5v-9.5c-0.4,0.3-0.8,0.7-1.4,1c-0.6,0.3-1.1,0.6-1.6,0.8v-1.4c0.8-0.4,1.6-0.9,2.2-1.4
				c0.6-0.6,1.1-1.1,1.3-1.6h1V64.2z"/>
		</g>
		<g>
			<path d="M-87.2,66.5v-8.2h1.1v8.2H-87.2z"/>
			<path d="M-84.6,66.5v-8.2h3.6c0.7,0,1.3,0.1,1.7,0.2c0.4,0.1,0.7,0.4,0.9,0.8s0.3,0.8,0.3,1.2c0,0.6-0.2,1.1-0.6,1.5
				s-1,0.7-1.7,0.8c0.3,0.1,0.5,0.3,0.7,0.4c0.3,0.3,0.6,0.7,0.9,1.1l1.4,2.2h-1.4l-1.1-1.7c-0.3-0.5-0.6-0.9-0.8-1.1
				c-0.2-0.3-0.4-0.4-0.5-0.5c-0.2-0.1-0.3-0.2-0.5-0.2c-0.1,0-0.3,0-0.6,0h-1.3v3.6H-84.6z M-83.5,62h2.3c0.5,0,0.9-0.1,1.2-0.2
				c0.3-0.1,0.5-0.3,0.6-0.5c0.1-0.2,0.2-0.5,0.2-0.7c0-0.4-0.1-0.7-0.4-1s-0.7-0.4-1.3-0.4h-2.6V62z"/>
			<path d="M-71.6,65.6v1H-77c0-0.2,0-0.5,0.1-0.7c0.1-0.4,0.4-0.7,0.7-1.1c0.3-0.4,0.7-0.8,1.3-1.2c0.9-0.7,1.5-1.3,1.8-1.7
				c0.3-0.4,0.5-0.8,0.5-1.2c0-0.4-0.1-0.7-0.4-1c-0.3-0.3-0.7-0.4-1.1-0.4c-0.5,0-0.9,0.1-1.2,0.4s-0.4,0.7-0.4,1.2l-1-0.1
				c0.1-0.8,0.3-1.4,0.8-1.8c0.5-0.4,1.1-0.6,1.9-0.6c0.8,0,1.4,0.2,1.9,0.7c0.5,0.4,0.7,1,0.7,1.6c0,0.3-0.1,0.6-0.2,1
				c-0.1,0.3-0.4,0.6-0.7,1c-0.3,0.3-0.8,0.8-1.5,1.4c-0.6,0.5-1,0.8-1.2,1c-0.2,0.2-0.3,0.4-0.4,0.5H-71.6z"/>
			<path d="M-66.7,66.5h-1v-6.4c-0.2,0.2-0.6,0.5-0.9,0.7c-0.4,0.2-0.7,0.4-1.1,0.5v-1c0.6-0.3,1.1-0.6,1.5-1
				c0.4-0.4,0.7-0.7,0.9-1.1h0.6V66.5z"/>
			<path d="M-64.1,62.5c0-1,0.1-1.7,0.3-2.3c0.2-0.6,0.5-1,0.9-1.4s0.9-0.5,1.5-0.5c0.4,0,0.8,0.1,1.2,0.3s0.6,0.4,0.8,0.8
				c0.2,0.3,0.4,0.7,0.5,1.2s0.2,1.1,0.2,1.9c0,1-0.1,1.7-0.3,2.3c-0.2,0.6-0.5,1-0.9,1.4c-0.4,0.3-0.9,0.5-1.5,0.5
				c-0.8,0-1.4-0.3-1.9-0.8C-63.8,65.1-64.1,64-64.1,62.5z M-63,62.5c0,1.3,0.2,2.2,0.5,2.7c0.3,0.4,0.7,0.7,1.2,0.7
				s0.8-0.2,1.2-0.7c0.3-0.4,0.5-1.3,0.5-2.7c0-1.3-0.2-2.2-0.5-2.7c-0.3-0.4-0.7-0.7-1.2-0.7c-0.5,0-0.8,0.2-1.1,0.6
				C-62.9,60.2-63,61.2-63,62.5z"/>
			<path d="M-53.9,66.5h-1v-6.4c-0.2,0.2-0.6,0.5-0.9,0.7c-0.4,0.2-0.7,0.4-1.1,0.5v-1c0.6-0.3,1.1-0.6,1.5-1
				c0.4-0.4,0.7-0.7,0.9-1.1h0.6V66.5z"/>
		</g>
		
			<polygon fill-rule="evenodd" clip-rule="evenodd" fill="#C8C8AA" stroke="#800000" stroke-width="2.2835" stroke-linecap="square" stroke-miterlimit="10" points="
			-130.2,-245.9 -134.3,-259.6 -126.1,-259.6 -130.2,-245.9 		"/>
		
			<rect x="-150.8" y="-245.9" fill-rule="evenodd" clip-rule="evenodd" fill="#C8C8AA" stroke="#800000" stroke-width="2.2835" stroke-linecap="square" stroke-miterlimit="10" width="41.1" height="6.9"/>
		
			<line fill="none" stroke="#800000" stroke-width="2.2835" stroke-linecap="square" stroke-miterlimit="10" x1="-143.9" y1="-232.2" x2="-116.5" y2="-232.2"/>
		
			<line fill="none" stroke="#800000" stroke-width="2.2835" stroke-linecap="square" stroke-miterlimit="10" x1="-116.5" y1="-218.5" x2="-116.5" y2="-232.2"/>
		
			<line fill="none" stroke="#800000" stroke-width="2.2835" stroke-linecap="square" stroke-miterlimit="10" x1="-143.9" y1="-245.9" x2="-143.9" y2="-259.6"/>
		
			<line fill="none" stroke="#800000" stroke-width="2.2835" stroke-linecap="square" stroke-miterlimit="10" x1="-116.5" y1="-245.9" x2="-116.5" y2="-259.6"/>
		
			<line fill="none" stroke="#800000" stroke-width="2.2835" stroke-linecap="square" stroke-miterlimit="10" x1="-130.2" y1="-259.6" x2="-130.2" y2="-273.3"/>
		
			<line fill="none" stroke="#800000" stroke-width="2.2835" stroke-linecap="square" stroke-miterlimit="10" x1="-116.5" y1="-259.6" x2="-116.5" y2="-273.3"/>
		
			<line fill="none" stroke="#800000" stroke-width="2.2835" stroke-linecap="square" stroke-miterlimit="10" x1="-116.5" y1="-273.3" x2="-102.9" y2="-273.3"/>
		
			<line fill="none" stroke="#800000" stroke-width="2.2835" stroke-linecap="square" stroke-miterlimit="10" x1="-157.6" y1="-273.3" x2="-143.9" y2="-273.3"/>
		
			<line fill="none" stroke="#800000" stroke-width="2.2835" stroke-linecap="square" stroke-miterlimit="10" x1="-143.9" y1="-273.3" x2="-143.9" y2="-259.6"/>
		
			<line fill="none" stroke="#800000" stroke-width="2.2835" stroke-linecap="square" stroke-miterlimit="10" x1="-130.2" y1="-273.3" x2="-116.5" y2="-273.3"/>
		
			<line fill="none" stroke="#800000" stroke-width="2.2835" stroke-linecap="square" stroke-miterlimit="10" x1="-171.3" y1="-273.3" x2="-157.6" y2="-273.3"/>
		<g>
			<path d="M-176.2-277.4l-0.1-1c0.6-0.1,1-0.3,1.2-0.6c0.3-0.3,0.4-0.6,0.4-1c0-0.5-0.2-0.9-0.5-1.2s-0.7-0.5-1.2-0.5
				c-0.5,0-0.8,0.2-1.1,0.5s-0.4,0.7-0.4,1.1c0,0.2,0,0.4,0.1,0.7l-0.9-0.1c0-0.1,0-0.1,0-0.2c0-0.4-0.1-0.8-0.3-1.2
				c-0.2-0.3-0.6-0.5-1-0.5c-0.4,0-0.7,0.1-0.9,0.4s-0.4,0.6-0.4,1c0,0.4,0.1,0.7,0.4,1c0.2,0.3,0.6,0.4,1.1,0.5l-0.2,1
				c-0.7-0.1-1.2-0.4-1.6-0.8c-0.4-0.4-0.6-1-0.6-1.6c0-0.4,0.1-0.9,0.3-1.2c0.2-0.4,0.5-0.7,0.8-0.9c0.3-0.2,0.7-0.3,1.1-0.3
				c0.4,0,0.7,0.1,1,0.3s0.5,0.5,0.7,0.8c0.1-0.5,0.3-0.9,0.7-1.1c0.4-0.3,0.8-0.4,1.3-0.4c0.7,0,1.3,0.3,1.8,0.8s0.7,1.2,0.7,2
				c0,0.7-0.2,1.3-0.6,1.8C-175-277.7-175.5-277.5-176.2-277.4z"/>
		</g>
		
			<line fill="none" stroke="#800000" stroke-width="2.2835" stroke-linecap="square" stroke-miterlimit="10" x1="-116.5" y1="-204.7" x2="-116.5" y2="-218.5"/>
		<g>
			<path d="M-120.2-204.1h1v5.4c-0.2,0-0.5,0-0.7-0.1c-0.4-0.1-0.7-0.4-1.1-0.7c-0.4-0.3-0.8-0.7-1.2-1.3c-0.7-0.9-1.3-1.5-1.7-1.8
				c-0.4-0.3-0.8-0.5-1.2-0.5c-0.4,0-0.7,0.1-1,0.4c-0.3,0.3-0.4,0.7-0.4,1.1c0,0.5,0.1,0.9,0.4,1.2c0.3,0.3,0.7,0.4,1.2,0.4l-0.1,1
				c-0.8-0.1-1.4-0.3-1.8-0.8c-0.4-0.5-0.6-1.1-0.6-1.9c0-0.8,0.2-1.4,0.7-1.9c0.4-0.5,1-0.7,1.6-0.7c0.3,0,0.6,0.1,1,0.2
				s0.6,0.4,1,0.7c0.3,0.3,0.8,0.8,1.4,1.5c0.5,0.6,0.8,1,1,1.2s0.4,0.3,0.5,0.4V-204.1z"/>
		</g>
		
			<line fill="none" stroke="#800000" stroke-width="2.2835" stroke-linecap="square" stroke-miterlimit="10" x1="-89.2" y1="-273.3" x2="-102.9" y2="-273.3"/>
		<g>
			<path d="M-79.1-281.2v1h-6.4c0.2,0.2,0.5,0.6,0.7,1c0.2,0.4,0.4,0.7,0.5,1.1h-1c-0.3-0.6-0.6-1.1-1-1.5s-0.7-0.7-1.1-0.9v-0.6
				H-79.1z"/>
		</g>
		<g>
			<path d="M-148.1-307.9c0.7,0.5,1.4,0.9,2.1,1.1l-0.5,1.1c-0.9-0.3-1.7-0.8-2.6-1.5c-0.9,0.5-1.9,0.8-3,0.8c-1.1,0-2.1-0.3-3-0.8
				c-0.9-0.5-1.6-1.3-2.1-2.2c-0.5-1-0.7-2-0.7-3.2c0-1.2,0.2-2.3,0.7-3.3c0.5-1,1.2-1.7,2.1-2.2c0.9-0.5,1.9-0.8,3-0.8
				c1.1,0,2.1,0.3,3,0.8c0.9,0.5,1.6,1.3,2,2.2c0.5,1,0.7,2,0.7,3.2c0,1-0.2,1.9-0.5,2.7C-147-309.2-147.5-308.5-148.1-307.9z
				 M-151.6-309.9c0.9,0.3,1.7,0.6,2.3,1.2c0.9-0.9,1.4-2.1,1.4-3.9c0-1-0.2-1.8-0.5-2.6s-0.8-1.3-1.5-1.7c-0.6-0.4-1.4-0.6-2.2-0.6
				c-1.2,0-2.2,0.4-3,1.2s-1.2,2-1.2,3.7c0,1.6,0.4,2.8,1.2,3.6c0.8,0.8,1.8,1.3,3,1.3c0.6,0,1.1-0.1,1.6-0.3
				c-0.5-0.3-1-0.6-1.6-0.7L-151.6-309.9z"/>
			<path d="M-139-306.6h-1.5v-9.5c-0.4,0.3-0.8,0.7-1.4,1c-0.6,0.3-1.1,0.6-1.6,0.8v-1.4c0.8-0.4,1.6-0.9,2.2-1.4
				c0.6-0.6,1.1-1.1,1.3-1.6h1V-306.6z"/>
		</g>
		<g>
			<path d="M-152.8-292.5v1h-5.4c0-0.2,0-0.5,0.1-0.7c0.1-0.4,0.4-0.7,0.7-1.1c0.3-0.4,0.7-0.8,1.3-1.2c0.9-0.7,1.5-1.3,1.8-1.7
				c0.3-0.4,0.5-0.8,0.5-1.2c0-0.4-0.1-0.7-0.4-1c-0.3-0.3-0.7-0.4-1.1-0.4c-0.5,0-0.9,0.1-1.2,0.4c-0.3,0.3-0.4,0.7-0.4,1.2l-1-0.1
				c0.1-0.8,0.3-1.4,0.8-1.8c0.5-0.4,1.1-0.6,1.9-0.6c0.8,0,1.4,0.2,1.9,0.7c0.5,0.4,0.7,1,0.7,1.6c0,0.3-0.1,0.6-0.2,1
				s-0.4,0.6-0.7,1c-0.3,0.3-0.8,0.8-1.5,1.4c-0.6,0.5-1,0.8-1.2,1s-0.3,0.4-0.4,0.5H-152.8z"/>
			<path d="M-151.3-291.5v-8.2h1.1l4.3,6.4v-6.4h1v8.2h-1.1l-4.3-6.4v6.4H-151.3z"/>
			<path d="M-138.2-297.7l-1,0.1c-0.1-0.4-0.2-0.7-0.4-0.9c-0.3-0.3-0.6-0.4-1-0.4c-0.3,0-0.6,0.1-0.8,0.3c-0.3,0.2-0.6,0.6-0.7,1
				c-0.2,0.4-0.3,1.1-0.3,1.9c0.2-0.4,0.5-0.6,0.9-0.8c0.3-0.2,0.7-0.3,1.1-0.3c0.7,0,1.2,0.2,1.7,0.7c0.5,0.5,0.7,1.1,0.7,1.9
				c0,0.5-0.1,1-0.3,1.4c-0.2,0.4-0.5,0.8-0.9,1c-0.4,0.2-0.8,0.4-1.3,0.4c-0.8,0-1.5-0.3-2-0.9c-0.5-0.6-0.8-1.6-0.8-3
				c0-1.6,0.3-2.7,0.9-3.4c0.5-0.6,1.2-0.9,2.1-0.9c0.6,0,1.2,0.2,1.6,0.5C-138.6-298.8-138.3-298.3-138.2-297.7z M-142.3-294.2
				c0,0.3,0.1,0.7,0.2,1c0.1,0.3,0.4,0.6,0.6,0.7c0.3,0.2,0.5,0.2,0.8,0.2c0.4,0,0.8-0.2,1.1-0.5c0.3-0.3,0.5-0.8,0.5-1.4
				c0-0.6-0.2-1-0.5-1.3c-0.3-0.3-0.7-0.5-1.1-0.5c-0.5,0-0.8,0.2-1.2,0.5C-142.2-295.1-142.3-294.7-142.3-294.2z"/>
			<path d="M-131.9-297.7l-1,0.1c-0.1-0.4-0.2-0.7-0.4-0.9c-0.3-0.3-0.6-0.4-1-0.4c-0.3,0-0.6,0.1-0.8,0.3c-0.3,0.2-0.6,0.6-0.7,1
				c-0.2,0.4-0.3,1.1-0.3,1.9c0.2-0.4,0.5-0.6,0.9-0.8c0.3-0.2,0.7-0.3,1.1-0.3c0.7,0,1.2,0.2,1.7,0.7c0.5,0.5,0.7,1.1,0.7,1.9
				c0,0.5-0.1,1-0.3,1.4c-0.2,0.4-0.5,0.8-0.9,1c-0.4,0.2-0.8,0.4-1.3,0.4c-0.8,0-1.5-0.3-2-0.9c-0.5-0.6-0.8-1.6-0.8-3
				c0-1.6,0.3-2.7,0.9-3.4c0.5-0.6,1.2-0.9,2.1-0.9c0.6,0,1.2,0.2,1.6,0.5C-132.2-298.8-132-298.3-131.9-297.7z M-136-294.2
				c0,0.3,0.1,0.7,0.2,1c0.1,0.3,0.4,0.6,0.6,0.7c0.3,0.2,0.5,0.2,0.8,0.2c0.4,0,0.8-0.2,1.1-0.5c0.3-0.3,0.5-0.8,0.5-1.4
				c0-0.6-0.2-1-0.5-1.3c-0.3-0.3-0.7-0.5-1.1-0.5c-0.5,0-0.8,0.2-1.2,0.5C-135.8-295.1-136-294.7-136-294.2z"/>
			<path d="M-125.5-297.7l-1,0.1c-0.1-0.4-0.2-0.7-0.4-0.9c-0.3-0.3-0.6-0.4-1-0.4c-0.3,0-0.6,0.1-0.8,0.3c-0.3,0.2-0.6,0.6-0.7,1
				c-0.2,0.4-0.3,1.1-0.3,1.9c0.2-0.4,0.5-0.6,0.9-0.8c0.3-0.2,0.7-0.3,1.1-0.3c0.7,0,1.2,0.2,1.7,0.7c0.5,0.5,0.7,1.1,0.7,1.9
				c0,0.5-0.1,1-0.3,1.4c-0.2,0.4-0.5,0.8-0.9,1c-0.4,0.2-0.8,0.4-1.3,0.4c-0.8,0-1.5-0.3-2-0.9c-0.5-0.6-0.8-1.6-0.8-3
				c0-1.6,0.3-2.7,0.9-3.4c0.5-0.6,1.2-0.9,2.1-0.9c0.6,0,1.2,0.2,1.6,0.5C-125.8-298.8-125.6-298.3-125.5-297.7z M-129.6-294.2
				c0,0.3,0.1,0.7,0.2,1c0.1,0.3,0.4,0.6,0.6,0.7c0.3,0.2,0.5,0.2,0.8,0.2c0.4,0,0.8-0.2,1.1-0.5c0.3-0.3,0.5-0.8,0.5-1.4
				c0-0.6-0.2-1-0.5-1.3c-0.3-0.3-0.7-0.5-1.1-0.5c-0.5,0-0.8,0.2-1.2,0.5C-129.4-295.1-129.6-294.7-129.6-294.2z"/>
			<path d="M-124.8-295.6c0-1,0.1-1.7,0.3-2.3c0.2-0.6,0.5-1,0.9-1.4c0.4-0.3,0.9-0.5,1.5-0.5c0.4,0,0.8,0.1,1.2,0.3
				c0.3,0.2,0.6,0.4,0.8,0.8s0.4,0.7,0.5,1.2s0.2,1.1,0.2,1.9c0,1-0.1,1.7-0.3,2.3c-0.2,0.6-0.5,1-0.9,1.4c-0.4,0.3-0.9,0.5-1.5,0.5
				c-0.8,0-1.4-0.3-1.9-0.8C-124.5-292.9-124.8-294-124.8-295.6z M-123.7-295.6c0,1.3,0.2,2.2,0.5,2.7c0.3,0.4,0.7,0.7,1.2,0.7
				s0.8-0.2,1.2-0.7c0.3-0.4,0.5-1.3,0.5-2.7c0-1.3-0.2-2.2-0.5-2.7c-0.3-0.4-0.7-0.7-1.2-0.7c-0.5,0-0.8,0.2-1.1,0.6
				C-123.6-297.8-123.7-296.9-123.7-295.6z"/>
		</g>
		
			<line fill="none" stroke="#800000" stroke-width="2.2835" stroke-linecap="square" stroke-miterlimit="10" x1="246.1" y1="-215.7" x2="232.4" y2="-222.6"/>
		
			<line fill="none" stroke="#800000" stroke-width="2.2835" stroke-linecap="square" stroke-miterlimit="10" x1="232.4" y1="-222.6" x2="246.1" y2="-229.4"/>
		
			<line fill="none" stroke="#800000" stroke-width="2.2835" stroke-linecap="square" stroke-miterlimit="10" x1="246.1" y1="-229.4" x2="232.4" y2="-236.3"/>
		
			<line fill="none" stroke="#800000" stroke-width="2.2835" stroke-linecap="square" stroke-miterlimit="10" x1="232.4" y1="-236.3" x2="246.1" y2="-243.1"/>
		
			<line fill="none" stroke="#800000" stroke-width="2.2835" stroke-linecap="square" stroke-miterlimit="10" x1="246.1" y1="-215.7" x2="232.4" y2="-208.9"/>
		
			<line fill="none" stroke="#800000" stroke-width="2.2835" stroke-linecap="square" stroke-miterlimit="10" x1="232.4" y1="-208.9" x2="239.3" y2="-204.7"/>
		
			<line fill="none" stroke="#800000" stroke-width="2.2835" stroke-linecap="square" stroke-miterlimit="10" x1="246.1" y1="-243.1" x2="239.3" y2="-245.9"/>
		
			<line fill="none" stroke="#800000" stroke-width="2.2835" stroke-linecap="square" stroke-miterlimit="10" x1="239.3" y1="-191" x2="239.3" y2="-204.7"/>
		
			<line fill="none" stroke="#800000" stroke-width="2.2835" stroke-linecap="square" stroke-miterlimit="10" x1="239.3" y1="-259.6" x2="239.3" y2="-245.9"/>
		<g>
			<path d="M255.2-231.2v-12.1h5.4c1.1,0,1.9,0.1,2.5,0.3s1,0.6,1.3,1.2c0.3,0.5,0.5,1.2,0.5,1.8c0,0.9-0.3,1.6-0.8,2.2
				c-0.6,0.6-1.4,1-2.6,1.1c0.4,0.2,0.7,0.4,1,0.6c0.5,0.4,0.9,1,1.3,1.6l2.1,3.3h-2l-1.6-2.5c-0.5-0.7-0.9-1.3-1.2-1.7
				c-0.3-0.4-0.6-0.7-0.8-0.8c-0.2-0.2-0.5-0.3-0.7-0.3c-0.2,0-0.5-0.1-0.9-0.1h-1.9v5.4H255.2z M256.8-238h3.4
				c0.7,0,1.3-0.1,1.7-0.2s0.7-0.4,0.9-0.7c0.2-0.3,0.3-0.7,0.3-1.1c0-0.6-0.2-1-0.6-1.4c-0.4-0.4-1.1-0.6-2-0.6h-3.8V-238z"/>
			<path d="M272.5-231.2H271v-9.5c-0.4,0.3-0.8,0.7-1.4,1c-0.6,0.3-1.1,0.6-1.6,0.8v-1.4c0.8-0.4,1.6-0.9,2.2-1.4s1.1-1.1,1.3-1.6h1
				V-231.2z"/>
		</g>
		<g>
			<path d="M254.4-218.3l1.1-0.1c0.1,0.5,0.3,0.9,0.5,1.2c0.3,0.3,0.6,0.4,1,0.4c0.5,0,0.9-0.2,1.2-0.5s0.5-0.8,0.5-1.4
				c0-0.6-0.2-1-0.5-1.4c-0.3-0.3-0.7-0.5-1.3-0.5c-0.3,0-0.6,0.1-0.9,0.2c-0.3,0.1-0.5,0.3-0.6,0.6l-0.9-0.1l0.8-4.2h4.1v1h-3.3
				l-0.4,2.2c0.5-0.3,1-0.5,1.5-0.5c0.7,0,1.3,0.2,1.8,0.7s0.7,1.1,0.7,1.9c0,0.7-0.2,1.4-0.6,1.9c-0.5,0.7-1.2,1-2.1,1
				c-0.7,0-1.3-0.2-1.8-0.6C254.7-217.1,254.4-217.6,254.4-218.3z"/>
			<path d="M260.7-220.2c0-1,0.1-1.7,0.3-2.3c0.2-0.6,0.5-1,0.9-1.4c0.4-0.3,0.9-0.5,1.5-0.5c0.4,0,0.8,0.1,1.2,0.3
				c0.3,0.2,0.6,0.4,0.8,0.8c0.2,0.3,0.4,0.7,0.5,1.2c0.1,0.5,0.2,1.1,0.2,1.9c0,1-0.1,1.7-0.3,2.3c-0.2,0.6-0.5,1-0.9,1.4
				s-0.9,0.5-1.5,0.5c-0.8,0-1.4-0.3-1.9-0.8C261-217.6,260.7-218.7,260.7-220.2z M261.8-220.2c0,1.3,0.2,2.2,0.5,2.7
				c0.3,0.4,0.7,0.7,1.2,0.7c0.5,0,0.8-0.2,1.2-0.7c0.3-0.4,0.5-1.3,0.5-2.7c0-1.3-0.2-2.2-0.5-2.7c-0.3-0.4-0.7-0.7-1.2-0.7
				c-0.5,0-0.8,0.2-1.1,0.6C261.9-222.5,261.8-221.5,261.8-220.2z"/>
			<path d="M267.1-220.2c0-1,0.1-1.7,0.3-2.3c0.2-0.6,0.5-1,0.9-1.4c0.4-0.3,0.9-0.5,1.5-0.5c0.4,0,0.8,0.1,1.2,0.3
				c0.3,0.2,0.6,0.4,0.8,0.8c0.2,0.3,0.4,0.7,0.5,1.2c0.1,0.5,0.2,1.1,0.2,1.9c0,1-0.1,1.7-0.3,2.3c-0.2,0.6-0.5,1-0.9,1.4
				s-0.9,0.5-1.5,0.5c-0.8,0-1.4-0.3-1.9-0.8C267.4-217.6,267.1-218.7,267.1-220.2z M268.2-220.2c0,1.3,0.2,2.2,0.5,2.7
				c0.3,0.4,0.7,0.7,1.2,0.7c0.5,0,0.8-0.2,1.2-0.7c0.3-0.4,0.5-1.3,0.5-2.7c0-1.3-0.2-2.2-0.5-2.7c-0.3-0.4-0.7-0.7-1.2-0.7
				c-0.5,0-0.8,0.2-1.1,0.6C268.3-222.5,268.2-221.5,268.2-220.2z"/>
			<path d="M273.5-220.2c0-1,0.1-1.7,0.3-2.3c0.2-0.6,0.5-1,0.9-1.4c0.4-0.3,0.9-0.5,1.5-0.5c0.4,0,0.8,0.1,1.2,0.3
				c0.3,0.2,0.6,0.4,0.8,0.8c0.2,0.3,0.4,0.7,0.5,1.2c0.1,0.5,0.2,1.1,0.2,1.9c0,1-0.1,1.7-0.3,2.3c-0.2,0.6-0.5,1-0.9,1.4
				s-0.9,0.5-1.5,0.5c-0.8,0-1.4-0.3-1.9-0.8C273.8-217.6,273.5-218.7,273.5-220.2z M274.5-220.2c0,1.3,0.2,2.2,0.5,2.7
				c0.3,0.4,0.7,0.7,1.2,0.7c0.5,0,0.8-0.2,1.2-0.7c0.3-0.4,0.5-1.3,0.5-2.7c0-1.3-0.2-2.2-0.5-2.7c-0.3-0.4-0.7-0.7-1.2-0.7
				c-0.5,0-0.8,0.2-1.1,0.6C274.7-222.5,274.5-221.5,274.5-220.2z"/>
			<path d="M279.9-216.2v-8.2h3.6c0.7,0,1.3,0.1,1.7,0.2c0.4,0.1,0.7,0.4,0.9,0.8c0.2,0.4,0.3,0.8,0.3,1.2c0,0.6-0.2,1.1-0.6,1.5
				s-1,0.7-1.7,0.8c0.3,0.1,0.5,0.3,0.7,0.4c0.3,0.3,0.6,0.7,0.9,1.1l1.4,2.2h-1.4l-1.1-1.7c-0.3-0.5-0.6-0.9-0.8-1.1
				c-0.2-0.3-0.4-0.4-0.5-0.5s-0.3-0.2-0.5-0.2c-0.1,0-0.3,0-0.6,0h-1.3v3.6H279.9z M280.9-220.7h2.3c0.5,0,0.9-0.1,1.2-0.2
				c0.3-0.1,0.5-0.3,0.6-0.5c0.1-0.2,0.2-0.5,0.2-0.7c0-0.4-0.1-0.7-0.4-1s-0.7-0.4-1.3-0.4h-2.6V-220.7z"/>
		</g>
		
			<rect x="157.2" y="-229.4" fill-rule="evenodd" clip-rule="evenodd" fill="#C8C8AA" stroke="#800000" stroke-width="2.2835" stroke-linecap="square" stroke-miterlimit="10" width="27.4" height="6.9"/>
		
			<rect x="157.2" y="-214.3" fill-rule="evenodd" clip-rule="evenodd" fill="#C8C8AA" stroke="#800000" stroke-width="2.2835" stroke-linecap="square" stroke-miterlimit="10" width="27.4" height="6.9"/>
		
			<line fill="none" stroke="#800000" stroke-width="2.2835" stroke-linecap="square" stroke-miterlimit="10" x1="170.9" y1="-207.5" x2="170.9" y2="-204.7"/>
		
			<line fill="none" stroke="#800000" stroke-width="2.2835" stroke-linecap="square" stroke-miterlimit="10" x1="170.9" y1="-229.4" x2="170.9" y2="-232.2"/>
		
			<line fill="none" stroke="#800000" stroke-width="2.2835" stroke-linecap="square" stroke-miterlimit="10" x1="177.7" y1="-214.3" x2="184.5" y2="-207.5"/>
		
			<line fill="none" stroke="#800000" stroke-width="2.2835" stroke-linecap="square" stroke-miterlimit="10" x1="170.9" y1="-214.3" x2="177.7" y2="-207.5"/>
		
			<line fill="none" stroke="#800000" stroke-width="2.2835" stroke-linecap="square" stroke-miterlimit="10" x1="164" y1="-214.3" x2="170.9" y2="-207.5"/>
		
			<line fill="none" stroke="#800000" stroke-width="2.2835" stroke-linecap="square" stroke-miterlimit="10" x1="157.2" y1="-214.3" x2="164" y2="-207.5"/>
		
			<line fill="none" stroke="#800000" stroke-width="2.2835" stroke-linecap="square" stroke-miterlimit="10" x1="170.9" y1="-245.9" x2="170.9" y2="-232.2"/>
		
			<line fill="none" stroke="#800000" stroke-width="2.2835" stroke-linecap="square" stroke-miterlimit="10" x1="170.9" y1="-191" x2="170.9" y2="-204.7"/>
		<g>
			<path d="M202.2-221.8l1.6,0.4c-0.3,1.3-0.9,2.3-1.8,3s-1.9,1-3.2,1c-1.3,0-2.4-0.3-3.2-0.8c-0.8-0.5-1.4-1.3-1.9-2.3
				c-0.4-1-0.6-2.1-0.6-3.2c0-1.3,0.2-2.4,0.7-3.3c0.5-0.9,1.2-1.7,2.1-2.1c0.9-0.5,1.9-0.7,2.9-0.7c1.2,0,2.2,0.3,3,0.9
				c0.8,0.6,1.4,1.5,1.7,2.6l-1.6,0.4c-0.3-0.9-0.7-1.5-1.2-1.9c-0.5-0.4-1.2-0.6-2-0.6c-0.9,0-1.7,0.2-2.3,0.7
				c-0.6,0.4-1.1,1-1.3,1.8c-0.3,0.8-0.4,1.5-0.4,2.3c0,1,0.1,1.9,0.4,2.7c0.3,0.8,0.8,1.3,1.4,1.7c0.6,0.4,1.3,0.6,2.1,0.6
				c0.9,0,1.7-0.3,2.3-0.8S202-220.8,202.2-221.8z"/>
			<path d="M210.9-217.5h-1.5v-9.5c-0.4,0.3-0.8,0.7-1.4,1c-0.6,0.3-1.1,0.6-1.6,0.8v-1.4c0.8-0.4,1.6-0.9,2.2-1.4s1.1-1.1,1.3-1.6
				h1V-217.5z"/>
		</g>
		<g>
			<path d="M196.5-202.5h-1v-6.4c-0.2,0.2-0.6,0.5-1,0.7s-0.7,0.4-1.1,0.5v-1c0.6-0.3,1-0.6,1.5-1c0.4-0.4,0.7-0.7,0.9-1.1h0.6
				V-202.5z"/>
			<path d="M199.2-206.5c0-1,0.1-1.7,0.3-2.3c0.2-0.6,0.5-1,0.9-1.4c0.4-0.3,0.9-0.5,1.5-0.5c0.4,0,0.8,0.1,1.2,0.3
				c0.3,0.2,0.6,0.4,0.8,0.8c0.2,0.3,0.4,0.7,0.5,1.2c0.1,0.5,0.2,1.1,0.2,1.9c0,1-0.1,1.7-0.3,2.3c-0.2,0.6-0.5,1-0.9,1.4
				s-0.9,0.5-1.5,0.5c-0.8,0-1.4-0.3-1.9-0.8C199.4-203.9,199.2-205,199.2-206.5z M200.2-206.5c0,1.3,0.2,2.2,0.5,2.7
				c0.3,0.4,0.7,0.7,1.2,0.7c0.5,0,0.8-0.2,1.2-0.7c0.3-0.4,0.5-1.3,0.5-2.7c0-1.3-0.2-2.2-0.5-2.7c-0.3-0.4-0.7-0.7-1.2-0.7
				c-0.5,0-0.8,0.2-1.1,0.6C200.4-208.8,200.2-207.8,200.2-206.5z"/>
			<path d="M205.5-206.5c0-1,0.1-1.7,0.3-2.3c0.2-0.6,0.5-1,0.9-1.4c0.4-0.3,0.9-0.5,1.5-0.5c0.4,0,0.8,0.1,1.2,0.3
				c0.3,0.2,0.6,0.4,0.8,0.8c0.2,0.3,0.4,0.7,0.5,1.2c0.1,0.5,0.2,1.1,0.2,1.9c0,1-0.1,1.7-0.3,2.3c-0.2,0.6-0.5,1-0.9,1.4
				s-0.9,0.5-1.5,0.5c-0.8,0-1.4-0.3-1.9-0.8C205.8-203.9,205.5-205,205.5-206.5z M206.6-206.5c0,1.3,0.2,2.2,0.5,2.7
				c0.3,0.4,0.7,0.7,1.2,0.7c0.5,0,0.8-0.2,1.2-0.7c0.3-0.4,0.5-1.3,0.5-2.7c0-1.3-0.2-2.2-0.5-2.7c-0.3-0.4-0.7-0.7-1.2-0.7
				c-0.5,0-0.8,0.2-1.1,0.6C206.7-208.8,206.6-207.8,206.6-206.5z"/>
			<path d="M211.9-206.5c0-1,0.1-1.7,0.3-2.3c0.2-0.6,0.5-1,0.9-1.4c0.4-0.3,0.9-0.5,1.5-0.5c0.4,0,0.8,0.1,1.2,0.3
				c0.3,0.2,0.6,0.4,0.8,0.8c0.2,0.3,0.4,0.7,0.5,1.2c0.1,0.5,0.2,1.1,0.2,1.9c0,1-0.1,1.7-0.3,2.3c-0.2,0.6-0.5,1-0.9,1.4
				s-0.9,0.5-1.5,0.5c-0.8,0-1.4-0.3-1.9-0.8C212.2-203.9,211.9-205,211.9-206.5z M212.9-206.5c0,1.3,0.2,2.2,0.5,2.7
				c0.3,0.4,0.7,0.7,1.2,0.7c0.5,0,0.8-0.2,1.2-0.7c0.3-0.4,0.5-1.3,0.5-2.7c0-1.3-0.2-2.2-0.5-2.7c-0.3-0.4-0.7-0.7-1.2-0.7
				c-0.5,0-0.8,0.2-1.1,0.6C213.1-208.8,212.9-207.8,212.9-206.5z"/>
			<path d="M223.6-210.6h1.1v4.7c0,0.8-0.1,1.5-0.3,2c-0.2,0.5-0.5,0.9-1,1.2s-1.1,0.5-1.9,0.5c-0.8,0-1.4-0.1-1.9-0.4
				c-0.5-0.3-0.8-0.6-1-1.1c-0.2-0.5-0.3-1.2-0.3-2v-4.7h1.1v4.7c0,0.7,0.1,1.2,0.2,1.6s0.4,0.6,0.7,0.8c0.3,0.2,0.7,0.3,1.2,0.3
				c0.8,0,1.4-0.2,1.7-0.5s0.5-1.1,0.5-2.1V-210.6z"/>
		</g>
		
			<path fill-rule="evenodd" clip-rule="evenodd" fill="#004000" stroke="#004000" stroke-width="2.2835" stroke-linecap="square" stroke-miterlimit="10" d="
			M168.1-273.3c0-1.5,1.2-2.7,2.7-2.7s2.7,1.2,2.7,2.7s-1.2,2.7-2.7,2.7S168.1-271.7,168.1-273.3L168.1-273.3z"/>
		
			<line fill="none" stroke="#004000" stroke-width="2.2835" stroke-linecap="square" stroke-miterlimit="10" x1="170.9" y1="-122.5" x2="170.9" y2="-108.8"/>
		
			<line fill="none" stroke="#004000" stroke-width="2.2835" stroke-linecap="square" stroke-miterlimit="10" x1="157.2" y1="-108.8" x2="184.5" y2="-108.8"/>
		
			<line fill="none" stroke="#004000" stroke-width="2.2835" stroke-linecap="square" stroke-miterlimit="10" x1="164" y1="-102" x2="177.7" y2="-102"/>
		
			<line fill="none" stroke="#004000" stroke-width="2.2835" stroke-linecap="square" stroke-miterlimit="10" x1="169.5" y1="-95.1" x2="172.2" y2="-95.1"/>
		
			<line fill="none" stroke="#004000" stroke-width="2.2835" stroke-linecap="square" stroke-miterlimit="10" x1="239.3" y1="-122.5" x2="239.3" y2="-108.8"/>
		
			<line fill="none" stroke="#004000" stroke-width="2.2835" stroke-linecap="square" stroke-miterlimit="10" x1="225.6" y1="-108.8" x2="253" y2="-108.8"/>
		
			<line fill="none" stroke="#004000" stroke-width="2.2835" stroke-linecap="square" stroke-miterlimit="10" x1="232.4" y1="-102" x2="246.1" y2="-102"/>
		
			<line fill="none" stroke="#004000" stroke-width="2.2835" stroke-linecap="square" stroke-miterlimit="10" x1="237.9" y1="-95.1" x2="240.7" y2="-95.1"/>
		<polyline fill="none" stroke="#800000" stroke-width="2.2835" stroke-linecap="square" stroke-miterlimit="10" points="
			47.7,-245.9 50.4,-245.9 52.7,-244.9 57.3,-243.6 59.1,-242.2 60,-241.3 60.9,-239.9 61.4,-239 		"/>
		<polyline fill="none" stroke="#800000" stroke-width="2.2835" stroke-linecap="square" stroke-miterlimit="10" points="
			47.7,-232.2 52.7,-232.6 57.3,-234 59.1,-234.9 60,-236.3 60.9,-237.6 61.4,-239 		"/>
		<polyline fill="none" stroke="#800000" stroke-width="2.2835" stroke-linecap="square" stroke-miterlimit="10" points="
			47.7,-232.2 50.4,-232.2 52.7,-231.2 57.3,-229.9 59.1,-228.5 60,-227.6 60.9,-226.2 61.4,-225.3 		"/>
		<polyline fill="none" stroke="#800000" stroke-width="2.2835" stroke-linecap="square" stroke-miterlimit="10" points="
			47.7,-218.5 52.7,-218.9 57.3,-220.3 59.1,-221.2 60,-222.6 60.9,-223.9 61.4,-225.3 		"/>
		<polyline fill="none" stroke="#800000" stroke-width="2.2835" stroke-linecap="square" stroke-miterlimit="10" points="
			47.7,-218.5 52.7,-218 57.3,-216.6 59.1,-215.7 60,-214.3 60.9,-213 61.4,-211.6 		"/>
		<polyline fill="none" stroke="#800000" stroke-width="2.2835" stroke-linecap="square" stroke-miterlimit="10" points="
			47.7,-204.7 50.4,-204.7 52.7,-205.7 57.3,-207 59.1,-208.4 60,-209.3 60.9,-210.7 61.4,-211.6 		"/>
		<polyline fill="none" stroke="#800000" stroke-width="2.2835" stroke-linecap="square" stroke-miterlimit="10" points="
			47.7,-204.7 52.7,-204.3 57.3,-202.9 59.1,-202 60,-200.6 60.9,-199.3 61.4,-197.9 		"/>
		<polyline fill="none" stroke="#800000" stroke-width="2.2835" stroke-linecap="square" stroke-miterlimit="10" points="47.7,-191 
			50.4,-191 52.7,-192 57.3,-193.3 59.1,-194.7 60,-195.6 60.9,-197 61.4,-197.9 		"/>
		
			<line fill="none" stroke="#800000" stroke-width="2.2835" stroke-linecap="square" stroke-miterlimit="10" x1="47.7" y1="-259.6" x2="47.7" y2="-245.9"/>
		
			<line fill="none" stroke="#800000" stroke-width="2.2835" stroke-linecap="square" stroke-miterlimit="10" x1="47.7" y1="-177.3" x2="47.7" y2="-191"/>
		<g>
			<path d="M70.4-231.2v-12.1H72v10.7h6v1.4H70.4z"/>
			<path d="M84.6-231.2h-1.5v-9.5c-0.4,0.3-0.8,0.7-1.4,1c-0.6,0.3-1.1,0.6-1.6,0.8v-1.4c0.8-0.4,1.6-0.9,2.2-1.4s1.1-1.1,1.3-1.6h1
				V-231.2z"/>
		</g>
		<g>
			<path d="M69.6-218.3l1.1-0.1c0.1,0.5,0.3,0.9,0.5,1.2c0.3,0.3,0.6,0.4,1,0.4c0.5,0,0.9-0.2,1.2-0.5s0.5-0.8,0.5-1.4
				c0-0.6-0.2-1-0.5-1.4c-0.3-0.3-0.7-0.5-1.3-0.5c-0.3,0-0.6,0.1-0.9,0.2c-0.3,0.1-0.5,0.3-0.6,0.6l-0.9-0.1l0.8-4.2h4.1v1h-3.3
				l-0.4,2.2c0.5-0.3,1-0.5,1.5-0.5c0.7,0,1.3,0.2,1.8,0.7s0.7,1.1,0.7,1.9c0,0.7-0.2,1.4-0.6,1.9c-0.5,0.7-1.2,1-2.1,1
				c-0.7,0-1.3-0.2-1.8-0.6C69.9-217.1,69.7-217.6,69.6-218.3z"/>
			<path d="M76-220.2c0-1,0.1-1.7,0.3-2.3c0.2-0.6,0.5-1,0.9-1.4c0.4-0.3,0.9-0.5,1.5-0.5c0.4,0,0.8,0.1,1.2,0.3
				c0.3,0.2,0.6,0.4,0.8,0.8c0.2,0.3,0.4,0.7,0.5,1.2c0.1,0.5,0.2,1.1,0.2,1.9c0,1-0.1,1.7-0.3,2.3c-0.2,0.6-0.5,1-0.9,1.4
				s-0.9,0.5-1.5,0.5c-0.8,0-1.4-0.3-1.9-0.8C76.2-217.6,76-218.7,76-220.2z M77-220.2c0,1.3,0.2,2.2,0.5,2.7
				c0.3,0.4,0.7,0.7,1.2,0.7c0.5,0,0.8-0.2,1.2-0.7c0.3-0.4,0.5-1.3,0.5-2.7c0-1.3-0.2-2.2-0.5-2.7c-0.3-0.4-0.7-0.7-1.2-0.7
				c-0.5,0-0.8,0.2-1.1,0.6C77.2-222.5,77-221.5,77-220.2z"/>
			<path d="M82.4-220.2c0-1,0.1-1.7,0.3-2.3c0.2-0.6,0.5-1,0.9-1.4c0.4-0.3,0.9-0.5,1.5-0.5c0.4,0,0.8,0.1,1.2,0.3
				c0.3,0.2,0.6,0.4,0.8,0.8c0.2,0.3,0.4,0.7,0.5,1.2c0.1,0.5,0.2,1.1,0.2,1.9c0,1-0.1,1.7-0.3,2.3c-0.2,0.6-0.5,1-0.9,1.4
				S85.6-216,85-216c-0.8,0-1.4-0.3-1.9-0.8C82.6-217.6,82.4-218.7,82.4-220.2z M83.4-220.2c0,1.3,0.2,2.2,0.5,2.7
				c0.3,0.4,0.7,0.7,1.2,0.7c0.5,0,0.8-0.2,1.2-0.7c0.3-0.4,0.5-1.3,0.5-2.7c0-1.3-0.2-2.2-0.5-2.7c-0.3-0.4-0.7-0.7-1.2-0.7
				c-0.5,0-0.8,0.2-1.1,0.6C83.6-222.5,83.4-221.5,83.4-220.2z"/>
			<path d="M88.7-220.2c0-1,0.1-1.7,0.3-2.3c0.2-0.6,0.5-1,0.9-1.4c0.4-0.3,0.9-0.5,1.5-0.5c0.4,0,0.8,0.1,1.2,0.3
				c0.3,0.2,0.6,0.4,0.8,0.8c0.2,0.3,0.4,0.7,0.5,1.2c0.1,0.5,0.2,1.1,0.2,1.9c0,1-0.1,1.7-0.3,2.3c-0.2,0.6-0.5,1-0.9,1.4
				S92-216,91.4-216c-0.8,0-1.4-0.3-1.9-0.8C89-217.6,88.7-218.7,88.7-220.2z M89.8-220.2c0,1.3,0.2,2.2,0.5,2.7
				c0.3,0.4,0.7,0.7,1.2,0.7c0.5,0,0.8-0.2,1.2-0.7c0.3-0.4,0.5-1.3,0.5-2.7c0-1.3-0.2-2.2-0.5-2.7c-0.3-0.4-0.7-0.7-1.2-0.7
				c-0.5,0-0.8,0.2-1.1,0.6C89.9-222.5,89.8-221.5,89.8-220.2z"/>
			<path d="M95.1-220.2c0-1,0.1-1.7,0.3-2.3c0.2-0.6,0.5-1,0.9-1.4c0.4-0.3,0.9-0.5,1.5-0.5c0.4,0,0.8,0.1,1.2,0.3
				c0.3,0.2,0.6,0.4,0.8,0.8c0.2,0.3,0.4,0.7,0.5,1.2c0.1,0.5,0.2,1.1,0.2,1.9c0,1-0.1,1.7-0.3,2.3c-0.2,0.6-0.5,1-0.9,1.4
				s-0.9,0.5-1.5,0.5c-0.8,0-1.4-0.3-1.9-0.8C95.4-217.6,95.1-218.7,95.1-220.2z M96.1-220.2c0,1.3,0.2,2.2,0.5,2.7
				c0.3,0.4,0.7,0.7,1.2,0.7c0.5,0,0.8-0.2,1.2-0.7c0.3-0.4,0.5-1.3,0.5-2.7c0-1.3-0.2-2.2-0.5-2.7c-0.3-0.4-0.7-0.7-1.2-0.7
				c-0.5,0-0.8,0.2-1.1,0.6C96.3-222.5,96.1-221.5,96.1-220.2z"/>
			<path d="M105.2-216.2v-0.9c-0.5,0.7-1.1,1-1.9,1c-0.3,0-0.7-0.1-1-0.2s-0.5-0.3-0.7-0.5s-0.2-0.5-0.3-0.7c0-0.2-0.1-0.5-0.1-0.9
				v-3.7h1v3.3c0,0.5,0,0.9,0.1,1.1c0.1,0.3,0.2,0.5,0.4,0.6s0.5,0.2,0.8,0.2s0.6-0.1,0.8-0.2c0.3-0.2,0.5-0.4,0.6-0.6
				c0.1-0.3,0.2-0.7,0.2-1.2v-3.2h1v5.9H105.2z"/>
		</g>
		
			<path fill-rule="evenodd" clip-rule="evenodd" fill="#004000" stroke="#004000" stroke-width="2.2835" stroke-linecap="square" stroke-miterlimit="10" d="
			M44.9-273.3c0-1.5,1.2-2.7,2.7-2.7s2.7,1.2,2.7,2.7s-1.2,2.7-2.7,2.7S44.9-271.7,44.9-273.3L44.9-273.3z"/>
		
			<line fill="none" stroke="#004000" stroke-width="2.2835" stroke-linecap="square" stroke-miterlimit="10" x1="47.7" y1="-95.1" x2="47.7" y2="-81.4"/>
		
			<line fill="none" stroke="#004000" stroke-width="2.2835" stroke-linecap="square" stroke-miterlimit="10" x1="34" y1="-81.4" x2="61.4" y2="-81.4"/>
		
			<line fill="none" stroke="#004000" stroke-width="2.2835" stroke-linecap="square" stroke-miterlimit="10" x1="40.8" y1="-74.6" x2="54.5" y2="-74.6"/>
		
			<line fill="none" stroke="#004000" stroke-width="2.2835" stroke-linecap="square" stroke-miterlimit="10" x1="46.3" y1="-67.7" x2="49.1" y2="-67.7"/>
		<polygon fill="none" stroke="#0000C0" stroke-width="0.9134" stroke-linecap="square" stroke-miterlimit="10" points="
			-287.6,-280.1 -301.3,-287 -294.5,-293.8 -287.6,-280.1 		"/>
		
			<line fill="none" stroke="#0000C0" stroke-width="0.9134" stroke-linecap="square" stroke-miterlimit="10" x1="-280.8" y1="-273.3" x2="-287.6" y2="-280.1"/>
		
			<line fill="none" stroke="#0000C0" stroke-width="0.9134" stroke-linecap="square" stroke-miterlimit="10" x1="-280.8" y1="-285.6" x2="-278" y2="-285.6"/>
		
			<line fill="none" stroke="#0000C0" stroke-width="0.9134" stroke-linecap="square" stroke-miterlimit="10" x1="-275.3" y1="-285.6" x2="-272.6" y2="-285.6"/>
		
			<line fill="none" stroke="#0000C0" stroke-width="0.9134" stroke-linecap="square" stroke-miterlimit="10" x1="-269.8" y1="-285.6" x2="-267.1" y2="-285.6"/>
		
			<line fill="none" stroke="#0000C0" stroke-width="0.9134" stroke-linecap="square" stroke-miterlimit="10" x1="-264.4" y1="-285.6" x2="-261.6" y2="-285.6"/>
		
			<line fill="none" stroke="#0000C0" stroke-width="0.9134" stroke-linecap="square" stroke-miterlimit="10" x1="-280.8" y1="-281.5" x2="-256.1" y2="-281.5"/>
		
			<line fill="none" stroke="#0000C0" stroke-width="0.9134" stroke-linecap="square" stroke-miterlimit="10" x1="-258.9" y1="-285.6" x2="-256.1" y2="-285.6"/>
		<g>
			<path fill="#0000C0" d="M-318.2-290.2l-3.2-8.2h1.2l2.1,5.9c0.2,0.5,0.3,0.9,0.4,1.3c0.1-0.4,0.3-0.9,0.4-1.3l2.2-5.9h1.1
				l-3.2,8.2H-318.2z"/>
			<path fill="#0000C0" d="M-313.3-297.2v-1.2h1v1.2H-313.3z M-313.3-290.2v-5.9h1v5.9H-313.3z"/>
			<path fill="#0000C0" d="M-311-290.2v-5.9h0.9v0.8c0.4-0.7,1.1-1,1.9-1c0.4,0,0.7,0.1,1,0.2c0.3,0.1,0.5,0.3,0.7,0.5
				s0.3,0.5,0.3,0.7c0,0.2,0.1,0.5,0.1,1v3.6h-1v-3.6c0-0.4,0-0.7-0.1-0.9c-0.1-0.2-0.2-0.4-0.4-0.5s-0.4-0.2-0.7-0.2
				c-0.4,0-0.8,0.1-1.1,0.4c-0.3,0.3-0.5,0.8-0.5,1.5v3.2H-311z"/>
		</g>
		
			<path fill-rule="evenodd" clip-rule="evenodd" fill="#004000" stroke="#004000" stroke-width="2.2835" stroke-linecap="square" stroke-miterlimit="10" d="
			M-9.8,0.8C-9.8-0.8-8.6-2-7.1-2s2.7,1.2,2.7,2.7c0,1.5-1.2,2.7-2.7,2.7S-9.8,2.3-9.8,0.8L-9.8,0.8z"/>
		
			<path fill-rule="evenodd" clip-rule="evenodd" fill="#004000" stroke="#004000" stroke-width="2.2835" stroke-linecap="square" stroke-miterlimit="10" d="
			M-9.8,14.5c0-1.5,1.2-2.7,2.7-2.7s2.7,1.2,2.7,2.7c0,1.5-1.2,2.7-2.7,2.7S-9.8,16-9.8,14.5L-9.8,14.5z"/>
		
			<line fill="none" stroke="#800000" stroke-width="2.2835" stroke-linecap="square" stroke-miterlimit="10" x1="-20.7" y1="-214.3" x2="-48.1" y2="-214.3"/>
		
			<line fill="none" stroke="#800000" stroke-width="2.2835" stroke-linecap="square" stroke-miterlimit="10" x1="-20.7" y1="-222.6" x2="-48.1" y2="-222.6"/>
		
			<line fill="none" stroke="#800000" stroke-width="2.2835" stroke-linecap="square" stroke-miterlimit="10" x1="-34.4" y1="-222.6" x2="-34.4" y2="-232.2"/>
		
			<line fill="none" stroke="#800000" stroke-width="2.2835" stroke-linecap="square" stroke-miterlimit="10" x1="-34.4" y1="-214.3" x2="-34.4" y2="-204.7"/>
		
			<line fill="none" stroke="#800000" stroke-width="2.2835" stroke-linecap="square" stroke-miterlimit="10" x1="-34.4" y1="-191" x2="-34.4" y2="-204.7"/>
		
			<line fill="none" stroke="#800000" stroke-width="2.2835" stroke-linecap="square" stroke-miterlimit="10" x1="-34.4" y1="-245.9" x2="-34.4" y2="-232.2"/>
		<g>
			<path d="M-3.1-221.8l1.6,0.4c-0.3,1.3-0.9,2.3-1.8,3s-1.9,1-3.2,1c-1.3,0-2.4-0.3-3.2-0.8c-0.8-0.5-1.4-1.3-1.9-2.3
				c-0.4-1-0.6-2.1-0.6-3.2c0-1.3,0.2-2.4,0.7-3.3c0.5-0.9,1.2-1.7,2.1-2.1c0.9-0.5,1.9-0.7,2.9-0.7c1.2,0,2.2,0.3,3,0.9
				c0.8,0.6,1.4,1.5,1.7,2.6l-1.6,0.4c-0.3-0.9-0.7-1.5-1.2-1.9c-0.5-0.4-1.2-0.6-2-0.6c-0.9,0-1.7,0.2-2.3,0.7
				c-0.6,0.4-1.1,1-1.3,1.8c-0.3,0.8-0.4,1.5-0.4,2.3c0,1,0.1,1.9,0.4,2.7c0.3,0.8,0.8,1.3,1.4,1.7c0.6,0.4,1.3,0.6,2.1,0.6
				c0.9,0,1.7-0.3,2.3-0.8S-3.3-220.8-3.1-221.8z"/>
			<path d="M7.8-219v1.4h-8c0-0.4,0-0.7,0.2-1c0.2-0.5,0.5-1.1,1-1.6c0.4-0.5,1.1-1.1,1.9-1.8c1.3-1.1,2.2-1.9,2.7-2.6
				c0.5-0.6,0.7-1.2,0.7-1.8c0-0.6-0.2-1.1-0.6-1.5c-0.4-0.4-1-0.6-1.6-0.6c-0.7,0-1.3,0.2-1.7,0.6c-0.4,0.4-0.6,1-0.7,1.8l-1.5-0.2
				c0.1-1.1,0.5-2,1.2-2.6c0.7-0.6,1.6-0.9,2.7-0.9c1.2,0,2.1,0.3,2.8,1s1,1.4,1,2.4c0,0.5-0.1,1-0.3,1.4c-0.2,0.5-0.5,1-1,1.5
				s-1.2,1.2-2.3,2.1c-0.9,0.7-1.5,1.3-1.7,1.5c-0.3,0.3-0.5,0.5-0.6,0.8H7.8z"/>
		</g>
		<g>
			<path d="M-8.7-202.5h-1v-6.4c-0.2,0.2-0.6,0.5-1,0.7s-0.7,0.4-1.1,0.5v-1c0.6-0.3,1-0.6,1.5-1c0.4-0.4,0.7-0.7,0.9-1.1h0.6
				V-202.5z"/>
			<path d="M-2-202.5v-0.9c-0.5,0.7-1.1,1-1.9,1c-0.3,0-0.7-0.1-1-0.2s-0.5-0.3-0.7-0.5s-0.2-0.5-0.3-0.7c0-0.2-0.1-0.5-0.1-0.9
				v-3.7h1v3.3c0,0.5,0,0.9,0.1,1.1c0.1,0.3,0.2,0.5,0.4,0.6s0.5,0.2,0.8,0.2s0.6-0.1,0.8-0.2c0.3-0.2,0.5-0.4,0.6-0.6
				c0.1-0.3,0.2-0.7,0.2-1.2v-3.2h1v5.9H-2z"/>
			<path d="M0.7-202.5v-8.2h5.5v1H1.8v2.5h3.8v1H1.8v3.7H0.7z"/>
		</g>
		
			<path fill-rule="evenodd" clip-rule="evenodd" fill="#004000" stroke="#004000" stroke-width="2.2835" stroke-linecap="square" stroke-miterlimit="10" d="
			M-37.2-273.3c0-1.5,1.2-2.7,2.7-2.7s2.7,1.2,2.7,2.7s-1.2,2.7-2.7,2.7S-37.2-271.7-37.2-273.3L-37.2-273.3z"/>
		
			<path fill-rule="evenodd" clip-rule="evenodd" fill="#004000" stroke="#004000" stroke-width="2.2835" stroke-linecap="square" stroke-miterlimit="10" d="
			M-37.2-81.4c0-1.5,1.2-2.7,2.7-2.7s2.7,1.2,2.7,2.7c0,1.5-1.2,2.7-2.7,2.7S-37.2-79.9-37.2-81.4L-37.2-81.4z"/>
		
			<line fill="none" stroke="#004000" stroke-width="2.2835" stroke-linecap="square" stroke-miterlimit="10" x1="-143.9" y1="96.7" x2="-143.9" y2="110.4"/>
		
			<line fill="none" stroke="#004000" stroke-width="2.2835" stroke-linecap="square" stroke-miterlimit="10" x1="-157.6" y1="110.4" x2="-130.2" y2="110.4"/>
		
			<line fill="none" stroke="#004000" stroke-width="2.2835" stroke-linecap="square" stroke-miterlimit="10" x1="-150.8" y1="117.2" x2="-137.1" y2="117.2"/>
		
			<line fill="none" stroke="#004000" stroke-width="2.2835" stroke-linecap="square" stroke-miterlimit="10" x1="-145.3" y1="124.1" x2="-142.6" y2="124.1"/>
		<polygon fill="none" stroke="#0000C0" stroke-width="0.9134" stroke-linecap="square" stroke-miterlimit="10" points="
			-301.3,-19.8 -315,-26.6 -308.2,-33.5 -301.3,-19.8 		"/>
		
			<line fill="none" stroke="#0000C0" stroke-width="0.9134" stroke-linecap="square" stroke-miterlimit="10" x1="-294.5" y1="-12.9" x2="-301.3" y2="-19.8"/>
		
			<line fill="none" stroke="#0000C0" stroke-width="0.9134" stroke-linecap="square" stroke-miterlimit="10" x1="-294.5" y1="-18.4" x2="-291.7" y2="-18.4"/>
		
			<line fill="none" stroke="#0000C0" stroke-width="0.9134" stroke-linecap="square" stroke-miterlimit="10" x1="-291.7" y1="-18.4" x2="-289" y2="-32.1"/>
		
			<line fill="none" stroke="#0000C0" stroke-width="0.9134" stroke-linecap="square" stroke-miterlimit="10" x1="-289" y1="-32.1" x2="-275.3" y2="-32.1"/>
		
			<line fill="none" stroke="#0000C0" stroke-width="0.9134" stroke-linecap="square" stroke-miterlimit="10" x1="-275.3" y1="-32.1" x2="-272.6" y2="-18.4"/>
		
			<line fill="none" stroke="#0000C0" stroke-width="0.9134" stroke-linecap="square" stroke-miterlimit="10" x1="-272.6" y1="-18.4" x2="-269.8" y2="-18.4"/>
		<g>
			<path fill="#0000C0" d="M-354.4-38h1.1v4.7c0,0.8-0.1,1.5-0.3,2s-0.5,0.9-1,1.2c-0.5,0.3-1.1,0.5-1.9,0.5c-0.8,0-1.4-0.1-1.9-0.4
				c-0.5-0.3-0.8-0.6-1-1.1s-0.3-1.2-0.3-2V-38h1.1v4.7c0,0.7,0.1,1.2,0.2,1.6c0.1,0.3,0.4,0.6,0.7,0.8s0.7,0.3,1.2,0.3
				c0.8,0,1.4-0.2,1.7-0.5s0.5-1.1,0.5-2.1V-38z"/>
			<path fill="#0000C0" d="M-348.2-29.8h-1v-6.4c-0.2,0.2-0.6,0.5-0.9,0.7c-0.4,0.2-0.7,0.4-1.1,0.5v-1c0.6-0.3,1.1-0.6,1.5-1
				c0.4-0.4,0.7-0.7,0.9-1.1h0.6V-29.8z"/>
			<path fill="#0000C0" d="M-343.4-27.4c-0.6-0.7-1-1.5-1.4-2.5s-0.6-1.9-0.6-2.9c0-0.9,0.1-1.7,0.4-2.5c0.3-0.9,0.9-1.9,1.5-2.8
				h0.7c-0.4,0.8-0.7,1.3-0.9,1.7c-0.2,0.5-0.4,1-0.5,1.6c-0.2,0.7-0.2,1.4-0.2,2.1c0,1.8,0.6,3.6,1.7,5.4H-343.4z"/>
			<path fill="#0000C0" d="M-341.5-29.8V-38h1.1v3.4h4.2V-38h1.1v8.2h-1.1v-3.9h-4.2v3.9H-341.5z"/>
			<path fill="#0000C0" d="M-333.1-29.8V-38h1.1v8.2H-333.1z"/>
			<path fill="#0000C0" d="M-330.5-29.8V-38h1.1l4.3,6.4V-38h1v8.2h-1.1l-4.3-6.4v6.4H-330.5z"/>
			<path fill="#0000C0" d="M-321.8-27.4h-0.7c1.1-1.8,1.7-3.6,1.7-5.4c0-0.7-0.1-1.4-0.2-2.1c-0.1-0.6-0.3-1.1-0.5-1.6
				c-0.1-0.3-0.4-0.9-0.9-1.7h0.7c0.7,0.9,1.2,1.9,1.5,2.8c0.3,0.8,0.4,1.7,0.4,2.5c0,1-0.2,2-0.6,2.9S-321.2-28.1-321.8-27.4z"/>
		</g>
		<polygon fill="none" stroke="#0000C0" stroke-width="0.9134" stroke-linecap="square" stroke-miterlimit="10" points="
			328.2,-293.8 314.6,-287 321.4,-280.1 328.2,-293.8 		"/>
		
			<line fill="none" stroke="#0000C0" stroke-width="0.9134" stroke-linecap="square" stroke-miterlimit="10" x1="317.3" y1="-282.8" x2="307.7" y2="-273.3"/>
		<g>
			<path fill="#0000C0" d="M338.3-290.2l-3.2-8.2h1.2l2.1,5.9c0.2,0.5,0.3,0.9,0.4,1.3c0.1-0.4,0.3-0.9,0.4-1.3l2.2-5.9h1.1
				l-3.2,8.2H338.3z"/>
			<path fill="#0000C0" d="M342.8-293.1c0-1.1,0.3-1.9,0.9-2.4c0.5-0.4,1.1-0.7,1.9-0.7c0.8,0,1.5,0.3,2,0.8s0.8,1.3,0.8,2.2
				c0,0.8-0.1,1.4-0.3,1.8c-0.2,0.4-0.6,0.8-1,1c-0.4,0.2-0.9,0.4-1.4,0.4c-0.8,0-1.5-0.3-2-0.8C343-291.4,342.8-292.1,342.8-293.1z
				 M343.8-293.1c0,0.8,0.2,1.3,0.5,1.7c0.3,0.4,0.7,0.6,1.2,0.6c0.5,0,0.9-0.2,1.2-0.6c0.3-0.4,0.5-1,0.5-1.7
				c0-0.7-0.2-1.3-0.5-1.7c-0.3-0.4-0.7-0.6-1.2-0.6c-0.5,0-0.9,0.2-1.2,0.6C344-294.4,343.8-293.9,343.8-293.1z"/>
			<path fill="#0000C0" d="M353.4-290.2v-0.9c-0.5,0.7-1.1,1-1.9,1c-0.3,0-0.7-0.1-1-0.2s-0.5-0.3-0.7-0.5s-0.2-0.5-0.3-0.7
				c0-0.2-0.1-0.5-0.1-0.9v-3.7h1v3.3c0,0.5,0,0.9,0.1,1.1c0.1,0.3,0.2,0.5,0.4,0.6s0.5,0.2,0.8,0.2s0.6-0.1,0.8-0.2
				c0.3-0.2,0.5-0.4,0.6-0.6c0.1-0.3,0.2-0.7,0.2-1.2v-3.2h1v5.9H353.4z"/>
			<path fill="#0000C0" d="M357.7-291.1l0.1,0.9c-0.3,0.1-0.5,0.1-0.8,0.1c-0.4,0-0.6-0.1-0.8-0.2s-0.3-0.3-0.4-0.5
				c-0.1-0.2-0.1-0.6-0.1-1.2v-3.4h-0.7v-0.8h0.7v-1.5l1-0.6v2.1h1v0.8h-1v3.5c0,0.3,0,0.5,0.1,0.6c0,0.1,0.1,0.1,0.2,0.2
				c0.1,0,0.2,0.1,0.3,0.1C357.3-291,357.5-291,357.7-291.1z"/>
		</g>
		
			<path fill-rule="evenodd" clip-rule="evenodd" fill="#004000" stroke="#004000" stroke-width="2.2835" stroke-linecap="square" stroke-miterlimit="10" d="
			M236.6-273.3c0-1.5,1.2-2.7,2.7-2.7s2.7,1.2,2.7,2.7s-1.2,2.7-2.7,2.7S236.6-271.7,236.6-273.3L236.6-273.3z"/>
		<polygon fill="none" stroke="#0000C0" stroke-width="0.9134" stroke-linecap="square" stroke-miterlimit="10" points="
			-205.5,-88.3 -219.2,-95.1 -212.4,-102 -205.5,-88.3 		"/>
		
			<line fill="none" stroke="#0000C0" stroke-width="0.9134" stroke-linecap="square" stroke-miterlimit="10" x1="-198.7" y1="-81.4" x2="-205.5" y2="-88.3"/>
		
			<line fill="none" stroke="#0000C0" stroke-width="0.9134" stroke-linecap="square" stroke-miterlimit="10" x1="-198.7" y1="-93.8" x2="-195.9" y2="-93.8"/>
		
			<line fill="none" stroke="#0000C0" stroke-width="0.9134" stroke-linecap="square" stroke-miterlimit="10" x1="-193.2" y1="-93.8" x2="-190.5" y2="-93.8"/>
		
			<line fill="none" stroke="#0000C0" stroke-width="0.9134" stroke-linecap="square" stroke-miterlimit="10" x1="-187.7" y1="-93.8" x2="-185" y2="-93.8"/>
		
			<line fill="none" stroke="#0000C0" stroke-width="0.9134" stroke-linecap="square" stroke-miterlimit="10" x1="-182.2" y1="-93.8" x2="-179.5" y2="-93.8"/>
		
			<line fill="none" stroke="#0000C0" stroke-width="0.9134" stroke-linecap="square" stroke-miterlimit="10" x1="-198.7" y1="-89.7" x2="-174" y2="-89.7"/>
		
			<line fill="none" stroke="#0000C0" stroke-width="0.9134" stroke-linecap="square" stroke-miterlimit="10" x1="-176.8" y1="-93.8" x2="-174" y2="-93.8"/>
		<g>
			<path fill="#0000C0" d="M-243.8-98.3l-3.2-8.2h1.2l2.1,5.9c0.2,0.5,0.3,0.9,0.4,1.3c0.1-0.4,0.3-0.9,0.4-1.3l2.2-5.9h1.1
				l-3.2,8.2H-243.8z"/>
			<path fill="#0000C0" d="M-238.4-98.3v-8.2h2.8c0.6,0,1.1,0,1.5,0.1c0.5,0.1,0.9,0.3,1.2,0.6c0.4,0.4,0.8,0.8,1,1.4
				s0.3,1.2,0.3,1.9c0,0.6-0.1,1.2-0.2,1.6c-0.1,0.5-0.3,0.9-0.6,1.2c-0.2,0.3-0.5,0.6-0.7,0.7c-0.3,0.2-0.6,0.3-1,0.4
				c-0.4,0.1-0.8,0.1-1.3,0.1H-238.4z M-237.3-99.3h1.7c0.5,0,1-0.1,1.3-0.2c0.3-0.1,0.6-0.2,0.7-0.4c0.3-0.3,0.5-0.6,0.6-1
				c0.1-0.4,0.2-1,0.2-1.6c0-0.9-0.1-1.5-0.4-2c-0.3-0.5-0.6-0.8-1-0.9c-0.3-0.1-0.8-0.2-1.4-0.2h-1.7V-99.3z"/>
			<path fill="#0000C0" d="M-230.6-98.3v-8.2h2.8c0.6,0,1.1,0,1.5,0.1c0.5,0.1,0.9,0.3,1.2,0.6c0.4,0.4,0.8,0.8,1,1.4
				s0.3,1.2,0.3,1.9c0,0.6-0.1,1.2-0.2,1.6c-0.1,0.5-0.3,0.9-0.6,1.2c-0.2,0.3-0.5,0.6-0.7,0.7c-0.3,0.2-0.6,0.3-1,0.4
				c-0.4,0.1-0.8,0.1-1.3,0.1H-230.6z M-229.5-99.3h1.7c0.5,0,1-0.1,1.3-0.2c0.3-0.1,0.6-0.2,0.7-0.4c0.3-0.3,0.5-0.6,0.6-1
				c0.1-0.4,0.2-1,0.2-1.6c0-0.9-0.1-1.5-0.4-2c-0.3-0.5-0.6-0.8-1-0.9c-0.3-0.1-0.8-0.2-1.4-0.2h-1.7V-99.3z"/>
		</g>
		
			<path fill-rule="evenodd" clip-rule="evenodd" fill="#004000" stroke="#004000" stroke-width="2.2835" stroke-linecap="square" stroke-miterlimit="10" d="
			M-146.7-81.4c0-1.5,1.2-2.7,2.7-2.7s2.7,1.2,2.7,2.7c0,1.5-1.2,2.7-2.7,2.7S-146.7-79.9-146.7-81.4L-146.7-81.4z"/>
		<polygon fill="none" stroke="#0000C0" stroke-width="0.9134" stroke-linecap="square" stroke-miterlimit="10" points="
			68.2,-115.7 61.4,-129.4 54.5,-122.5 68.2,-115.7 		"/>
		<path fill="none" stroke="#0000C0" stroke-width="0.9134" stroke-linecap="square" stroke-miterlimit="10" d="M53.2-143.1
			c0-5.3,4.3-9.6,9.6-9.6s9.6,4.3,9.6,9.6c0,5.3-4.3,9.6-9.6,9.6S53.2-137.8,53.2-143.1L53.2-143.1z"/>
		
			<line fill="none" stroke="#0000C0" stroke-width="0.9134" stroke-linecap="square" stroke-miterlimit="10" x1="66.8" y1="-140.4" x2="62.7" y2="-136.2"/>
		
			<line fill="none" stroke="#0000C0" stroke-width="0.9134" stroke-linecap="square" stroke-miterlimit="10" x1="62.7" y1="-136.2" x2="58.6" y2="-140.4"/>
		
			<line fill="none" stroke="#0000C0" stroke-width="0.9134" stroke-linecap="square" stroke-miterlimit="10" x1="57.3" y1="-126.7" x2="47.7" y2="-136.2"/>
		
			<line fill="none" stroke="#0000C0" stroke-width="0.9134" stroke-linecap="square" stroke-miterlimit="10" x1="62.7" y1="-149.9" x2="62.7" y2="-136.2"/>
		<g>
			<path fill="#0000C0" d="M64.9-100.9h-1.2v-1h1.2V-100.9z M71.9-100.9h-5.9v-1h5.9V-100.9z"/>
		</g>
		<g>
			<path fill="#0000C0" d="M71.9-103.3h-8.2v-1.1h7.2v-4h1V-103.3z"/>
		</g>
		<polygon fill="none" stroke="#0000C0" stroke-width="0.9134" stroke-linecap="square" stroke-miterlimit="10" points="
			-232.9,-33.5 -246.6,-26.6 -239.7,-19.8 -232.9,-33.5 		"/>
		
			<line fill="none" stroke="#0000C0" stroke-width="0.9134" stroke-linecap="square" stroke-miterlimit="10" x1="-243.8" y1="-22.5" x2="-253.4" y2="-12.9"/>
		<g>
			<path fill="#0000C0" d="M-221.4-29.8v-0.7c-0.4,0.6-0.9,0.9-1.7,0.9c-0.5,0-0.9-0.1-1.3-0.4c-0.4-0.3-0.7-0.6-0.9-1.1
				c-0.2-0.5-0.3-1-0.3-1.6c0-0.6,0.1-1.1,0.3-1.6c0.2-0.5,0.5-0.8,0.9-1.1c0.4-0.3,0.8-0.4,1.3-0.4c0.4,0,0.7,0.1,1,0.2
				c0.3,0.2,0.5,0.3,0.7,0.6V-38h1v8.2H-221.4z M-224.6-32.8c0,0.8,0.2,1.3,0.5,1.7c0.3,0.4,0.7,0.6,1.1,0.6c0.4,0,0.8-0.2,1.1-0.5
				c0.3-0.4,0.5-0.9,0.5-1.6c0-0.8-0.2-1.4-0.5-1.8s-0.7-0.6-1.2-0.6c-0.4,0-0.8,0.2-1.1,0.5S-224.6-33.6-224.6-32.8z"/>
			<path fill="#0000C0" d="M-215-29.8v-0.9c-0.5,0.7-1.1,1-1.9,1c-0.3,0-0.7-0.1-1-0.2c-0.3-0.1-0.5-0.3-0.7-0.5
				c-0.1-0.2-0.2-0.5-0.3-0.7c0-0.2-0.1-0.5-0.1-0.9v-3.7h1v3.3c0,0.5,0,0.9,0.1,1.1c0.1,0.3,0.2,0.5,0.4,0.6
				c0.2,0.2,0.5,0.2,0.8,0.2s0.6-0.1,0.8-0.2s0.5-0.4,0.6-0.6c0.1-0.3,0.2-0.7,0.2-1.2v-3.2h1v5.9H-215z"/>
			<path fill="#0000C0" d="M-210.3-30.7l0.1,0.9c-0.3,0.1-0.5,0.1-0.8,0.1c-0.4,0-0.6-0.1-0.8-0.2c-0.2-0.1-0.3-0.3-0.4-0.5
				s-0.1-0.6-0.1-1.2V-35h-0.7v-0.8h0.7v-1.5l1-0.6v2.1h1v0.8h-1v3.5c0,0.3,0,0.5,0.1,0.6s0.1,0.1,0.2,0.2c0.1,0,0.2,0.1,0.3,0.1
				C-210.7-30.7-210.5-30.7-210.3-30.7z"/>
			<path fill="#0000C0" d="M-209.4-27.6l-0.1-0.9c0.2,0.1,0.4,0.1,0.6,0.1c0.2,0,0.4,0,0.5-0.1s0.2-0.2,0.3-0.3
				c0.1-0.1,0.2-0.3,0.3-0.7c0-0.1,0-0.1,0.1-0.2l-2.2-5.9h1.1l1.2,3.4c0.2,0.4,0.3,0.9,0.4,1.4c0.1-0.5,0.3-0.9,0.4-1.3l1.3-3.5h1
				l-2.2,6c-0.2,0.7-0.4,1.1-0.6,1.3c-0.2,0.3-0.4,0.6-0.6,0.7c-0.2,0.2-0.5,0.2-0.8,0.2C-208.9-27.4-209.1-27.5-209.4-27.6z"/>
		</g>
		<polygon fill="none" stroke="#0000C0" stroke-width="0.9134" stroke-linecap="square" stroke-miterlimit="10" points="
			-41.3,-293.8 -55,-287 -48.1,-280.1 -41.3,-293.8 		"/>
		
			<line fill="none" stroke="#0000C0" stroke-width="0.9134" stroke-linecap="square" stroke-miterlimit="10" x1="-52.2" y1="-282.8" x2="-61.8" y2="-273.3"/>
		<g>
			<path fill="#0000C0" d="M-33.9-292.8l1-0.1c0,0.4,0.2,0.7,0.3,1c0.2,0.3,0.5,0.5,0.8,0.6c0.4,0.2,0.8,0.2,1.3,0.2
				c0.4,0,0.8-0.1,1.1-0.2s0.6-0.3,0.7-0.5c0.2-0.2,0.2-0.4,0.2-0.7c0-0.3-0.1-0.5-0.2-0.7s-0.4-0.4-0.7-0.5
				c-0.2-0.1-0.7-0.2-1.5-0.4s-1.3-0.4-1.6-0.5c-0.4-0.2-0.7-0.5-0.9-0.8c-0.2-0.3-0.3-0.6-0.3-1c0-0.4,0.1-0.8,0.4-1.2
				c0.2-0.4,0.6-0.6,1-0.8c0.4-0.2,0.9-0.3,1.5-0.3c0.6,0,1.1,0.1,1.6,0.3c0.5,0.2,0.8,0.5,1.1,0.9c0.2,0.4,0.4,0.8,0.4,1.3l-1,0.1
				c-0.1-0.5-0.2-0.9-0.6-1.2c-0.3-0.3-0.8-0.4-1.4-0.4c-0.7,0-1.1,0.1-1.4,0.4c-0.3,0.2-0.4,0.5-0.4,0.9c0,0.3,0.1,0.5,0.3,0.7
				c0.2,0.2,0.8,0.4,1.6,0.6c0.9,0.2,1.5,0.4,1.8,0.5c0.5,0.2,0.8,0.5,1.1,0.8s0.3,0.7,0.3,1.2c0,0.4-0.1,0.8-0.4,1.2
				c-0.2,0.4-0.6,0.7-1.1,0.9s-1,0.3-1.6,0.3c-0.7,0-1.4-0.1-1.9-0.3c-0.5-0.2-0.9-0.5-1.2-1C-33.8-291.7-33.9-292.2-33.9-292.8z"/>
		</g>
		
			<line fill="none" stroke="#800000" stroke-width="2.2835" stroke-linecap="square" stroke-miterlimit="10" x1="-201.4" y1="-197.9" x2="-194.6" y2="-211.6"/>
		
			<line fill="none" stroke="#800000" stroke-width="2.2835" stroke-linecap="square" stroke-miterlimit="10" x1="-194.6" y1="-211.6" x2="-187.7" y2="-197.9"/>
		
			<line fill="none" stroke="#800000" stroke-width="2.2835" stroke-linecap="square" stroke-miterlimit="10" x1="-187.7" y1="-197.9" x2="-180.9" y2="-211.6"/>
		
			<line fill="none" stroke="#800000" stroke-width="2.2835" stroke-linecap="square" stroke-miterlimit="10" x1="-180.9" y1="-211.6" x2="-174" y2="-197.9"/>
		
			<line fill="none" stroke="#800000" stroke-width="2.2835" stroke-linecap="square" stroke-miterlimit="10" x1="-201.4" y1="-197.9" x2="-208.2" y2="-211.6"/>
		
			<line fill="none" stroke="#800000" stroke-width="2.2835" stroke-linecap="square" stroke-miterlimit="10" x1="-208.2" y1="-211.6" x2="-212.4" y2="-204.7"/>
		
			<line fill="none" stroke="#800000" stroke-width="2.2835" stroke-linecap="square" stroke-miterlimit="10" x1="-174" y1="-197.9" x2="-171.3" y2="-204.7"/>
		
			<line fill="none" stroke="#800000" stroke-width="2.2835" stroke-linecap="square" stroke-miterlimit="10" x1="-226" y1="-204.7" x2="-212.4" y2="-204.7"/>
		
			<line fill="none" stroke="#800000" stroke-width="2.2835" stroke-linecap="square" stroke-miterlimit="10" x1="-157.6" y1="-204.7" x2="-171.3" y2="-204.7"/>
		<g>
			<path d="M-211.9-216.6v-12.1h5.4c1.1,0,1.9,0.1,2.5,0.3s1,0.6,1.3,1.2c0.3,0.5,0.5,1.2,0.5,1.8c0,0.9-0.3,1.6-0.8,2.2
				c-0.6,0.6-1.4,1-2.6,1.1c0.4,0.2,0.7,0.4,1,0.6c0.5,0.4,0.9,1,1.3,1.6l2.1,3.3h-2l-1.6-2.5c-0.5-0.7-0.9-1.3-1.2-1.7
				c-0.3-0.4-0.6-0.7-0.8-0.8c-0.2-0.2-0.5-0.3-0.7-0.3c-0.2,0-0.5-0.1-0.9-0.1h-1.9v5.4H-211.9z M-210.3-223.4h3.4
				c0.7,0,1.3-0.1,1.7-0.2s0.7-0.4,0.9-0.7c0.2-0.3,0.3-0.7,0.3-1.1c0-0.6-0.2-1-0.6-1.4c-0.4-0.4-1.1-0.6-2-0.6h-3.8V-223.4z"/>
			<path d="M-192.5-218.1v1.4h-8c0-0.4,0-0.7,0.2-1c0.2-0.5,0.5-1.1,1-1.6c0.4-0.5,1.1-1.1,1.9-1.8c1.3-1.1,2.2-1.9,2.7-2.6
				c0.5-0.6,0.7-1.2,0.7-1.8c0-0.6-0.2-1.1-0.6-1.5s-1-0.6-1.6-0.6c-0.7,0-1.3,0.2-1.7,0.6c-0.4,0.4-0.6,1-0.7,1.8l-1.5-0.2
				c0.1-1.1,0.5-2,1.2-2.6c0.7-0.6,1.6-0.9,2.7-0.9c1.2,0,2.1,0.3,2.8,1s1,1.4,1,2.4c0,0.5-0.1,1-0.3,1.4c-0.2,0.5-0.5,1-1,1.5
				s-1.2,1.2-2.3,2.1c-0.9,0.7-1.5,1.3-1.7,1.5c-0.3,0.3-0.5,0.5-0.6,0.8H-192.5z"/>
		</g>
		<g>
			<path d="M-209-186.9h-1v-6.4c-0.2,0.2-0.6,0.5-0.9,0.7c-0.4,0.2-0.7,0.4-1.1,0.5v-1c0.6-0.3,1.1-0.6,1.5-1
				c0.4-0.4,0.7-0.7,0.9-1.1h0.6V-186.9z"/>
			<path d="M-206.4-191c0-1,0.1-1.7,0.3-2.3c0.2-0.6,0.5-1,0.9-1.4c0.4-0.3,0.9-0.5,1.5-0.5c0.4,0,0.8,0.1,1.2,0.3
				c0.3,0.2,0.6,0.4,0.8,0.8s0.4,0.7,0.5,1.2s0.2,1.1,0.2,1.9c0,1-0.1,1.7-0.3,2.3c-0.2,0.6-0.5,1-0.9,1.4c-0.4,0.3-0.9,0.5-1.5,0.5
				c-0.8,0-1.4-0.3-1.9-0.8C-206.1-188.3-206.4-189.4-206.4-191z M-205.4-191c0,1.3,0.2,2.2,0.5,2.7c0.3,0.4,0.7,0.7,1.2,0.7
				s0.8-0.2,1.2-0.7c0.3-0.4,0.5-1.3,0.5-2.7c0-1.3-0.2-2.2-0.5-2.7c-0.3-0.4-0.7-0.7-1.2-0.7c-0.5,0-0.8,0.2-1.1,0.6
				C-205.2-193.2-205.4-192.3-205.4-191z"/>
			<path d="M-200-191c0-1,0.1-1.7,0.3-2.3c0.2-0.6,0.5-1,0.9-1.4c0.4-0.3,0.9-0.5,1.5-0.5c0.4,0,0.8,0.1,1.2,0.3
				c0.3,0.2,0.6,0.4,0.8,0.8s0.4,0.7,0.5,1.2s0.2,1.1,0.2,1.9c0,1-0.1,1.7-0.3,2.3c-0.2,0.6-0.5,1-0.9,1.4c-0.4,0.3-0.9,0.5-1.5,0.5
				c-0.8,0-1.4-0.3-1.9-0.8C-199.8-188.3-200-189.4-200-191z M-199-191c0,1.3,0.2,2.2,0.5,2.7c0.3,0.4,0.7,0.7,1.2,0.7
				s0.8-0.2,1.2-0.7c0.3-0.4,0.5-1.3,0.5-2.7c0-1.3-0.2-2.2-0.5-2.7c-0.3-0.4-0.7-0.7-1.2-0.7c-0.5,0-0.8,0.2-1.1,0.6
				C-198.8-193.2-199-192.3-199-191z"/>
			<path d="M-193.7-186.9v-8.2h3.6c0.7,0,1.3,0.1,1.7,0.2c0.4,0.1,0.7,0.4,0.9,0.8s0.3,0.8,0.3,1.2c0,0.6-0.2,1.1-0.6,1.5
				s-1,0.7-1.7,0.8c0.3,0.1,0.5,0.3,0.7,0.4c0.3,0.3,0.6,0.7,0.9,1.1l1.4,2.2h-1.4l-1.1-1.7c-0.3-0.5-0.6-0.9-0.8-1.1
				c-0.2-0.3-0.4-0.4-0.5-0.5s-0.3-0.2-0.5-0.2c-0.1,0-0.3,0-0.6,0h-1.3v3.6H-193.7z M-192.6-191.5h2.3c0.5,0,0.9-0.1,1.2-0.2
				c0.3-0.1,0.5-0.3,0.6-0.5c0.1-0.2,0.2-0.5,0.2-0.7c0-0.4-0.1-0.7-0.4-1s-0.7-0.4-1.3-0.4h-2.6V-191.5z"/>
		</g>
		
			<path fill-rule="evenodd" clip-rule="evenodd" fill="#004000" stroke="#004000" stroke-width="2.2835" stroke-linecap="square" stroke-miterlimit="10" d="
			M-310.9-204.7c0-1.5,1.2-2.7,2.7-2.7s2.7,1.2,2.7,2.7c0,1.5-1.2,2.7-2.7,2.7S-310.9-203.2-310.9-204.7L-310.9-204.7z"/>
		<polygon fill="none" stroke="#0000C0" stroke-width="0.9134" stroke-linecap="square" stroke-miterlimit="10" points="
			-246.6,-225.3 -260.3,-218.5 -253.4,-211.6 -246.6,-225.3 		"/>
		
			<line fill="none" stroke="#0000C0" stroke-width="0.9134" stroke-linecap="square" stroke-miterlimit="10" x1="-257.5" y1="-214.3" x2="-267.1" y2="-204.7"/>
		<g>
			<path fill="#0000C0" d="M-235-224.9v-1l3.5,0v3c-0.5,0.4-1.1,0.7-1.6,1s-1.1,0.3-1.7,0.3c-0.8,0-1.5-0.2-2.2-0.5
				s-1.1-0.8-1.5-1.5c-0.3-0.7-0.5-1.4-0.5-2.2c0-0.8,0.2-1.5,0.5-2.2c0.3-0.7,0.8-1.2,1.4-1.5c0.6-0.3,1.3-0.5,2.2-0.5
				c0.6,0,1.1,0.1,1.6,0.3s0.9,0.5,1.1,0.8c0.3,0.3,0.5,0.8,0.6,1.3l-1,0.3c-0.1-0.4-0.3-0.7-0.5-1c-0.2-0.2-0.4-0.4-0.8-0.6
				c-0.3-0.1-0.7-0.2-1.1-0.2c-0.5,0-0.9,0.1-1.3,0.2c-0.4,0.2-0.7,0.3-0.9,0.6c-0.2,0.2-0.4,0.5-0.5,0.8c-0.2,0.5-0.3,1.1-0.3,1.6
				c0,0.7,0.1,1.3,0.4,1.8s0.6,0.9,1.1,1.1s1,0.4,1.5,0.4c0.5,0,0.9-0.1,1.4-0.3c0.4-0.2,0.8-0.4,1-0.6v-1.5H-235z"/>
		</g>
		<polygon fill="none" stroke="#0000C0" stroke-width="0.9134" stroke-linecap="square" stroke-miterlimit="10" points="
			-13.9,-156.8 -27.6,-149.9 -20.7,-143.1 -13.9,-156.8 		"/>
		
			<line fill="none" stroke="#0000C0" stroke-width="0.9134" stroke-linecap="square" stroke-miterlimit="10" x1="-24.9" y1="-145.8" x2="-34.4" y2="-136.2"/>
		<g>
			<path fill="#0000C0" d="M-0.4-156l1.1,0.3c-0.2,0.9-0.6,1.6-1.2,2c-0.6,0.5-1.3,0.7-2.2,0.7c-0.9,0-1.6-0.2-2.1-0.5
				c-0.6-0.4-1-0.9-1.3-1.6c-0.3-0.7-0.4-1.4-0.4-2.2c0-0.9,0.2-1.6,0.5-2.2c0.3-0.6,0.8-1.1,1.4-1.4c0.6-0.3,1.3-0.5,2-0.5
				c0.8,0,1.5,0.2,2.1,0.6c0.6,0.4,0.9,1,1.2,1.8l-1.1,0.3c-0.2-0.6-0.5-1-0.8-1.3c-0.4-0.3-0.8-0.4-1.4-0.4c-0.6,0-1.2,0.2-1.6,0.5
				c-0.4,0.3-0.7,0.7-0.9,1.2c-0.2,0.5-0.3,1-0.3,1.6c0,0.7,0.1,1.3,0.3,1.8s0.5,0.9,0.9,1.2c0.4,0.3,0.9,0.4,1.4,0.4
				c0.6,0,1.1-0.2,1.5-0.5C-0.8-154.8-0.5-155.3-0.4-156z"/>
			<path fill="#0000C0" d="M6.9-154.1v1H1.5c0-0.2,0-0.5,0.1-0.7c0.1-0.4,0.4-0.7,0.7-1.1c0.3-0.4,0.7-0.8,1.3-1.2
				c0.9-0.7,1.5-1.3,1.8-1.7c0.3-0.4,0.5-0.8,0.5-1.2c0-0.4-0.1-0.7-0.4-1c-0.3-0.3-0.7-0.4-1.1-0.4c-0.5,0-0.9,0.1-1.2,0.4
				c-0.3,0.3-0.4,0.7-0.4,1.2l-1-0.1c0.1-0.8,0.3-1.4,0.8-1.8c0.5-0.4,1.1-0.6,1.9-0.6c0.8,0,1.4,0.2,1.9,0.7c0.5,0.4,0.7,1,0.7,1.6
				c0,0.3-0.1,0.6-0.2,1c-0.1,0.3-0.4,0.6-0.7,1c-0.3,0.3-0.8,0.8-1.5,1.4c-0.6,0.5-1,0.8-1.2,1c-0.2,0.2-0.3,0.4-0.4,0.5H6.9z"/>
			<path fill="#0000C0" d="M10.2-150.7c-0.6-0.7-1-1.5-1.4-2.5c-0.4-0.9-0.6-1.9-0.6-2.9c0-0.9,0.1-1.7,0.4-2.5
				c0.3-0.9,0.9-1.9,1.5-2.8h0.7c-0.4,0.8-0.7,1.3-0.9,1.7c-0.2,0.5-0.4,1-0.5,1.6c-0.2,0.7-0.2,1.4-0.2,2.1c0,1.8,0.6,3.6,1.7,5.4
				H10.2z"/>
			<path fill="#0000C0" d="M16.9-154.1v1h-5.4c0-0.2,0-0.5,0.1-0.7c0.1-0.4,0.4-0.7,0.7-1.1c0.3-0.4,0.7-0.8,1.3-1.2
				c0.9-0.7,1.5-1.3,1.8-1.7c0.3-0.4,0.5-0.8,0.5-1.2c0-0.4-0.1-0.7-0.4-1c-0.3-0.3-0.7-0.4-1.1-0.4c-0.5,0-0.9,0.1-1.2,0.4
				c-0.3,0.3-0.4,0.7-0.4,1.2l-1-0.1c0.1-0.8,0.3-1.4,0.8-1.8c0.5-0.4,1.1-0.6,1.9-0.6c0.8,0,1.4,0.2,1.9,0.7c0.5,0.4,0.7,1,0.7,1.6
				c0,0.3-0.1,0.6-0.2,1c-0.1,0.3-0.4,0.6-0.7,1c-0.3,0.3-0.8,0.8-1.5,1.4c-0.6,0.5-1,0.8-1.2,1c-0.2,0.2-0.3,0.4-0.4,0.5H16.9z"/>
			<path fill="#0000C0" d="M19-150.7h-0.7c1.1-1.8,1.7-3.6,1.7-5.4c0-0.7-0.1-1.4-0.2-2.1c-0.1-0.6-0.3-1.1-0.5-1.6
				c-0.1-0.3-0.4-0.9-0.9-1.7H19c0.7,0.9,1.2,1.9,1.5,2.8c0.3,0.8,0.4,1.7,0.4,2.5c0,1-0.2,2-0.6,2.9C20-152.3,19.5-151.4,19-150.7z
				"/>
		</g>
		<polygon fill="none" stroke="#0000C0" stroke-width="0.9134" stroke-linecap="square" stroke-miterlimit="10" points="
			259.8,-143.1 253,-156.8 246.1,-149.9 259.8,-143.1 		"/>
		<path fill="none" stroke="#0000C0" stroke-width="0.9134" stroke-linecap="square" stroke-miterlimit="10" d="M244.8-170.5
			c0-5.3,4.3-9.6,9.6-9.6s9.6,4.3,9.6,9.6c0,5.3-4.3,9.6-9.6,9.6S244.8-165.2,244.8-170.5L244.8-170.5z"/>
		
			<line fill="none" stroke="#0000C0" stroke-width="0.9134" stroke-linecap="square" stroke-miterlimit="10" x1="258.4" y1="-167.8" x2="254.3" y2="-163.6"/>
		
			<line fill="none" stroke="#0000C0" stroke-width="0.9134" stroke-linecap="square" stroke-miterlimit="10" x1="254.3" y1="-163.6" x2="250.2" y2="-167.8"/>
		
			<line fill="none" stroke="#0000C0" stroke-width="0.9134" stroke-linecap="square" stroke-miterlimit="10" x1="248.9" y1="-154.1" x2="239.3" y2="-163.6"/>
		
			<line fill="none" stroke="#0000C0" stroke-width="0.9134" stroke-linecap="square" stroke-miterlimit="10" x1="254.3" y1="-177.3" x2="254.3" y2="-163.6"/>
		<g>
			<path fill="#0000C0" d="M256.5-126.5h-1.2v-1h1.2V-126.5z M263.5-126.5h-5.9v-1h5.9V-126.5z"/>
		</g>
		<g>
			<path fill="#0000C0" d="M263.5-128.9h-8.2v-3.6c0-0.7,0.1-1.3,0.2-1.7c0.1-0.4,0.4-0.7,0.8-0.9c0.4-0.2,0.8-0.3,1.2-0.3
				c0.6,0,1.1,0.2,1.5,0.6s0.6,1,0.8,1.7c0.1-0.3,0.3-0.5,0.4-0.7c0.3-0.3,0.7-0.6,1.1-0.9l2.2-1.4v1.4l-1.7,1.1
				c-0.5,0.3-0.9,0.6-1.1,0.8s-0.4,0.4-0.5,0.5c-0.1,0.2-0.2,0.3-0.2,0.5c0,0.1,0,0.3,0,0.6v1.3h3.6V-128.9z M258.9-130v-2.3
				c0-0.5-0.1-0.9-0.2-1.2c-0.1-0.3-0.3-0.5-0.5-0.6c-0.2-0.1-0.5-0.2-0.7-0.2c-0.4,0-0.7,0.1-1,0.4c-0.2,0.3-0.4,0.7-0.4,1.3v2.6
				H258.9z"/>
		</g>
		<polygon fill="none" stroke="#0000C0" stroke-width="0.9134" stroke-linecap="square" stroke-miterlimit="10" points="
			54.5,-293.8 68.2,-287 61.4,-280.1 54.5,-293.8 		"/>
		<path fill="none" stroke="#0000C0" stroke-width="0.9134" stroke-linecap="square" stroke-miterlimit="10" d="M72.3-288.3
			c0-5.3,4.3-9.6,9.6-9.6s9.6,4.3,9.6,9.6c0,5.3-4.3,9.6-9.6,9.6S72.3-283,72.3-288.3L72.3-288.3z"/>
		
			<line fill="none" stroke="#0000C0" stroke-width="0.9134" stroke-linecap="square" stroke-miterlimit="10" x1="79.2" y1="-292.4" x2="75.1" y2="-288.3"/>
		
			<line fill="none" stroke="#0000C0" stroke-width="0.9134" stroke-linecap="square" stroke-miterlimit="10" x1="75.1" y1="-288.3" x2="79.2" y2="-284.2"/>
		
			<line fill="none" stroke="#0000C0" stroke-width="0.9134" stroke-linecap="square" stroke-miterlimit="10" x1="65.5" y1="-282.8" x2="75.1" y2="-273.3"/>
		
			<line fill="none" stroke="#0000C0" stroke-width="0.9134" stroke-linecap="square" stroke-miterlimit="10" x1="88.7" y1="-288.3" x2="75.1" y2="-288.3"/>
		<g>
			<path fill="#0000C0" d="M31.6-297.2v-1.2h1v1.2H31.6z M31.6-290.2v-5.9h1v5.9H31.6z"/>
			<path fill="#0000C0" d="M34.4-290.2v-8.2h2.8c0.6,0,1.1,0,1.5,0.1c0.5,0.1,0.9,0.3,1.2,0.6c0.4,0.4,0.8,0.8,1,1.4
				c0.2,0.6,0.3,1.2,0.3,1.9c0,0.6-0.1,1.2-0.2,1.6s-0.3,0.9-0.6,1.2s-0.5,0.6-0.7,0.7c-0.3,0.2-0.6,0.3-1,0.4
				c-0.4,0.1-0.8,0.1-1.3,0.1H34.4z M35.5-291.1h1.7c0.5,0,1-0.1,1.3-0.2c0.3-0.1,0.6-0.2,0.7-0.4c0.3-0.3,0.5-0.6,0.6-1
				c0.1-0.4,0.2-1,0.2-1.6c0-0.9-0.1-1.5-0.4-2c-0.3-0.5-0.6-0.8-1-0.9c-0.3-0.1-0.8-0.2-1.4-0.2h-1.7V-291.1z"/>
			<path fill="#0000C0" d="M45.5-290.2h-1v-6.4c-0.2,0.2-0.6,0.5-1,0.7s-0.7,0.4-1.1,0.5v-1c0.6-0.3,1-0.6,1.5-1
				c0.4-0.4,0.7-0.7,0.9-1.1h0.6V-290.2z"/>
		</g>
		<polygon fill="none" stroke="#0000C0" stroke-width="0.9134" stroke-linecap="square" stroke-miterlimit="10" points="
			13.5,-293.8 -0.2,-287 6.6,-280.1 13.5,-293.8 		"/>
		<path fill="none" stroke="#0000C0" stroke-width="0.9134" stroke-linecap="square" stroke-miterlimit="10" d="M-23.5-288.3
			c0-5.3,4.3-9.6,9.6-9.6c5.3,0,9.6,4.3,9.6,9.6c0,5.3-4.3,9.6-9.6,9.6C-19.2-278.7-23.5-283-23.5-288.3L-23.5-288.3z"/>
		
			<line fill="none" stroke="#0000C0" stroke-width="0.9134" stroke-linecap="square" stroke-miterlimit="10" x1="-11.2" y1="-292.4" x2="-7.1" y2="-288.3"/>
		
			<line fill="none" stroke="#0000C0" stroke-width="0.9134" stroke-linecap="square" stroke-miterlimit="10" x1="-7.1" y1="-288.3" x2="-11.2" y2="-284.2"/>
		
			<line fill="none" stroke="#0000C0" stroke-width="0.9134" stroke-linecap="square" stroke-miterlimit="10" x1="2.5" y1="-282.8" x2="-7.1" y2="-273.3"/>
		
			<line fill="none" stroke="#0000C0" stroke-width="0.9134" stroke-linecap="square" stroke-miterlimit="10" x1="-20.7" y1="-288.3" x2="-7.1" y2="-288.3"/>
		<g>
			<path fill="#0000C0" d="M21.1-297.2v-1.2h1v1.2H21.1z M21.1-290.2v-5.9h1v5.9H21.1z"/>
			<path fill="#0000C0" d="M23.1-292.8l1-0.1c0,0.4,0.2,0.7,0.3,1c0.2,0.3,0.5,0.5,0.8,0.6s0.8,0.2,1.3,0.2c0.4,0,0.8-0.1,1.1-0.2
				s0.6-0.3,0.7-0.5c0.2-0.2,0.2-0.4,0.2-0.7c0-0.3-0.1-0.5-0.2-0.7s-0.4-0.4-0.7-0.5c-0.2-0.1-0.7-0.2-1.5-0.4s-1.3-0.4-1.6-0.5
				c-0.4-0.2-0.7-0.5-0.9-0.8c-0.2-0.3-0.3-0.6-0.3-1c0-0.4,0.1-0.8,0.4-1.2c0.2-0.4,0.6-0.6,1-0.8c0.4-0.2,0.9-0.3,1.5-0.3
				c0.6,0,1.1,0.1,1.6,0.3c0.5,0.2,0.8,0.5,1.1,0.9c0.2,0.4,0.4,0.8,0.4,1.3l-1,0.1c-0.1-0.5-0.2-0.9-0.6-1.2
				c-0.3-0.3-0.8-0.4-1.4-0.4c-0.7,0-1.1,0.1-1.4,0.4c-0.3,0.2-0.4,0.5-0.4,0.9c0,0.3,0.1,0.5,0.3,0.7c0.2,0.2,0.8,0.4,1.6,0.6
				c0.9,0.2,1.5,0.4,1.8,0.5c0.5,0.2,0.8,0.5,1.1,0.8c0.2,0.3,0.3,0.7,0.3,1.2c0,0.4-0.1,0.8-0.4,1.2c-0.2,0.4-0.6,0.7-1.1,0.9
				s-1,0.3-1.6,0.3c-0.7,0-1.4-0.1-1.9-0.3c-0.5-0.2-0.9-0.5-1.2-1S23.1-292.2,23.1-292.8z"/>
		</g>
		<polygon fill="none" stroke="#0000C0" stroke-width="0.9134" stroke-linecap="square" stroke-miterlimit="10" points="
			-205.5,-293.8 -219.2,-287 -212.4,-280.1 -205.5,-293.8 		"/>
		<path fill="none" stroke="#0000C0" stroke-width="0.9134" stroke-linecap="square" stroke-miterlimit="10" d="M-242.5-288.3
			c0-5.3,4.3-9.6,9.6-9.6c5.3,0,9.6,4.3,9.6,9.6c0,5.3-4.3,9.6-9.6,9.6C-238.2-278.7-242.5-283-242.5-288.3L-242.5-288.3z"/>
		
			<line fill="none" stroke="#0000C0" stroke-width="0.9134" stroke-linecap="square" stroke-miterlimit="10" x1="-230.1" y1="-292.4" x2="-226" y2="-288.3"/>
		
			<line fill="none" stroke="#0000C0" stroke-width="0.9134" stroke-linecap="square" stroke-miterlimit="10" x1="-226" y1="-288.3" x2="-230.1" y2="-284.2"/>
		
			<line fill="none" stroke="#0000C0" stroke-width="0.9134" stroke-linecap="square" stroke-miterlimit="10" x1="-216.5" y1="-282.8" x2="-226" y2="-273.3"/>
		
			<line fill="none" stroke="#0000C0" stroke-width="0.9134" stroke-linecap="square" stroke-miterlimit="10" x1="-239.7" y1="-288.3" x2="-226" y2="-288.3"/>
		<g>
			<path fill="#0000C0" d="M-197.9-297.2v-1.2h1v1.2H-197.9z M-197.9-290.2v-5.9h1v5.9H-197.9z"/>
			<path fill="#0000C0" d="M-195.2-297.2v-1.2h1v1.2H-195.2z M-195.2-290.2v-5.9h1v5.9H-195.2z"/>
			<path fill="#0000C0" d="M-192.9-290.2v-5.9h0.9v0.8c0.4-0.7,1.1-1,1.9-1c0.4,0,0.7,0.1,1,0.2c0.3,0.1,0.5,0.3,0.7,0.5
				s0.3,0.5,0.3,0.7c0,0.2,0.1,0.5,0.1,1v3.6h-1v-3.6c0-0.4,0-0.7-0.1-0.9c-0.1-0.2-0.2-0.4-0.4-0.5s-0.4-0.2-0.7-0.2
				c-0.4,0-0.8,0.1-1.1,0.4c-0.3,0.3-0.5,0.8-0.5,1.5v3.2H-192.9z"/>
		</g>
		
			<polygon fill-rule="evenodd" clip-rule="evenodd" fill="#C8C8AA" stroke="#800000" stroke-width="2.2835" stroke-linecap="square" stroke-miterlimit="10" points="
			-102.9,-95.1 -102.9,-67.7 -89.2,-81.4 -102.9,-95.1 		"/>
		
			<line fill="none" stroke="#800000" stroke-width="2.2835" stroke-linecap="square" stroke-miterlimit="10" x1="-89.2" y1="-95.1" x2="-89.2" y2="-67.7"/>
		
			<line fill="none" stroke="#800000" stroke-width="2.2835" stroke-linecap="square" stroke-miterlimit="10" x1="-116.5" y1="-81.4" x2="-102.9" y2="-81.4"/>
		
			<line fill="none" stroke="#800000" stroke-width="2.2835" stroke-linecap="square" stroke-miterlimit="10" x1="-75.5" y1="-81.4" x2="-89.2" y2="-81.4"/>
		<g>
			<path d="M-102.5-100.2v-12.1h4.2c0.9,0,1.7,0.1,2.2,0.2c0.7,0.2,1.3,0.4,1.8,0.9c0.6,0.5,1.1,1.2,1.4,2.1s0.5,1.8,0.5,2.9
				c0,0.9-0.1,1.7-0.3,2.4c-0.2,0.7-0.5,1.3-0.8,1.8c-0.3,0.5-0.7,0.8-1.1,1.1c-0.4,0.3-0.9,0.5-1.4,0.6c-0.6,0.1-1.2,0.2-1.9,0.2
				H-102.5z M-100.9-101.6h2.6c0.8,0,1.4-0.1,1.9-0.2c0.5-0.1,0.8-0.4,1.1-0.6c0.4-0.4,0.7-0.9,0.9-1.5s0.3-1.4,0.3-2.3
				c0-1.3-0.2-2.2-0.6-2.9c-0.4-0.7-0.9-1.1-1.5-1.4c-0.4-0.2-1.1-0.2-2.1-0.2h-2.5V-101.6z"/>
			<path d="M-83-101.6v1.4h-8c0-0.4,0-0.7,0.2-1c0.2-0.5,0.5-1.1,1-1.6c0.4-0.5,1.1-1.1,1.9-1.8c1.3-1.1,2.2-1.9,2.7-2.6
				c0.5-0.6,0.7-1.2,0.7-1.8c0-0.6-0.2-1.1-0.6-1.5s-1-0.6-1.6-0.6c-0.7,0-1.3,0.2-1.7,0.6c-0.4,0.4-0.6,1-0.7,1.8l-1.5-0.2
				c0.1-1.1,0.5-2,1.2-2.6c0.7-0.6,1.6-0.9,2.7-0.9c1.2,0,2.1,0.3,2.8,1s1,1.4,1,2.4c0,0.5-0.1,1-0.3,1.4c-0.2,0.5-0.5,1-1,1.5
				s-1.2,1.2-2.3,2.1c-0.9,0.7-1.5,1.3-1.7,1.5c-0.3,0.3-0.5,0.5-0.6,0.8H-83z"/>
		</g>
		<g>
			<path d="M-99.5-56.8h-1v-6.4c-0.2,0.2-0.6,0.5-0.9,0.7c-0.4,0.2-0.7,0.4-1.1,0.5v-1c0.6-0.3,1.1-0.6,1.5-1
				c0.4-0.4,0.7-0.7,0.9-1.1h0.6V-56.8z"/>
			<path d="M-96.9-60.8c0-1,0.1-1.7,0.3-2.3c0.2-0.6,0.5-1,0.9-1.4s0.9-0.5,1.5-0.5c0.4,0,0.8,0.1,1.2,0.3s0.6,0.4,0.8,0.8
				c0.2,0.3,0.4,0.7,0.5,1.2s0.2,1.1,0.2,1.9c0,1-0.1,1.7-0.3,2.3c-0.2,0.6-0.5,1-0.9,1.4c-0.4,0.3-0.9,0.5-1.5,0.5
				c-0.8,0-1.4-0.3-1.9-0.8C-96.7-58.2-96.9-59.3-96.9-60.8z M-95.9-60.8c0,1.3,0.2,2.2,0.5,2.7c0.3,0.4,0.7,0.7,1.2,0.7
				s0.8-0.2,1.2-0.7c0.3-0.4,0.5-1.3,0.5-2.7c0-1.3-0.2-2.2-0.5-2.7c-0.3-0.4-0.7-0.7-1.2-0.7c-0.5,0-0.8,0.2-1.1,0.6
				C-95.7-63.1-95.9-62.2-95.9-60.8z"/>
			<path d="M-90.2-56.8V-65h3.1c0.6,0,1.1,0.1,1.5,0.2c0.4,0.2,0.7,0.4,0.9,0.8c0.2,0.3,0.3,0.7,0.3,1.1c0,0.3-0.1,0.7-0.3,1
				c-0.2,0.3-0.5,0.6-0.9,0.7c0.5,0.1,0.9,0.4,1.1,0.7c0.3,0.3,0.4,0.8,0.4,1.2c0,0.4-0.1,0.7-0.2,1.1s-0.4,0.6-0.6,0.8
				c-0.2,0.2-0.5,0.3-0.9,0.4c-0.4,0.1-0.8,0.1-1.3,0.1H-90.2z M-89.1-61.5h1.8c0.5,0,0.8,0,1-0.1c0.3-0.1,0.5-0.2,0.6-0.4
				s0.2-0.4,0.2-0.7c0-0.3-0.1-0.5-0.2-0.7c-0.1-0.2-0.3-0.3-0.6-0.4s-0.7-0.1-1.2-0.1h-1.6V-61.5z M-89.1-57.7h2c0.3,0,0.6,0,0.7,0
				c0.2,0,0.5-0.1,0.6-0.2c0.2-0.1,0.3-0.3,0.4-0.5c0.1-0.2,0.2-0.4,0.2-0.7c0-0.3-0.1-0.6-0.2-0.8c-0.2-0.2-0.4-0.4-0.6-0.5
				c-0.3-0.1-0.7-0.1-1.2-0.1h-1.9V-57.7z"/>
			<path d="M-76.2-57.7c0.5,0.3,1,0.6,1.4,0.8l-0.3,0.8c-0.6-0.2-1.2-0.5-1.8-1c-0.6,0.3-1.3,0.5-2,0.5c-0.7,0-1.4-0.2-2-0.5
				c-0.6-0.4-1.1-0.9-1.4-1.5c-0.3-0.6-0.5-1.4-0.5-2.2c0-0.8,0.2-1.5,0.5-2.2c0.3-0.7,0.8-1.2,1.4-1.5c0.6-0.3,1.3-0.5,2-0.5
				c0.8,0,1.4,0.2,2,0.5c0.6,0.4,1.1,0.9,1.4,1.5s0.5,1.4,0.5,2.2c0,0.7-0.1,1.3-0.3,1.8S-75.8-58.1-76.2-57.7z M-78.6-59
				c0.6,0.2,1.1,0.4,1.5,0.8c0.6-0.6,1-1.5,1-2.6c0-0.7-0.1-1.2-0.3-1.7c-0.2-0.5-0.6-0.9-1-1.2c-0.4-0.3-0.9-0.4-1.5-0.4
				c-0.8,0-1.5,0.3-2,0.8c-0.5,0.6-0.8,1.4-0.8,2.5c0,1.1,0.3,1.9,0.8,2.4c0.5,0.6,1.2,0.9,2,0.9c0.4,0,0.8-0.1,1.1-0.2
				c-0.3-0.2-0.7-0.4-1.1-0.5L-78.6-59z"/>
			<path d="M-74.1-60.8c0-1,0.1-1.7,0.3-2.3c0.2-0.6,0.5-1,0.9-1.4S-72-65-71.4-65c0.4,0,0.8,0.1,1.2,0.3s0.6,0.4,0.8,0.8
				c0.2,0.3,0.4,0.7,0.5,1.2s0.2,1.1,0.2,1.9c0,1-0.1,1.7-0.3,2.3c-0.2,0.6-0.5,1-0.9,1.4c-0.4,0.3-0.9,0.5-1.5,0.5
				c-0.8,0-1.4-0.3-1.9-0.8C-73.8-58.2-74.1-59.3-74.1-60.8z M-73.1-60.8c0,1.3,0.2,2.2,0.5,2.7c0.3,0.4,0.7,0.7,1.2,0.7
				s0.8-0.2,1.2-0.7c0.3-0.4,0.5-1.3,0.5-2.7c0-1.3-0.2-2.2-0.5-2.7c-0.3-0.4-0.7-0.7-1.2-0.7c-0.5,0-0.8,0.2-1.1,0.6
				C-72.9-63.1-73.1-62.2-73.1-60.8z"/>
			<path d="M-64.5-56.8v-2h-3.5v-0.9l3.7-5.3h0.8v5.3h1.1v0.9h-1.1v2H-64.5z M-64.5-59.7v-3.7l-2.6,3.7H-64.5z"/>
			<path d="M-61.8-60.8c0-1,0.1-1.7,0.3-2.3c0.2-0.6,0.5-1,0.9-1.4s0.9-0.5,1.5-0.5c0.4,0,0.8,0.1,1.2,0.3s0.6,0.4,0.8,0.8
				c0.2,0.3,0.4,0.7,0.5,1.2s0.2,1.1,0.2,1.9c0,1-0.1,1.7-0.3,2.3c-0.2,0.6-0.5,1-0.9,1.4c-0.4,0.3-0.9,0.5-1.5,0.5
				c-0.8,0-1.4-0.3-1.9-0.8C-61.5-58.2-61.8-59.3-61.8-60.8z M-60.8-60.8c0,1.3,0.2,2.2,0.5,2.7c0.3,0.4,0.7,0.7,1.2,0.7
				s0.8-0.2,1.2-0.7c0.3-0.4,0.5-1.3,0.5-2.7c0-1.3-0.2-2.2-0.5-2.7c-0.3-0.4-0.7-0.7-1.2-0.7c-0.5,0-0.8,0.2-1.1,0.6
				C-60.6-63.1-60.8-62.2-60.8-60.8z"/>
		</g>
		<polygon fill="none" stroke="#0000C0" stroke-width="0.9134" stroke-linecap="square" stroke-miterlimit="10" points="
			205.1,-293.8 191.4,-287 198.2,-280.1 205.1,-293.8 		"/>
		
			<line fill="none" stroke="#0000C0" stroke-width="0.9134" stroke-linecap="square" stroke-miterlimit="10" x1="194.1" y1="-282.8" x2="184.5" y2="-273.3"/>
		<g>
			<path fill="#0000C0" d="M218.6-293l1.1,0.3c-0.2,0.9-0.6,1.6-1.2,2c-0.6,0.5-1.3,0.7-2.2,0.7c-0.9,0-1.6-0.2-2.1-0.5
				c-0.6-0.4-1-0.9-1.3-1.6c-0.3-0.7-0.4-1.4-0.4-2.2c0-0.9,0.2-1.6,0.5-2.2c0.3-0.6,0.8-1.1,1.4-1.4c0.6-0.3,1.3-0.5,2-0.5
				c0.8,0,1.5,0.2,2.1,0.6c0.6,0.4,0.9,1,1.2,1.8l-1.1,0.3c-0.2-0.6-0.5-1-0.8-1.3c-0.4-0.3-0.8-0.4-1.4-0.4c-0.6,0-1.2,0.2-1.6,0.5
				c-0.4,0.3-0.7,0.7-0.9,1.2c-0.2,0.5-0.3,1-0.3,1.6c0,0.7,0.1,1.3,0.3,1.8s0.5,0.9,0.9,1.2c0.4,0.3,0.9,0.4,1.4,0.4
				c0.6,0,1.1-0.2,1.5-0.5C218.2-291.8,218.5-292.3,218.6-293z"/>
			<path fill="#0000C0" d="M224.4-290.2h-1v-6.4c-0.2,0.2-0.6,0.5-1,0.7s-0.7,0.4-1.1,0.5v-1c0.6-0.3,1-0.6,1.5-1
				c0.4-0.4,0.7-0.7,0.9-1.1h0.6V-290.2z"/>
			<path fill="#0000C0" d="M229.2-287.8c-0.6-0.7-1-1.5-1.4-2.5c-0.4-0.9-0.6-1.9-0.6-2.9c0-0.9,0.1-1.7,0.4-2.5
				c0.3-0.9,0.9-1.9,1.5-2.8h0.7c-0.4,0.8-0.7,1.3-0.9,1.7c-0.2,0.5-0.4,1-0.5,1.6c-0.2,0.7-0.2,1.4-0.2,2.1c0,1.8,0.6,3.6,1.7,5.4
				H229.2z"/>
			<path fill="#0000C0" d="M233-291.5v-2.2h-2.2v-0.9h2.2v-2.2h0.9v2.2h2.2v0.9H234v2.2H233z"/>
			<path fill="#0000C0" d="M238.4-287.8h-0.7c1.1-1.8,1.7-3.6,1.7-5.4c0-0.7-0.1-1.4-0.2-2.1c-0.1-0.6-0.3-1.1-0.5-1.6
				c-0.1-0.3-0.4-0.9-0.9-1.7h0.7c0.7,0.9,1.2,1.9,1.5,2.8c0.3,0.8,0.4,1.7,0.4,2.5c0,1-0.2,2-0.6,2.9
				C239.4-289.3,239-288.5,238.4-287.8z"/>
		</g>
		
			<polygon fill-rule="evenodd" clip-rule="evenodd" fill="#C8C8AA" stroke="#800000" stroke-width="2.2835" stroke-linecap="square" stroke-miterlimit="10" points="
			116.1,-259.6 116.1,-287 102.4,-273.3 116.1,-259.6 		"/>
		
			<line fill="none" stroke="#800000" stroke-width="2.2835" stroke-linecap="square" stroke-miterlimit="10" x1="102.4" y1="-259.6" x2="102.4" y2="-287"/>
		
			<line fill="none" stroke="#800000" stroke-width="2.2835" stroke-linecap="square" stroke-miterlimit="10" x1="129.8" y1="-273.3" x2="116.1" y2="-273.3"/>
		
			<line fill="none" stroke="#800000" stroke-width="2.2835" stroke-linecap="square" stroke-miterlimit="10" x1="88.7" y1="-273.3" x2="102.4" y2="-273.3"/>
		<g>
			<path d="M102.8-292v-12.1h4.2c0.9,0,1.7,0.1,2.2,0.2c0.7,0.2,1.3,0.4,1.8,0.9c0.6,0.5,1.1,1.2,1.4,2.1c0.3,0.8,0.5,1.8,0.5,2.9
				c0,0.9-0.1,1.7-0.3,2.4c-0.2,0.7-0.5,1.3-0.8,1.8s-0.7,0.8-1.1,1.1c-0.4,0.3-0.9,0.5-1.4,0.6c-0.6,0.1-1.2,0.2-1.9,0.2H102.8z
				 M104.4-293.4h2.6c0.8,0,1.4-0.1,1.9-0.2c0.5-0.1,0.8-0.4,1.1-0.6c0.4-0.4,0.7-0.9,0.9-1.5c0.2-0.6,0.3-1.4,0.3-2.3
				c0-1.3-0.2-2.2-0.6-2.9s-0.9-1.1-1.5-1.4c-0.4-0.2-1.1-0.2-2.1-0.2h-2.5V-293.4z"/>
			<path d="M114.5-295.2l1.5-0.2c0.2,0.8,0.5,1.4,0.9,1.8s0.9,0.6,1.5,0.6c0.7,0,1.3-0.2,1.8-0.7c0.5-0.5,0.7-1.1,0.7-1.8
				c0-0.7-0.2-1.2-0.7-1.7c-0.4-0.4-1-0.7-1.7-0.7c-0.3,0-0.6,0.1-1,0.2l0.2-1.3c0.1,0,0.2,0,0.2,0c0.6,0,1.2-0.2,1.7-0.5
				c0.5-0.3,0.8-0.8,0.8-1.5c0-0.5-0.2-1-0.6-1.4s-0.8-0.5-1.4-0.5c-0.6,0-1.1,0.2-1.4,0.5c-0.4,0.4-0.6,0.9-0.7,1.6l-1.5-0.3
				c0.2-1,0.6-1.8,1.2-2.3c0.6-0.5,1.4-0.8,2.4-0.8c0.7,0,1.3,0.1,1.8,0.4c0.6,0.3,1,0.7,1.3,1.2c0.3,0.5,0.4,1,0.4,1.6
				c0,0.5-0.1,1-0.4,1.4s-0.7,0.8-1.2,1c0.7,0.2,1.3,0.5,1.7,1s0.6,1.2,0.6,2c0,1.1-0.4,2-1.2,2.7c-0.8,0.7-1.7,1.1-2.9,1.1
				c-1.1,0-1.9-0.3-2.6-0.9C115-293.3,114.6-294.2,114.5-295.2z"/>
		</g>
		<g>
			<path d="M105.8-248.6h-1v-6.4c-0.2,0.2-0.6,0.5-1,0.7s-0.7,0.4-1.1,0.5v-1c0.6-0.3,1-0.6,1.5-1c0.4-0.4,0.7-0.7,0.9-1.1h0.6
				V-248.6z"/>
			<path d="M108.4-252.6c0-1,0.1-1.7,0.3-2.3c0.2-0.6,0.5-1,0.9-1.4c0.4-0.3,0.9-0.5,1.5-0.5c0.4,0,0.8,0.1,1.2,0.3
				c0.3,0.2,0.6,0.4,0.8,0.8c0.2,0.3,0.4,0.7,0.5,1.2c0.1,0.5,0.2,1.1,0.2,1.9c0,1-0.1,1.7-0.3,2.3c-0.2,0.6-0.5,1-0.9,1.4
				s-0.9,0.5-1.5,0.5c-0.8,0-1.4-0.3-1.9-0.8C108.6-250,108.4-251.1,108.4-252.6z M109.4-252.6c0,1.3,0.2,2.2,0.5,2.7
				c0.3,0.4,0.7,0.7,1.2,0.7c0.5,0,0.8-0.2,1.2-0.7c0.3-0.4,0.5-1.3,0.5-2.7c0-1.3-0.2-2.2-0.5-2.7c-0.3-0.4-0.7-0.7-1.2-0.7
				c-0.5,0-0.8,0.2-1.1,0.6C109.6-254.9,109.4-254,109.4-252.6z"/>
			<path d="M115.1-248.6v-8.2h3.1c0.6,0,1.1,0.1,1.5,0.2c0.4,0.2,0.7,0.4,0.9,0.8c0.2,0.3,0.3,0.7,0.3,1.1c0,0.3-0.1,0.7-0.3,1
				c-0.2,0.3-0.5,0.6-0.9,0.7c0.5,0.1,0.9,0.4,1.1,0.7c0.3,0.3,0.4,0.8,0.4,1.2c0,0.4-0.1,0.7-0.2,1.1s-0.4,0.6-0.6,0.8
				c-0.2,0.2-0.5,0.3-0.9,0.4c-0.4,0.1-0.8,0.1-1.3,0.1H115.1z M116.2-253.3h1.8c0.5,0,0.8,0,1-0.1c0.3-0.1,0.5-0.2,0.6-0.4
				c0.1-0.2,0.2-0.4,0.2-0.7c0-0.3-0.1-0.5-0.2-0.7c-0.1-0.2-0.3-0.3-0.6-0.4c-0.2-0.1-0.7-0.1-1.2-0.1h-1.6V-253.3z M116.2-249.6h2
				c0.3,0,0.6,0,0.7,0c0.2,0,0.5-0.1,0.6-0.2c0.2-0.1,0.3-0.3,0.4-0.5c0.1-0.2,0.2-0.4,0.2-0.7c0-0.3-0.1-0.6-0.2-0.8
				c-0.2-0.2-0.4-0.4-0.6-0.5c-0.3-0.1-0.7-0.1-1.2-0.1h-1.9V-249.6z"/>
			<path d="M129.1-249.5c0.5,0.3,1,0.6,1.4,0.8l-0.3,0.8c-0.6-0.2-1.2-0.5-1.8-1c-0.6,0.3-1.3,0.5-2,0.5c-0.7,0-1.4-0.2-2-0.5
				c-0.6-0.4-1.1-0.9-1.4-1.5c-0.3-0.6-0.5-1.4-0.5-2.2c0-0.8,0.2-1.5,0.5-2.2c0.3-0.7,0.8-1.2,1.4-1.5s1.3-0.5,2-0.5
				c0.8,0,1.4,0.2,2,0.5c0.6,0.4,1.1,0.9,1.4,1.5c0.3,0.6,0.5,1.4,0.5,2.2c0,0.7-0.1,1.3-0.3,1.8S129.5-249.9,129.1-249.5z
				 M126.7-250.9c0.6,0.2,1.1,0.4,1.5,0.8c0.6-0.6,1-1.5,1-2.6c0-0.7-0.1-1.2-0.3-1.7s-0.6-0.9-1-1.2c-0.4-0.3-0.9-0.4-1.5-0.4
				c-0.8,0-1.5,0.3-2,0.8c-0.5,0.6-0.8,1.4-0.8,2.5c0,1.1,0.3,1.9,0.8,2.4c0.5,0.6,1.2,0.9,2,0.9c0.4,0,0.8-0.1,1.1-0.2
				c-0.3-0.2-0.7-0.4-1.1-0.5L126.7-250.9z"/>
			<path d="M135-248.6h-1v-6.4c-0.2,0.2-0.6,0.5-1,0.7s-0.7,0.4-1.1,0.5v-1c0.6-0.3,1-0.6,1.5-1c0.4-0.4,0.7-0.7,0.9-1.1h0.6V-248.6
				z"/>
			<path d="M137.6-252.6c0-1,0.1-1.7,0.3-2.3c0.2-0.6,0.5-1,0.9-1.4c0.4-0.3,0.9-0.5,1.5-0.5c0.4,0,0.8,0.1,1.2,0.3
				c0.3,0.2,0.6,0.4,0.8,0.8c0.2,0.3,0.4,0.7,0.5,1.2c0.1,0.5,0.2,1.1,0.2,1.9c0,1-0.1,1.7-0.3,2.3c-0.2,0.6-0.5,1-0.9,1.4
				s-0.9,0.5-1.5,0.5c-0.8,0-1.4-0.3-1.9-0.8C137.8-250,137.6-251.1,137.6-252.6z M138.6-252.6c0,1.3,0.2,2.2,0.5,2.7
				c0.3,0.4,0.7,0.7,1.2,0.7c0.5,0,0.8-0.2,1.2-0.7c0.3-0.4,0.5-1.3,0.5-2.7c0-1.3-0.2-2.2-0.5-2.7c-0.3-0.4-0.7-0.7-1.2-0.7
				c-0.5,0-0.8,0.2-1.1,0.6C138.8-254.9,138.6-254,138.6-252.6z"/>
			<path d="M143.5-252.6c0-1,0.1-1.7,0.3-2.3c0.2-0.6,0.5-1,0.9-1.4c0.4-0.3,0.9-0.5,1.5-0.5c0.4,0,0.8,0.1,1.2,0.3
				c0.3,0.2,0.6,0.4,0.8,0.8c0.2,0.3,0.4,0.7,0.5,1.2c0.1,0.5,0.2,1.1,0.2,1.9c0,1-0.1,1.7-0.3,2.3c-0.2,0.6-0.5,1-0.9,1.4
				s-0.9,0.5-1.5,0.5c-0.8,0-1.4-0.3-1.9-0.8C143.8-250,143.5-251.1,143.5-252.6z M144.5-252.6c0,1.3,0.2,2.2,0.5,2.7
				c0.3,0.4,0.7,0.7,1.2,0.7c0.5,0,0.8-0.2,1.2-0.7c0.3-0.4,0.5-1.3,0.5-2.7c0-1.3-0.2-2.2-0.5-2.7c-0.3-0.4-0.7-0.7-1.2-0.7
				c-0.5,0-0.8,0.2-1.1,0.6C144.7-254.9,144.5-254,144.5-252.6z"/>
		</g>
	</g>
</g>
</svg>
