<?xml version="1.0" encoding="utf-8"?>
<!-- Generator: Adobe Illustrator 26.1.0, SVG Export Plug-In . SVG Version: 6.00 Build 0)  -->
<svg version="1.1" id="图层_1" xmlns="http://www.w3.org/2000/svg" xmlns:xlink="http://www.w3.org/1999/xlink" x="0px" y="0px"
	 viewBox="0 0 780.6 534.8" enable-background="new 0 0 780.6 534.8" xml:space="preserve">
<g>
	
		<line fill="none" stroke="#004000" stroke-width="2" stroke-linecap="square" stroke-miterlimit="10" x1="573.6" y1="126" x2="573.6" y2="98.6"/>
	
		<line fill="none" stroke="#004000" stroke-width="2" stroke-linecap="square" stroke-miterlimit="10" x1="573.6" y1="249.3" x2="573.6" y2="180.8"/>
	
		<line fill="none" stroke="#004000" stroke-width="2" stroke-linecap="square" stroke-miterlimit="10" x1="450.5" y1="112.3" x2="450.5" y2="98.6"/>
	
		<line fill="none" stroke="#004000" stroke-width="2" stroke-linecap="square" stroke-miterlimit="10" x1="341" y1="372.6" x2="395.7" y2="372.6"/>
	
		<line fill="none" stroke="#004000" stroke-width="2" stroke-linecap="square" stroke-miterlimit="10" x1="341" y1="386.3" x2="395.7" y2="386.3"/>
	
		<line fill="none" stroke="#004000" stroke-width="2" stroke-linecap="square" stroke-miterlimit="10" x1="368.3" y1="126" x2="368.3" y2="98.6"/>
	<polyline fill="none" stroke="#004000" stroke-width="2" stroke-linecap="square" stroke-miterlimit="10" points="341,358.9 
		368.3,358.9 368.3,290.4 	"/>
	
		<line fill="none" stroke="#004000" stroke-width="2" stroke-linecap="square" stroke-miterlimit="10" x1="258.9" y1="441.1" x2="258.9" y2="468.5"/>
	
		<line fill="none" stroke="#004000" stroke-width="2" stroke-linecap="square" stroke-miterlimit="10" x1="642.1" y1="112.3" x2="642.1" y2="98.6"/>
	
		<line fill="none" stroke="#004000" stroke-width="2" stroke-linecap="square" stroke-miterlimit="10" x1="573.6" y1="98.6" x2="642.1" y2="98.6"/>
	
		<line fill="none" stroke="#004000" stroke-width="2" stroke-linecap="square" stroke-miterlimit="10" x1="710.5" y1="98.6" x2="642.1" y2="98.6"/>
	
		<line fill="none" stroke="#004000" stroke-width="2" stroke-linecap="square" stroke-miterlimit="10" x1="258.9" y1="317.8" x2="258.9" y2="290.4"/>
	
		<line fill="none" stroke="#004000" stroke-width="2" stroke-linecap="square" stroke-miterlimit="10" x1="204.1" y1="290.4" x2="258.9" y2="290.4"/>
	
		<line fill="none" stroke="#004000" stroke-width="2" stroke-linecap="square" stroke-miterlimit="10" x1="450.5" y1="276.7" x2="450.5" y2="235.6"/>
	
		<line fill="none" stroke="#004000" stroke-width="2" stroke-linecap="square" stroke-miterlimit="10" x1="450.5" y1="194.5" x2="450.5" y2="235.6"/>
	
		<line fill="none" stroke="#004000" stroke-width="2" stroke-linecap="square" stroke-miterlimit="10" x1="176.7" y1="358.9" x2="149.4" y2="358.9"/>
	
		<line fill="none" stroke="#004000" stroke-width="2" stroke-linecap="square" stroke-miterlimit="10" x1="108.3" y1="358.9" x2="149.4" y2="358.9"/>
	
		<line fill="none" stroke="#004000" stroke-width="2" stroke-linecap="square" stroke-miterlimit="10" x1="313.6" y1="98.6" x2="341" y2="98.6"/>
	
		<line fill="none" stroke="#004000" stroke-width="2" stroke-linecap="square" stroke-miterlimit="10" x1="368.3" y1="98.6" x2="341" y2="98.6"/>
	
		<line fill="none" stroke="#004000" stroke-width="2" stroke-linecap="square" stroke-miterlimit="10" x1="286.2" y1="167.1" x2="245.2" y2="167.1"/>
	
		<line fill="none" stroke="#004000" stroke-width="2" stroke-linecap="square" stroke-miterlimit="10" x1="176.7" y1="167.1" x2="135.7" y2="167.1"/>
	
		<line fill="none" stroke="#004000" stroke-width="2" stroke-linecap="square" stroke-miterlimit="10" x1="135.7" y1="167.1" x2="94.6" y2="167.1"/>
	
		<line fill="none" stroke="#004000" stroke-width="2" stroke-linecap="square" stroke-miterlimit="10" x1="368.3" y1="180.8" x2="368.3" y2="235.6"/>
	
		<line fill="none" stroke="#004000" stroke-width="2" stroke-linecap="square" stroke-miterlimit="10" x1="368.3" y1="235.6" x2="368.3" y2="290.4"/>
	
		<line fill="none" stroke="#004000" stroke-width="2" stroke-linecap="square" stroke-miterlimit="10" x1="642.1" y1="249.3" x2="642.1" y2="208.2"/>
	
		<line fill="none" stroke="#004000" stroke-width="2" stroke-linecap="square" stroke-miterlimit="10" x1="642.1" y1="208.2" x2="642.1" y2="180.8"/>
	
		<line fill="none" stroke="#004000" stroke-width="2" stroke-linecap="square" stroke-miterlimit="10" x1="477.8" y1="98.6" x2="450.5" y2="98.6"/>
	
		<line fill="none" stroke="#004000" stroke-width="2" stroke-linecap="square" stroke-miterlimit="10" x1="546.3" y1="98.6" x2="573.6" y2="98.6"/>
	
		<line fill="none" stroke="#004000" stroke-width="2" stroke-linecap="square" stroke-miterlimit="10" x1="505.2" y1="98.6" x2="477.8" y2="98.6"/>
	
		<line fill="none" stroke="#004000" stroke-width="2" stroke-linecap="square" stroke-miterlimit="10" x1="450.5" y1="98.6" x2="395.7" y2="98.6"/>
	
		<line fill="none" stroke="#004000" stroke-width="2" stroke-linecap="square" stroke-miterlimit="10" x1="395.7" y1="98.6" x2="368.3" y2="98.6"/>
	
		<line fill="none" stroke="#004000" stroke-width="2" stroke-linecap="square" stroke-miterlimit="10" x1="231.5" y1="98.6" x2="176.7" y2="98.6"/>
	
		<line fill="none" stroke="#004000" stroke-width="2" stroke-linecap="square" stroke-miterlimit="10" x1="176.7" y1="98.6" x2="122" y2="98.6"/>
	
		<line fill="none" stroke="#004000" stroke-width="2" stroke-linecap="square" stroke-miterlimit="10" x1="327.3" y1="290.4" x2="368.3" y2="290.4"/>
	
		<line fill="none" stroke="#004000" stroke-width="2" stroke-linecap="square" stroke-miterlimit="10" x1="286.2" y1="290.4" x2="258.9" y2="290.4"/>
	
		<rect x="204.1" y="345.2" fill-rule="evenodd" clip-rule="evenodd" fill="#C8C8AA" stroke="#800000" stroke-width="2" stroke-linecap="square" stroke-miterlimit="10" width="109.5" height="68.5"/>
	
		<line fill="none" stroke="#800000" stroke-width="2" stroke-linecap="square" stroke-miterlimit="10" x1="176.7" y1="358.9" x2="204.1" y2="358.9"/>
	<text transform="matrix(0.9989 0 0 1 184.0407 356.1597)" font-family="'ArialMT'" font-size="11.4173px">2</text>
	
		<line fill="none" stroke="#800000" stroke-width="2" stroke-linecap="square" stroke-miterlimit="10" x1="176.7" y1="400" x2="204.1" y2="400"/>
	<text transform="matrix(0.9989 0 0 1 184.0407 397.2613)" font-family="'ArialMT'" font-size="11.4173px">3</text>
	
		<line fill="none" stroke="#800000" stroke-width="2" stroke-linecap="square" stroke-miterlimit="10" x1="341" y1="358.9" x2="313.6" y2="358.9"/>
	<text transform="matrix(0.9989 0 0 1 327.2829 356.1597)" font-family="'ArialMT'" font-size="11.4173px">8</text>
	
		<line fill="none" stroke="#800000" stroke-width="2" stroke-linecap="square" stroke-miterlimit="10" x1="341" y1="372.6" x2="313.6" y2="372.6"/>
	<text transform="matrix(0.9989 0 0 1 327.2829 369.8629)" font-family="'ArialMT'" font-size="11.4173px">7</text>
	
		<line fill="none" stroke="#800000" stroke-width="2" stroke-linecap="square" stroke-miterlimit="10" x1="341" y1="386.3" x2="313.6" y2="386.3"/>
	<text transform="matrix(0.9989 0 0 1 327.2829 383.566)" font-family="'ArialMT'" font-size="11.4173px">6</text>
	
		<line fill="none" stroke="#800000" stroke-width="2" stroke-linecap="square" stroke-miterlimit="10" x1="341" y1="400" x2="313.6" y2="400"/>
	<text transform="matrix(0.9989 0 0 1 327.2829 397.2613)" font-family="'ArialMT'" font-size="11.4173px">5</text>
	
		<line fill="none" stroke="#800000" stroke-width="2" stroke-linecap="square" stroke-miterlimit="10" x1="258.9" y1="441.1" x2="258.9" y2="413.7"/>
	<text transform="matrix(0.9989 0 0 1 245.6266 404.1129)"><tspan x="0" y="0" font-family="'ArialMT'" font-size="11.4173px">C</tspan><tspan x="8.2" y="0" font-family="'ArialMT'" font-size="11.4173px">O</tspan><tspan x="16.9" y="0" font-family="'ArialMT'" font-size="11.4173px">M</tspan></text>
	<text transform="matrix(0.9989 0 0 1 262.0485 437.4488)" font-family="'ArialMT'" font-size="11.4173px">4</text>
	
		<line fill="none" stroke="#800000" stroke-width="2" stroke-linecap="square" stroke-miterlimit="10" x1="258.9" y1="317.8" x2="258.9" y2="345.2"/>
	<text transform="matrix(0.9989 0 0 1 262.0485 328.7613)" font-family="'ArialMT'" font-size="11.4173px">1</text>
	
		<polygon fill-rule="evenodd" clip-rule="evenodd" fill="#C8C8AA" stroke="#800000" stroke-width="2" stroke-linecap="square" stroke-miterlimit="10" points="
		272.5,126 268.4,112.3 276.6,112.3 272.5,126 	"/>
	
		<rect x="252" y="126" fill-rule="evenodd" clip-rule="evenodd" fill="#C8C8AA" stroke="#800000" stroke-width="2" stroke-linecap="square" stroke-miterlimit="10" width="41.1" height="6.9"/>
	
		<line fill="none" stroke="#800000" stroke-width="2" stroke-linecap="square" stroke-miterlimit="10" x1="258.9" y1="139.7" x2="286.2" y2="139.7"/>
	
		<line fill="none" stroke="#800000" stroke-width="2" stroke-linecap="square" stroke-miterlimit="10" x1="286.2" y1="153.4" x2="286.2" y2="139.7"/>
	
		<line fill="none" stroke="#800000" stroke-width="2" stroke-linecap="square" stroke-miterlimit="10" x1="258.9" y1="126" x2="258.9" y2="112.3"/>
	
		<line fill="none" stroke="#800000" stroke-width="2" stroke-linecap="square" stroke-miterlimit="10" x1="286.2" y1="126" x2="286.2" y2="112.3"/>
	
		<line fill="none" stroke="#800000" stroke-width="2" stroke-linecap="square" stroke-miterlimit="10" x1="272.5" y1="112.3" x2="272.5" y2="98.6"/>
	
		<line fill="none" stroke="#800000" stroke-width="2" stroke-linecap="square" stroke-miterlimit="10" x1="286.2" y1="112.3" x2="286.2" y2="98.6"/>
	
		<line fill="none" stroke="#800000" stroke-width="2" stroke-linecap="square" stroke-miterlimit="10" x1="286.2" y1="98.6" x2="299.9" y2="98.6"/>
	
		<line fill="none" stroke="#800000" stroke-width="2" stroke-linecap="square" stroke-miterlimit="10" x1="245.2" y1="98.6" x2="258.9" y2="98.6"/>
	
		<line fill="none" stroke="#800000" stroke-width="2" stroke-linecap="square" stroke-miterlimit="10" x1="258.9" y1="98.6" x2="258.9" y2="112.3"/>
	
		<line fill="none" stroke="#800000" stroke-width="2" stroke-linecap="square" stroke-miterlimit="10" x1="272.5" y1="98.6" x2="286.2" y2="98.6"/>
	
		<line fill="none" stroke="#800000" stroke-width="2" stroke-linecap="square" stroke-miterlimit="10" x1="231.5" y1="98.6" x2="245.2" y2="98.6"/>
	
		<line fill="none" stroke="#800000" stroke-width="2" stroke-linecap="square" stroke-miterlimit="10" x1="286.2" y1="167.1" x2="286.2" y2="153.4"/>
	
		<line fill="none" stroke="#800000" stroke-width="2" stroke-linecap="square" stroke-miterlimit="10" x1="313.6" y1="98.6" x2="299.9" y2="98.6"/>
	
		<line fill="none" stroke="#800000" stroke-width="2" stroke-linecap="square" stroke-miterlimit="10" x1="648.9" y1="156.1" x2="635.2" y2="149.3"/>
	
		<line fill="none" stroke="#800000" stroke-width="2" stroke-linecap="square" stroke-miterlimit="10" x1="635.2" y1="149.3" x2="648.9" y2="142.4"/>
	
		<line fill="none" stroke="#800000" stroke-width="2" stroke-linecap="square" stroke-miterlimit="10" x1="648.9" y1="142.4" x2="635.2" y2="135.6"/>
	
		<line fill="none" stroke="#800000" stroke-width="2" stroke-linecap="square" stroke-miterlimit="10" x1="635.2" y1="135.6" x2="648.9" y2="128.7"/>
	
		<line fill="none" stroke="#800000" stroke-width="2" stroke-linecap="square" stroke-miterlimit="10" x1="648.9" y1="156.1" x2="635.2" y2="163"/>
	
		<line fill="none" stroke="#800000" stroke-width="2" stroke-linecap="square" stroke-miterlimit="10" x1="635.2" y1="163" x2="642.1" y2="167.1"/>
	
		<line fill="none" stroke="#800000" stroke-width="2" stroke-linecap="square" stroke-miterlimit="10" x1="648.9" y1="128.7" x2="642.1" y2="126"/>
	
		<line fill="none" stroke="#800000" stroke-width="2" stroke-linecap="square" stroke-miterlimit="10" x1="642.1" y1="180.8" x2="642.1" y2="167.1"/>
	
		<line fill="none" stroke="#800000" stroke-width="2" stroke-linecap="square" stroke-miterlimit="10" x1="642.1" y1="112.3" x2="642.1" y2="126"/>
	
		<rect x="559.9" y="142.4" fill-rule="evenodd" clip-rule="evenodd" fill="#C8C8AA" stroke="#800000" stroke-width="2" stroke-linecap="square" stroke-miterlimit="10" width="27.4" height="6.9"/>
	
		<rect x="559.9" y="157.5" fill-rule="evenodd" clip-rule="evenodd" fill="#C8C8AA" stroke="#800000" stroke-width="2" stroke-linecap="square" stroke-miterlimit="10" width="27.4" height="6.9"/>
	
		<line fill="none" stroke="#800000" stroke-width="2" stroke-linecap="square" stroke-miterlimit="10" x1="573.6" y1="164.3" x2="573.6" y2="167.1"/>
	
		<line fill="none" stroke="#800000" stroke-width="2" stroke-linecap="square" stroke-miterlimit="10" x1="573.6" y1="142.4" x2="573.6" y2="139.7"/>
	
		<line fill="none" stroke="#800000" stroke-width="2" stroke-linecap="square" stroke-miterlimit="10" x1="580.5" y1="157.5" x2="587.3" y2="164.3"/>
	
		<line fill="none" stroke="#800000" stroke-width="2" stroke-linecap="square" stroke-miterlimit="10" x1="573.6" y1="157.5" x2="580.5" y2="164.3"/>
	
		<line fill="none" stroke="#800000" stroke-width="2" stroke-linecap="square" stroke-miterlimit="10" x1="566.8" y1="157.5" x2="573.6" y2="164.3"/>
	
		<line fill="none" stroke="#800000" stroke-width="2" stroke-linecap="square" stroke-miterlimit="10" x1="559.9" y1="157.5" x2="566.8" y2="164.3"/>
	
		<line fill="none" stroke="#800000" stroke-width="2" stroke-linecap="square" stroke-miterlimit="10" x1="573.6" y1="126" x2="573.6" y2="139.7"/>
	
		<line fill="none" stroke="#800000" stroke-width="2" stroke-linecap="square" stroke-miterlimit="10" x1="573.6" y1="180.8" x2="573.6" y2="167.1"/>
	
		<path fill-rule="evenodd" clip-rule="evenodd" fill="#004000" stroke="#004000" stroke-width="2" stroke-linecap="square" stroke-miterlimit="10" d="
		M570.9,98.6c0-1.5,1.2-2.7,2.7-2.7c1.5,0,2.7,1.2,2.7,2.7s-1.2,2.7-2.7,2.7C572.1,101.3,570.9,100.1,570.9,98.6L570.9,98.6z"/>
	
		<line fill="none" stroke="#004000" stroke-width="2" stroke-linecap="square" stroke-miterlimit="10" x1="573.6" y1="249.3" x2="573.6" y2="263"/>
	
		<line fill="none" stroke="#004000" stroke-width="2" stroke-linecap="square" stroke-miterlimit="10" x1="559.9" y1="263" x2="587.3" y2="263"/>
	
		<line fill="none" stroke="#004000" stroke-width="2" stroke-linecap="square" stroke-miterlimit="10" x1="566.8" y1="269.8" x2="580.5" y2="269.8"/>
	
		<line fill="none" stroke="#004000" stroke-width="2" stroke-linecap="square" stroke-miterlimit="10" x1="572.3" y1="276.7" x2="575" y2="276.7"/>
	
		<line fill="none" stroke="#004000" stroke-width="2" stroke-linecap="square" stroke-miterlimit="10" x1="642.1" y1="249.3" x2="642.1" y2="263"/>
	
		<line fill="none" stroke="#004000" stroke-width="2" stroke-linecap="square" stroke-miterlimit="10" x1="628.4" y1="263" x2="655.7" y2="263"/>
	
		<line fill="none" stroke="#004000" stroke-width="2" stroke-linecap="square" stroke-miterlimit="10" x1="635.2" y1="269.8" x2="648.9" y2="269.8"/>
	
		<line fill="none" stroke="#004000" stroke-width="2" stroke-linecap="square" stroke-miterlimit="10" x1="640.7" y1="276.7" x2="643.4" y2="276.7"/>
	<polyline fill="none" stroke="#800000" stroke-width="2" stroke-linecap="square" stroke-miterlimit="10" points="450.5,126 
		453.2,126 455.5,126.9 460,128.3 461.9,129.6 462.8,130.6 463.7,131.9 464.1,132.8 	"/>
	<polyline fill="none" stroke="#800000" stroke-width="2" stroke-linecap="square" stroke-miterlimit="10" points="450.5,139.7 
		455.5,139.2 460,137.9 461.9,136.9 462.8,135.6 463.7,134.2 464.1,132.8 	"/>
	<polyline fill="none" stroke="#800000" stroke-width="2" stroke-linecap="square" stroke-miterlimit="10" points="450.5,139.7 
		453.2,139.7 455.5,140.6 460,142 461.9,143.3 462.8,144.3 463.7,145.6 464.1,146.5 	"/>
	<polyline fill="none" stroke="#800000" stroke-width="2" stroke-linecap="square" stroke-miterlimit="10" points="450.5,153.4 
		455.5,152.9 460,151.6 461.9,150.6 462.8,149.3 463.7,147.9 464.1,146.5 	"/>
	<polyline fill="none" stroke="#800000" stroke-width="2" stroke-linecap="square" stroke-miterlimit="10" points="450.5,153.4 
		455.5,153.8 460,155.2 461.9,156.1 462.8,157.5 463.7,158.9 464.1,160.2 	"/>
	<polyline fill="none" stroke="#800000" stroke-width="2" stroke-linecap="square" stroke-miterlimit="10" points="450.5,167.1 
		453.2,167.1 455.5,166.2 460,164.8 461.9,163.4 462.8,162.5 463.7,161.2 464.1,160.2 	"/>
	<polyline fill="none" stroke="#800000" stroke-width="2" stroke-linecap="square" stroke-miterlimit="10" points="450.5,167.1 
		455.5,167.5 460,168.9 461.9,169.8 462.8,171.2 463.7,172.6 464.1,173.9 	"/>
	<polyline fill="none" stroke="#800000" stroke-width="2" stroke-linecap="square" stroke-miterlimit="10" points="450.5,180.8 
		453.2,180.8 455.5,179.9 460,178.5 461.9,177.1 462.8,176.2 463.7,174.9 464.1,173.9 	"/>
	
		<line fill="none" stroke="#800000" stroke-width="2" stroke-linecap="square" stroke-miterlimit="10" x1="450.5" y1="112.3" x2="450.5" y2="126"/>
	
		<line fill="none" stroke="#800000" stroke-width="2" stroke-linecap="square" stroke-miterlimit="10" x1="450.5" y1="194.5" x2="450.5" y2="180.8"/>
	
		<path fill-rule="evenodd" clip-rule="evenodd" fill="#004000" stroke="#004000" stroke-width="2" stroke-linecap="square" stroke-miterlimit="10" d="
		M447.7,98.6c0-1.5,1.2-2.7,2.7-2.7c1.5,0,2.7,1.2,2.7,2.7s-1.2,2.7-2.7,2.7C448.9,101.3,447.7,100.1,447.7,98.6L447.7,98.6z"/>
	
		<line fill="none" stroke="#004000" stroke-width="2" stroke-linecap="square" stroke-miterlimit="10" x1="450.5" y1="276.7" x2="450.5" y2="290.4"/>
	
		<line fill="none" stroke="#004000" stroke-width="2" stroke-linecap="square" stroke-miterlimit="10" x1="436.8" y1="290.4" x2="464.1" y2="290.4"/>
	
		<line fill="none" stroke="#004000" stroke-width="2" stroke-linecap="square" stroke-miterlimit="10" x1="443.6" y1="297.2" x2="457.3" y2="297.2"/>
	
		<line fill="none" stroke="#004000" stroke-width="2" stroke-linecap="square" stroke-miterlimit="10" x1="449.1" y1="304.1" x2="451.8" y2="304.1"/>
	<polygon fill="none" stroke="#0000C0" stroke-width="2" stroke-linecap="square" stroke-miterlimit="10" points="115.1,91.7 
		101.5,84.9 108.3,78 115.1,91.7 	"/>
	
		<line fill="none" stroke="#0000C0" stroke-width="2" stroke-linecap="square" stroke-miterlimit="10" x1="122" y1="98.6" x2="115.1" y2="91.7"/>
	
		<path fill-rule="evenodd" clip-rule="evenodd" fill="#004000" stroke="#004000" stroke-width="2" stroke-linecap="square" stroke-miterlimit="10" d="
		M393,372.6c0-1.5,1.2-2.7,2.7-2.7s2.7,1.2,2.7,2.7s-1.2,2.7-2.7,2.7S393,374.1,393,372.6L393,372.6z"/>
	
		<path fill-rule="evenodd" clip-rule="evenodd" fill="#004000" stroke="#004000" stroke-width="2" stroke-linecap="square" stroke-miterlimit="10" d="
		M393,386.3c0-1.5,1.2-2.7,2.7-2.7s2.7,1.2,2.7,2.7c0,1.5-1.2,2.7-2.7,2.7S393,387.8,393,386.3L393,386.3z"/>
	
		<line fill="none" stroke="#800000" stroke-width="2" stroke-linecap="square" stroke-miterlimit="10" x1="382" y1="157.5" x2="354.7" y2="157.5"/>
	
		<line fill="none" stroke="#800000" stroke-width="2" stroke-linecap="square" stroke-miterlimit="10" x1="382" y1="149.3" x2="354.7" y2="149.3"/>
	
		<line fill="none" stroke="#800000" stroke-width="2" stroke-linecap="square" stroke-miterlimit="10" x1="368.3" y1="149.3" x2="368.3" y2="139.7"/>
	
		<line fill="none" stroke="#800000" stroke-width="2" stroke-linecap="square" stroke-miterlimit="10" x1="368.3" y1="157.5" x2="368.3" y2="167.1"/>
	
		<line fill="none" stroke="#800000" stroke-width="2" stroke-linecap="square" stroke-miterlimit="10" x1="368.3" y1="180.8" x2="368.3" y2="167.1"/>
	
		<line fill="none" stroke="#800000" stroke-width="2" stroke-linecap="square" stroke-miterlimit="10" x1="368.3" y1="126" x2="368.3" y2="139.7"/>
	
		<path fill-rule="evenodd" clip-rule="evenodd" fill="#004000" stroke="#004000" stroke-width="2" stroke-linecap="square" stroke-miterlimit="10" d="
		M365.6,98.6c0-1.5,1.2-2.7,2.7-2.7s2.7,1.2,2.7,2.7s-1.2,2.7-2.7,2.7S365.6,100.1,365.6,98.6L365.6,98.6z"/>
	
		<path fill-rule="evenodd" clip-rule="evenodd" fill="#004000" stroke="#004000" stroke-width="2" stroke-linecap="square" stroke-miterlimit="10" d="
		M365.6,290.4c0-1.5,1.2-2.7,2.7-2.7s2.7,1.2,2.7,2.7c0,1.5-1.2,2.7-2.7,2.7S365.6,291.9,365.6,290.4L365.6,290.4z"/>
	
		<line fill="none" stroke="#004000" stroke-width="2" stroke-linecap="square" stroke-miterlimit="10" x1="258.9" y1="468.5" x2="258.9" y2="482.2"/>
	
		<line fill="none" stroke="#004000" stroke-width="2" stroke-linecap="square" stroke-miterlimit="10" x1="245.2" y1="482.2" x2="272.5" y2="482.2"/>
	
		<line fill="none" stroke="#004000" stroke-width="2" stroke-linecap="square" stroke-miterlimit="10" x1="252" y1="489.1" x2="265.7" y2="489.1"/>
	
		<line fill="none" stroke="#004000" stroke-width="2" stroke-linecap="square" stroke-miterlimit="10" x1="257.5" y1="495.9" x2="260.2" y2="495.9"/>
	<polygon fill="none" stroke="#0000C0" stroke-width="2" stroke-linecap="square" stroke-miterlimit="10" points="101.5,352 
		87.8,345.2 94.6,338.3 101.5,352 	"/>
	
		<line fill="none" stroke="#0000C0" stroke-width="2" stroke-linecap="square" stroke-miterlimit="10" x1="108.3" y1="358.9" x2="101.5" y2="352"/>
	
		<line fill="none" stroke="#0000C0" stroke-width="2" stroke-linecap="square" stroke-miterlimit="10" x1="108.3" y1="353.4" x2="111" y2="353.4"/>
	
		<line fill="none" stroke="#0000C0" stroke-width="2" stroke-linecap="square" stroke-miterlimit="10" x1="111" y1="353.4" x2="113.8" y2="339.7"/>
	
		<line fill="none" stroke="#0000C0" stroke-width="2" stroke-linecap="square" stroke-miterlimit="10" x1="113.8" y1="339.7" x2="127.5" y2="339.7"/>
	
		<line fill="none" stroke="#0000C0" stroke-width="2" stroke-linecap="square" stroke-miterlimit="10" x1="127.5" y1="339.7" x2="130.2" y2="353.4"/>
	
		<line fill="none" stroke="#0000C0" stroke-width="2" stroke-linecap="square" stroke-miterlimit="10" x1="130.2" y1="353.4" x2="132.9" y2="353.4"/>
	<polygon fill="none" stroke="#0000C0" stroke-width="2" stroke-linecap="square" stroke-miterlimit="10" points="731,78 
		717.3,84.9 724.2,91.7 731,78 	"/>
	
		<line fill="none" stroke="#0000C0" stroke-width="2" stroke-linecap="square" stroke-miterlimit="10" x1="720.1" y1="89" x2="710.5" y2="98.6"/>
	
		<path fill-rule="evenodd" clip-rule="evenodd" fill="#004000" stroke="#004000" stroke-width="2" stroke-linecap="square" stroke-miterlimit="10" d="
		M639.3,98.6c0-1.5,1.2-2.7,2.7-2.7c1.5,0,2.7,1.2,2.7,2.7s-1.2,2.7-2.7,2.7C640.5,101.3,639.3,100.1,639.3,98.6L639.3,98.6z"/>
	<polygon fill="none" stroke="#0000C0" stroke-width="2" stroke-linecap="square" stroke-miterlimit="10" points="197.3,283.5 
		183.6,276.7 190.4,269.8 197.3,283.5 	"/>
	
		<line fill="none" stroke="#0000C0" stroke-width="2" stroke-linecap="square" stroke-miterlimit="10" x1="204.1" y1="290.4" x2="197.3" y2="283.5"/>
	
		<line fill="none" stroke="#0000C0" stroke-width="2" stroke-linecap="square" stroke-miterlimit="10" x1="204.1" y1="278.1" x2="206.8" y2="278.1"/>
	
		<line fill="none" stroke="#0000C0" stroke-width="2" stroke-linecap="square" stroke-miterlimit="10" x1="209.6" y1="278.1" x2="212.3" y2="278.1"/>
	
		<line fill="none" stroke="#0000C0" stroke-width="2" stroke-linecap="square" stroke-miterlimit="10" x1="215.1" y1="278.1" x2="217.8" y2="278.1"/>
	
		<line fill="none" stroke="#0000C0" stroke-width="2" stroke-linecap="square" stroke-miterlimit="10" x1="220.5" y1="278.1" x2="223.3" y2="278.1"/>
	
		<line fill="none" stroke="#0000C0" stroke-width="2" stroke-linecap="square" stroke-miterlimit="10" x1="204.1" y1="282.2" x2="228.7" y2="282.2"/>
	
		<line fill="none" stroke="#0000C0" stroke-width="2" stroke-linecap="square" stroke-miterlimit="10" x1="226" y1="278.1" x2="228.7" y2="278.1"/>
	
		<path fill-rule="evenodd" clip-rule="evenodd" fill="#004000" stroke="#004000" stroke-width="2" stroke-linecap="square" stroke-miterlimit="10" d="
		M256.1,290.4c0-1.5,1.2-2.7,2.7-2.7s2.7,1.2,2.7,2.7c0,1.5-1.2,2.7-2.7,2.7S256.1,291.9,256.1,290.4L256.1,290.4z"/>
	<polygon fill="none" stroke="#0000C0" stroke-width="2" stroke-linecap="square" stroke-miterlimit="10" points="471,256.1 
		464.1,242.4 457.3,249.3 471,256.1 	"/>
	<path fill="none" stroke="#0000C0" stroke-width="2" stroke-linecap="square" stroke-miterlimit="10" d="M455.9,228.7
		c0-5.3,4.3-9.6,9.6-9.6c5.3,0,9.6,4.3,9.6,9.6s-4.3,9.6-9.6,9.6C460.2,238.3,455.9,234.1,455.9,228.7L455.9,228.7z"/>
	
		<line fill="none" stroke="#0000C0" stroke-width="2" stroke-linecap="square" stroke-miterlimit="10" x1="469.6" y1="231.5" x2="465.5" y2="235.6"/>
	
		<line fill="none" stroke="#0000C0" stroke-width="2" stroke-linecap="square" stroke-miterlimit="10" x1="465.5" y1="235.6" x2="461.4" y2="231.5"/>
	
		<line fill="none" stroke="#0000C0" stroke-width="2" stroke-linecap="square" stroke-miterlimit="10" x1="460" y1="245.2" x2="450.5" y2="235.6"/>
	
		<line fill="none" stroke="#0000C0" stroke-width="2" stroke-linecap="square" stroke-miterlimit="10" x1="465.5" y1="221.9" x2="465.5" y2="235.6"/>
	<polygon fill="none" stroke="#0000C0" stroke-width="2" stroke-linecap="square" stroke-miterlimit="10" points="169.9,338.3 
		156.2,345.2 163,352 169.9,338.3 	"/>
	
		<line fill="none" stroke="#0000C0" stroke-width="2" stroke-linecap="square" stroke-miterlimit="10" x1="158.9" y1="349.3" x2="149.4" y2="358.9"/>
	
		<line fill="none" stroke="#800000" stroke-width="2" stroke-linecap="square" stroke-miterlimit="10" x1="201.4" y1="173.9" x2="208.2" y2="160.2"/>
	
		<line fill="none" stroke="#800000" stroke-width="2" stroke-linecap="square" stroke-miterlimit="10" x1="208.2" y1="160.2" x2="215.1" y2="173.9"/>
	
		<line fill="none" stroke="#800000" stroke-width="2" stroke-linecap="square" stroke-miterlimit="10" x1="215.1" y1="173.9" x2="221.9" y2="160.2"/>
	
		<line fill="none" stroke="#800000" stroke-width="2" stroke-linecap="square" stroke-miterlimit="10" x1="221.9" y1="160.2" x2="228.7" y2="173.9"/>
	
		<line fill="none" stroke="#800000" stroke-width="2" stroke-linecap="square" stroke-miterlimit="10" x1="201.4" y1="173.9" x2="194.5" y2="160.2"/>
	
		<line fill="none" stroke="#800000" stroke-width="2" stroke-linecap="square" stroke-miterlimit="10" x1="194.5" y1="160.2" x2="190.4" y2="167.1"/>
	
		<line fill="none" stroke="#800000" stroke-width="2" stroke-linecap="square" stroke-miterlimit="10" x1="228.7" y1="173.9" x2="231.5" y2="167.1"/>
	
		<line fill="none" stroke="#800000" stroke-width="2" stroke-linecap="square" stroke-miterlimit="10" x1="176.7" y1="167.1" x2="190.4" y2="167.1"/>
	
		<line fill="none" stroke="#800000" stroke-width="2" stroke-linecap="square" stroke-miterlimit="10" x1="245.2" y1="167.1" x2="231.5" y2="167.1"/>
	
		<path fill-rule="evenodd" clip-rule="evenodd" fill="#004000" stroke="#004000" stroke-width="2" stroke-linecap="square" stroke-miterlimit="10" d="
		M91.9,167.1c0-1.5,1.2-2.7,2.7-2.7s2.7,1.2,2.7,2.7c0,1.5-1.2,2.7-2.7,2.7S91.9,168.6,91.9,167.1L91.9,167.1z"/>
	<polygon fill="none" stroke="#0000C0" stroke-width="2" stroke-linecap="square" stroke-miterlimit="10" points="388.9,215 
		375.2,221.9 382,228.7 388.9,215 	"/>
	
		<line fill="none" stroke="#0000C0" stroke-width="2" stroke-linecap="square" stroke-miterlimit="10" x1="377.9" y1="226" x2="368.3" y2="235.6"/>
	<polygon fill="none" stroke="#0000C0" stroke-width="2" stroke-linecap="square" stroke-miterlimit="10" points="662.6,228.7 
		655.7,215 648.9,221.9 662.6,228.7 	"/>
	<path fill="none" stroke="#0000C0" stroke-width="2" stroke-linecap="square" stroke-miterlimit="10" d="M647.5,201.3
		c0-5.3,4.3-9.6,9.6-9.6c5.3,0,9.6,4.3,9.6,9.6c0,5.3-4.3,9.6-9.6,9.6C651.8,210.9,647.5,206.7,647.5,201.3L647.5,201.3z"/>
	
		<line fill="none" stroke="#0000C0" stroke-width="2" stroke-linecap="square" stroke-miterlimit="10" x1="661.2" y1="204.1" x2="657.1" y2="208.2"/>
	
		<line fill="none" stroke="#0000C0" stroke-width="2" stroke-linecap="square" stroke-miterlimit="10" x1="657.1" y1="208.2" x2="653" y2="204.1"/>
	
		<line fill="none" stroke="#0000C0" stroke-width="2" stroke-linecap="square" stroke-miterlimit="10" x1="651.6" y1="217.8" x2="642.1" y2="208.2"/>
	
		<line fill="none" stroke="#0000C0" stroke-width="2" stroke-linecap="square" stroke-miterlimit="10" x1="657.1" y1="194.5" x2="657.1" y2="208.2"/>
	
		<polygon fill-rule="evenodd" clip-rule="evenodd" fill="#C8C8AA" stroke="#800000" stroke-width="2" stroke-linecap="square" stroke-miterlimit="10" points="
		532.6,112.3 532.6,84.9 518.9,98.6 532.6,112.3 	"/>
	
		<line fill="none" stroke="#800000" stroke-width="2" stroke-linecap="square" stroke-miterlimit="10" x1="518.9" y1="112.3" x2="518.9" y2="84.9"/>
	
		<line fill="none" stroke="#800000" stroke-width="2" stroke-linecap="square" stroke-miterlimit="10" x1="546.3" y1="98.6" x2="532.6" y2="98.6"/>
	
		<line fill="none" stroke="#800000" stroke-width="2" stroke-linecap="square" stroke-miterlimit="10" x1="505.2" y1="98.6" x2="518.9" y2="98.6"/>
	
		<polygon fill-rule="evenodd" clip-rule="evenodd" fill="#C8C8AA" stroke="#800000" stroke-width="2" stroke-linecap="square" stroke-miterlimit="10" points="
		299.9,276.7 299.9,304.1 313.6,290.4 299.9,276.7 	"/>
	
		<line fill="none" stroke="#800000" stroke-width="2" stroke-linecap="square" stroke-miterlimit="10" x1="313.6" y1="276.7" x2="313.6" y2="304.1"/>
	
		<line fill="none" stroke="#800000" stroke-width="2" stroke-linecap="square" stroke-miterlimit="10" x1="286.2" y1="290.4" x2="299.9" y2="290.4"/>
	
		<line fill="none" stroke="#800000" stroke-width="2" stroke-linecap="square" stroke-miterlimit="10" x1="327.3" y1="290.4" x2="313.6" y2="290.4"/>
</g>
</svg>
